main.ufo
<glyph name="exclam" format="2">
  <advance width="307"/>
  <unicode hex="0021"/>
  <outline>
    <contour>
      <point x="132" y="127" type="line"/>
      <point x="132" y="-183" type="line"/>
      <point x="170" y="-182" type="line"/>
      <point x="170" y="128" type="line"/>
    </contour>
    <contour>
      <point x="132" y="1600" type="line"/>
      <point x="170" y="1600" type="line"/>
      <point x="170" y="353" type="line"/>
      <point x="132" y="353" type="line"/>
    </contour>
  </outline>
</glyph>
<glyph name="quotedbl" format="2">
  <advance width="580"/>
  <unicode hex="0022"/>
  <outline>
    <contour>
      <point x="287" y="1273" type="line"/>
      <point x="287" y="1530" type="line"/>
      <point x="325" y="1530" type="line"/>
      <point x="325" y="1255" type="line"/>
      <point x="127" y="1085" type="line"/>
      <point x="102" y="1114" type="line"/>
    </contour>
    <contour>
      <point x="440" y="1273" type="line"/>
      <point x="440" y="1530" type="line"/>
      <point x="478" y="1530" type="line"/>
      <point x="478" y="1255" type="line"/>
      <point x="280" y="1085" type="line"/>
      <point x="255" y="1114" type="line"/>
    </contour>
  </outline>
</glyph>
<glyph name="numbersign" format="2">
  <advance width="1297"/>
  <unicode hex="0023"/>
  <outline>
    <contour>
      <point x="102" y="719" type="line"/>
      <point x="1220" y="719" type="line"/>
      <point x="1220" y="681" type="line"/>
      <point x="102" y="681" type="line"/>
    </contour>
    <contour>
      <point x="130" y="16" type="line"/>
      <point x="687" y="1627" type="line"/>
      <point x="723" y="1614" type="line"/>
      <point x="166" y="3" type="line"/>
    </contour>
    <contour>
      <point x="600" y="16" type="line"/>
      <point x="1156" y="1627" type="line"/>
      <point x="1192" y="1614" type="line"/>
      <point x="635" y="3" type="line"/>
    </contour>
    <contour>
      <point x="102" y="956" type="line"/>
      <point x="1220" y="956" type="line"/>
      <point x="1220" y="918" type="line"/>
      <point x="102" y="918" type="line"/>
    </contour>
  </outline>
</glyph>
<glyph name="dollar" format="2">
  <advance width="1126"/>
  <unicode hex="0024"/>
  <outline>
    <contour>
      <point x="63" y="344" type="line"/>
      <point x="133" y="151" type="line"/>
      <point x="293" y="32"/>
      <point x="511" y="32" type="qcurve" smooth="yes"/>
      <point x="571" y="32"/>
      <point x="699" y="57"/>
      <point x="821" y="106"/>
      <point x="931" y="177"/>
      <point x="1013" y="268"/>
      <point x="1061" y="379"/>
      <point x="1061" y="444" type="qcurve" smooth="yes"/>
      <point x="1061" y="534"/>
      <point x="1004" y="659"/>
      <point x="907" y="745"/>
      <point x="778" y="800"/>
      <point x="633" y="839"/>
      <point x="479" y="870"/>
      <point x="334" y="908"/>
      <point x="205" y="962"/>
      <point x="108" y="1045"/>
      <point x="51" y="1167"/>
      <point x="51" y="1255" type="qcurve" smooth="yes"/>
      <point x="51" y="1315"/>
      <point x="89" y="1418"/>
      <point x="155" y="1501"/>
      <point x="244" y="1565"/>
      <point x="346" y="1609"/>
      <point x="457" y="1631"/>
      <point x="511" y="1631" type="qcurve" smooth="yes"/>
      <point x="667" y="1631"/>
      <point x="789" y="1557" type="qcurve"/>
      <point x="775" y="1607" type="line"/>
      <point x="811" y="1617" type="line"/>
      <point x="891" y="1331" type="line"/>
      <point x="855" y="1320" type="line"/>
      <point x="805" y="1500" type="line"/>
      <point x="683" y="1593"/>
      <point x="511" y="1593" type="qcurve" smooth="yes"/>
      <point x="465" y="1593"/>
      <point x="367" y="1575"/>
      <point x="273" y="1538"/>
      <point x="189" y="1482"/>
      <point x="126" y="1407"/>
      <point x="89" y="1312"/>
      <point x="89" y="1255" type="qcurve" smooth="yes"/>
      <point x="89" y="1173"/>
      <point x="146" y="1061"/>
      <point x="243" y="984"/>
      <point x="372" y="936"/>
      <point x="517" y="901"/>
      <point x="671" y="870"/>
      <point x="816" y="829"/>
      <point x="945" y="769"/>
      <point x="1042" y="676"/>
      <point x="1099" y="540"/>
      <point x="1099" y="444" type="qcurve" smooth="yes"/>
      <point x="1099" y="374"/>
      <point x="1048" y="252"/>
      <point x="960" y="152"/>
      <point x="844" y="75"/>
      <point x="713" y="22"/>
      <point x="576" y="-5"/>
      <point x="511" y="-5" type="qcurve" smooth="yes"/>
      <point x="311" y="-5"/>
      <point x="156" y="90" type="qcurve"/>
      <point x="194" y="-14" type="line"/>
      <point x="159" y="-28" type="line"/>
      <point x="27" y="331" type="line"/>
    </contour>
    <contour>
      <point x="356" y="1779" type="line"/>
      <point x="394" y="1779" type="line"/>
      <point x="394" y="-108" type="line"/>
      <point x="356" y="-108" type="line"/>
    </contour>
    <contour>
      <point x="593" y="1779" type="line"/>
      <point x="632" y="1779" type="line"/>
      <point x="632" y="-108" type="line"/>
      <point x="593" y="-108" type="line"/>
    </contour>
  </outline>
</glyph>
<glyph name="percent" format="2">
  <advance width="682"/>
  <unicode hex="0025"/>
  <outline>
    <contour>
      <point x="68" y="16" type="line"/>
      <point x="625" y="1627" type="line"/>
      <point x="660" y="1614" type="line"/>
      <point x="104" y="3" type="line"/>
    </contour>
    <contour>
      <point x="274" y="191" type="qcurve" smooth="yes"/>
      <point x="241" y="158"/>
      <point x="241" y="111" type="qcurve" smooth="yes"/>
      <point x="241" y="64"/>
      <point x="274" y="31" type="qcurve" smooth="yes"/>
      <point x="307" y="-2"/>
      <point x="354" y="-2" type="qcurve" smooth="yes"/>
      <point x="401" y="-2"/>
      <point x="434" y="31" type="qcurve" smooth="yes"/>
      <point x="468" y="64"/>
      <point x="468" y="111" type="qcurve" smooth="yes"/>
      <point x="468" y="158"/>
      <point x="434" y="191" type="qcurve" smooth="yes"/>
      <point x="401" y="225"/>
      <point x="354" y="225" type="qcurve" smooth="yes"/>
      <point x="307" y="225"/>
    </contour>
    <contour>
      <point x="274" y="1582" type="qcurve" smooth="yes"/>
      <point x="241" y="1549"/>
      <point x="241" y="1502" type="qcurve" smooth="yes"/>
      <point x="241" y="1455"/>
      <point x="274" y="1422" type="qcurve" smooth="yes"/>
      <point x="307" y="1389"/>
      <point x="354" y="1389" type="qcurve" smooth="yes"/>
      <point x="401" y="1389"/>
      <point x="434" y="1422" type="qcurve" smooth="yes"/>
      <point x="468" y="1455"/>
      <point x="468" y="1502" type="qcurve" smooth="yes"/>
      <point x="468" y="1549"/>
      <point x="434" y="1582" type="qcurve" smooth="yes"/>
      <point x="401" y="1616"/>
      <point x="354" y="1616" type="qcurve" smooth="yes"/>
      <point x="307" y="1616"/>
    </contour>
    <contour>
      <point x="429" y="111" type="qcurve" smooth="yes"/>
      <point x="429" y="80"/>
      <point x="385" y="36"/>
      <point x="354" y="36" type="qcurve" smooth="yes"/>
      <point x="323" y="36"/>
      <point x="279" y="80"/>
      <point x="279" y="111" type="qcurve" smooth="yes"/>
      <point x="279" y="142"/>
      <point x="323" y="187"/>
      <point x="354" y="187" type="qcurve" smooth="yes"/>
      <point x="385" y="187"/>
      <point x="429" y="143"/>
    </contour>
    <contour>
      <point x="354" y="1577" type="qcurve" smooth="yes"/>
      <point x="386" y="1577"/>
      <point x="429" y="1534"/>
      <point x="429" y="1502" type="qcurve" smooth="yes"/>
      <point x="430" y="1478"/>
      <point x="403" y="1442"/>
      <point x="362" y="1425"/>
      <point x="317" y="1431"/>
      <point x="301" y="1449" type="qcurve" smooth="yes"/>
      <point x="283" y="1465"/>
      <point x="277" y="1510"/>
      <point x="294" y="1551"/>
      <point x="330" y="1578"/>
    </contour>
  </outline>
</glyph>
<glyph name="ampersand" format="2">
  <advance width="1740"/>
  <unicode hex="0026"/>
  <outline>
    <contour>
      <point x="102" y="457" type="qcurve" smooth="yes"/>
      <point x="102" y="549"/>
      <point x="170" y="712"/>
      <point x="291" y="865"/>
      <point x="459" y="1017"/>
      <point x="559" y="1099" type="qcurve"/>
      <point x="217" y="1612" type="line"/>
      <point x="997" y="1612" type="line"/>
      <point x="964" y="1526"/>
      <point x="880" y="1383"/>
      <point x="783" y="1258"/>
      <point x="671" y="1146"/>
      <point x="610" y="1092" type="qcurve"/>
      <point x="1147" y="328" type="line"/>
      <point x="1267" y="534"/>
      <point x="1268" y="726" type="qcurve"/>
      <point x="1146" y="891" type="line"/>
      <point x="1177" y="914" type="line"/>
      <point x="1307" y="739" type="line"/>
      <point x="1307" y="621"/>
      <point x="1233" y="394"/>
      <point x="1172" y="294" type="qcurve"/>
      <point x="1283" y="150" type="line" smooth="yes"/>
      <point x="1314" y="110"/>
      <point x="1358" y="60"/>
      <point x="1395" y="33"/>
      <point x="1431" y="23"/>
      <point x="1454" y="23" type="qcurve" smooth="yes"/>
      <point x="1505" y="23"/>
      <point x="1615" y="59"/>
      <point x="1673" y="92" type="qcurve"/>
      <point x="1692" y="59" type="line"/>
      <point x="1654" y="40"/>
      <point x="1593" y="12"/>
      <point x="1538" y="-7"/>
      <point x="1485" y="-16"/>
      <point x="1454" y="-16" type="qcurve" smooth="yes"/>
      <point x="1425" y="-16"/>
      <point x="1379" y="-3"/>
      <point x="1334" y="27"/>
      <point x="1287" y="78"/>
      <point x="1258" y="117" type="qcurve" smooth="yes"/>
      <point x="1150" y="260" type="line"/>
      <point x="1115" y="202"/>
      <point x="1010" y="101"/>
      <point x="881" y="27"/>
      <point x="735" y="-16"/>
      <point x="659" y="-16" type="qcurve" smooth="yes"/>
      <point x="548" y="-16"/>
      <point x="347" y="41"/>
      <point x="193" y="157"/>
      <point x="102" y="335"/>
    </contour>
    <contour>
      <point x="141" y="457" type="qcurve" smooth="yes"/>
      <point x="141" y="349"/>
      <point x="223" y="186"/>
      <point x="364" y="78"/>
      <point x="552" y="23"/>
      <point x="659" y="23" type="qcurve" smooth="yes"/>
      <point x="733" y="23"/>
      <point x="867" y="62"/>
      <point x="984" y="132"/>
      <point x="1084" y="232"/>
      <point x="1125" y="292" type="qcurve"/>
      <point x="581" y="1067" type="line"/>
      <point x="492" y="996"/>
      <point x="332" y="852"/>
      <point x="212" y="702"/>
      <point x="141" y="544"/>
    </contour>
    <contour>
      <point x="589" y="1124" type="line"/>
      <point x="648" y="1173"/>
      <point x="749" y="1273"/>
      <point x="836" y="1381"/>
      <point x="910" y="1503"/>
      <point x="940" y="1574" type="qcurve"/>
      <point x="288" y="1574" type="line"/>
    </contour>
  </outline>
</glyph>
<glyph name="quotesingle" format="2">
  <advance width="443"/>
  <unicode hex="0027"/>
  <outline>
    <contour>
      <point x="287" y="1273" type="line"/>
      <point x="287" y="1530" type="line"/>
      <point x="325" y="1530" type="line"/>
      <point x="325" y="1255" type="line"/>
      <point x="127" y="1085" type="line"/>
      <point x="102" y="1114" type="line"/>
    </contour>
  </outline>
</glyph>
<glyph name="parenleft" format="2">
  <advance width="477"/>
  <unicode hex="0028"/>
  <outline>
    <contour>
      <point x="102" y="818" type="qcurve" smooth="yes"/>
      <point x="102" y="1154"/>
      <point x="202" y="1391" type="qcurve" smooth="yes"/>
      <point x="251" y="1511"/>
      <point x="382" y="1637"/>
      <point x="455" y="1637" type="qcurve"/>
      <point x="455" y="1599" type="line"/>
      <point x="394" y="1599"/>
      <point x="339" y="1542" type="qcurve" smooth="yes"/>
      <point x="283" y="1486"/>
      <point x="237" y="1377" type="qcurve" smooth="yes"/>
      <point x="140" y="1146"/>
      <point x="140" y="818" type="qcurve" smooth="yes"/>
      <point x="140" y="491"/>
      <point x="237" y="260" type="qcurve" smooth="yes"/>
      <point x="283" y="153"/>
      <point x="339" y="94" type="qcurve" smooth="yes"/>
      <point x="394" y="37"/>
      <point x="455" y="37" type="qcurve"/>
      <point x="455" y="-1" type="line"/>
      <point x="382" y="-1"/>
      <point x="253" y="125"/>
      <point x="202" y="245" type="qcurve" smooth="yes"/>
      <point x="102" y="485"/>
    </contour>
  </outline>
</glyph>
<glyph name="parenright" format="2">
  <advance width="512"/>
  <unicode hex="0029"/>
  <outline>
    <contour>
      <point x="102" y="39" type="line"/>
      <point x="163" y="39"/>
      <point x="219" y="96" type="qcurve" smooth="yes"/>
      <point x="275" y="152"/>
      <point x="321" y="262" type="qcurve" smooth="yes"/>
      <point x="418" y="493"/>
      <point x="418" y="820" type="qcurve" smooth="yes"/>
      <point x="418" y="1147"/>
      <point x="321" y="1378" type="qcurve" smooth="yes"/>
      <point x="275" y="1485"/>
      <point x="219" y="1544" type="qcurve" smooth="yes"/>
      <point x="163" y="1601"/>
      <point x="102" y="1601" type="qcurve"/>
      <point x="102" y="1639" type="line"/>
      <point x="175" y="1639"/>
      <point x="307" y="1511"/>
      <point x="356" y="1393" type="qcurve" smooth="yes"/>
      <point x="455" y="1154"/>
      <point x="455" y="820" type="qcurve" smooth="yes"/>
      <point x="455" y="484"/>
      <point x="356" y="247" type="qcurve" smooth="yes"/>
      <point x="307" y="127"/>
      <point x="175" y="1"/>
      <point x="102" y="1" type="qcurve"/>
    </contour>
  </outline>
</glyph>
<glyph name="plus" format="2">
  <advance width="955"/>
  <unicode hex="002B"/>
  <outline>
    <contour>
      <point x="68" y="837" type="line"/>
      <point x="456" y="837" type="line"/>
      <point x="456" y="1225" type="line"/>
      <point x="494" y="1225" type="line"/>
      <point x="494" y="837" type="line"/>
      <point x="882" y="837" type="line"/>
      <point x="882" y="800" type="line"/>
      <point x="494" y="800" type="line"/>
      <point x="494" y="411" type="line"/>
      <point x="456" y="411" type="line"/>
      <point x="456" y="800" type="line"/>
      <point x="68" y="800" type="line"/>
    </contour>
  </outline>
</glyph>
<glyph name="comma" format="2">
  <advance width="409"/>
  <unicode hex="002C"/>
  <outline>
    <contour>
      <point x="253" y="18" type="line"/>
      <point x="253" y="275" type="line"/>
      <point x="291" y="275" type="line"/>
      <point x="291" y="0" type="line"/>
      <point x="93" y="-170" type="line"/>
      <point x="68" y="-140" type="line"/>
    </contour>
  </outline>
</glyph>
<glyph name="hyphen" format="2">
  <advance width="1058"/>
  <unicode hex="002D"/>
  <outline>
    <contour>
      <point x="137" y="800" type="line"/>
      <point x="951" y="800" type="line"/>
      <point x="951" y="837" type="line"/>
      <point x="137" y="837" type="line"/>
    </contour>
  </outline>
</glyph>
<glyph name="period" format="2">
  <advance width="477"/>
  <unicode hex="002E"/>
  <outline>
    <contour>
      <point x="170" y="193" type="qcurve" smooth="yes"/>
      <point x="203" y="226"/>
      <point x="250" y="226" type="qcurve" smooth="yes"/>
      <point x="297" y="226"/>
      <point x="330" y="193" type="qcurve" smooth="yes"/>
      <point x="363" y="160"/>
      <point x="363" y="113" type="qcurve" smooth="yes"/>
      <point x="363" y="66"/>
      <point x="330" y="32" type="qcurve" smooth="yes"/>
      <point x="297" y="-1"/>
      <point x="250" y="-1" type="qcurve" smooth="yes"/>
      <point x="203" y="-1"/>
      <point x="170" y="32" type="qcurve" smooth="yes"/>
      <point x="137" y="66"/>
      <point x="137" y="113" type="qcurve" smooth="yes"/>
      <point x="137" y="160"/>
    </contour>
    <contour>
      <point x="197" y="60" type="qcurve" smooth="yes"/>
      <point x="219" y="38"/>
      <point x="281" y="38"/>
      <point x="303" y="60" type="qcurve" smooth="yes"/>
      <point x="325" y="82"/>
      <point x="325" y="144"/>
      <point x="303" y="166" type="qcurve" smooth="yes"/>
      <point x="281" y="188"/>
      <point x="219" y="188"/>
      <point x="197" y="166" type="qcurve" smooth="yes"/>
      <point x="175" y="144"/>
      <point x="175" y="82"/>
    </contour>
  </outline>
</glyph>
<glyph name="slash" format="2">
  <advance width="682"/>
  <unicode hex="002F"/>
  <outline>
    <contour>
      <point x="68" y="16" type="line"/>
      <point x="625" y="1627" type="line"/>
      <point x="660" y="1614" type="line"/>
      <point x="104" y="3" type="line"/>
    </contour>
  </outline>
</glyph>
<glyph name="zero" format="2">
  <advance width="1399"/>
  <unicode hex="0030"/>
  <outline>
    <contour>
      <point x="100" y="820" type="qcurve" smooth="yes"/>
      <point x="100" y="923"/>
      <point x="137" y="1123"/>
      <point x="208" y="1304"/>
      <point x="312" y="1458"/>
      <point x="445" y="1569"/>
      <point x="607" y="1631"/>
      <point x="700" y="1630" type="qcurve" smooth="yes"/>
      <point x="797" y="1629"/>
      <point x="962" y="1561"/>
      <point x="1095" y="1444"/>
      <point x="1196" y="1287"/>
      <point x="1264" y="1107"/>
      <point x="1298" y="914"/>
      <point x="1298" y="820" type="qcurve" smooth="yes"/>
      <point x="1298" y="732"/>
      <point x="1266" y="540"/>
      <point x="1200" y="354"/>
      <point x="1101" y="187"/>
      <point x="968" y="60"/>
      <point x="799" y="-15"/>
      <point x="697" y="-15" type="qcurve" smooth="yes"/>
      <point x="599" y="-15"/>
      <point x="434" y="58"/>
      <point x="302" y="182"/>
      <point x="201" y="348"/>
      <point x="134" y="534"/>
      <point x="100" y="728"/>
    </contour>
    <contour>
      <point x="138" y="820" type="qcurve" smooth="yes"/>
      <point x="138" y="731"/>
      <point x="170" y="543"/>
      <point x="233" y="366"/>
      <point x="327" y="209"/>
      <point x="452" y="91"/>
      <point x="607" y="23"/>
      <point x="699" y="23" type="qcurve" smooth="yes"/>
      <point x="792" y="23"/>
      <point x="947" y="92"/>
      <point x="1072" y="211"/>
      <point x="1166" y="369"/>
      <point x="1228" y="546"/>
      <point x="1260" y="732"/>
      <point x="1260" y="820" type="qcurve" smooth="yes"/>
      <point x="1260" y="910"/>
      <point x="1228" y="1094"/>
      <point x="1165" y="1266"/>
      <point x="1070" y="1416"/>
      <point x="946" y="1528"/>
      <point x="791" y="1593"/>
      <point x="699" y="1593" type="qcurve" smooth="yes"/>
      <point x="607" y="1593"/>
      <point x="452" y="1528"/>
      <point x="327" y="1415"/>
      <point x="233" y="1263"/>
      <point x="170" y="1091"/>
      <point x="138" y="908"/>
    </contour>
  </outline>
</glyph>
<glyph name="one" format="2">
  <advance width="648"/>
  <unicode hex="0031"/>
  <outline>
    <contour>
      <point x="68" y="1276" type="line"/>
      <point x="490" y="1662" type="line"/>
      <point x="490" y="157" type="line" smooth="yes"/>
      <point x="490" y="140"/>
      <point x="482" y="105"/>
      <point x="467" y="72"/>
      <point x="444" y="45"/>
      <point x="429" y="38" type="qcurve"/>
      <point x="616" y="38" type="line"/>
      <point x="616" y="0" type="line"/>
      <point x="236" y="0" type="line"/>
      <point x="236" y="38" type="line"/>
      <point x="291" y="38" type="line" smooth="yes"/>
      <point x="321" y="38"/>
      <point x="379" y="52"/>
      <point x="424" y="80"/>
      <point x="452" y="125"/>
      <point x="452" y="157" type="qcurve" smooth="yes"/>
      <point x="452" y="1575" type="line"/>
      <point x="94" y="1248" type="line"/>
    </contour>
  </outline>
</glyph>
<glyph name="two" format="2">
  <advance width="1228"/>
  <unicode hex="0032"/>
  <outline>
    <contour>
      <point x="102" y="0" type="line"/>
      <point x="102" y="140"/>
      <point x="164" y="364"/>
      <point x="294" y="560"/>
      <point x="496" y="741"/>
      <point x="637" y="839" type="qcurve" smooth="yes"/>
      <point x="680" y="869"/>
      <point x="770" y="933"/>
      <point x="854" y="1003"/>
      <point x="929" y="1081"/>
      <point x="985" y="1169"/>
      <point x="1017" y="1267"/>
      <point x="1017" y="1323" type="qcurve" smooth="yes"/>
      <point x="1017" y="1395"/>
      <point x="960" y="1497"/>
      <point x="866" y="1561"/>
      <point x="747" y="1592"/>
      <point x="686" y="1593" type="qcurve" smooth="yes"/>
      <point x="586" y="1593"/>
      <point x="406" y="1550"/>
      <point x="325" y="1516" type="qcurve"/>
      <point x="203" y="1304" type="line"/>
      <point x="169" y="1324" type="line"/>
      <point x="298" y="1546" type="line"/>
      <point x="392" y="1584"/>
      <point x="575" y="1631"/>
      <point x="669" y="1631" type="qcurve" smooth="yes"/>
      <point x="745" y="1632"/>
      <point x="885" y="1596"/>
      <point x="992" y="1520"/>
      <point x="1056" y="1403"/>
      <point x="1056" y="1323" type="qcurve" smooth="yes"/>
      <point x="1056" y="1249"/>
      <point x="1009" y="1124"/>
      <point x="912" y="1004"/>
      <point x="762" y="880"/>
      <point x="659" y="808" type="qcurve" smooth="yes"/>
      <point x="548" y="730"/>
      <point x="359" y="575"/>
      <point x="220" y="395"/>
      <point x="141" y="177"/>
      <point x="141" y="38" type="qcurve"/>
      <point x="986" y="38" type="line"/>
      <point x="1174" y="208" type="line"/>
      <point x="1200" y="180" type="line"/>
      <point x="1000" y="0" type="line"/>
    </contour>
  </outline>
</glyph>
<glyph name="three" format="2">
  <advance width="1092"/>
  <unicode hex="0033"/>
  <outline>
    <contour>
      <point x="107" y="243" type="line"/>
      <point x="106" y="201"/>
      <point x="156" y="122"/>
      <point x="239" y="61"/>
      <point x="342" y="24"/>
      <point x="395" y="24" type="qcurve" smooth="yes"/>
      <point x="469" y="24"/>
      <point x="618" y="66"/>
      <point x="755" y="144"/>
      <point x="873" y="254"/>
      <point x="959" y="390"/>
      <point x="1009" y="548"/>
      <point x="1009" y="635" type="qcurve" smooth="yes"/>
      <point x="1009" y="711"/>
      <point x="968" y="833"/>
      <point x="897" y="920"/>
      <point x="798" y="971"/>
      <point x="681" y="980"/>
      <point x="552" y="946"/>
      <point x="485" y="905" type="qcurve" smooth="yes"/>
      <point x="328" y="808" type="line"/>
      <point x="318" y="824" type="line"/>
      <point x="307" y="840" type="line"/>
      <point x="573" y="1005" type="line" smooth="yes"/>
      <point x="648" y="1052"/>
      <point x="757" y="1133"/>
      <point x="828" y="1211"/>
      <point x="861" y="1292"/>
      <point x="861" y="1340" type="qcurve" smooth="yes"/>
      <point x="861" y="1396"/>
      <point x="803" y="1491"/>
      <point x="711" y="1560"/>
      <point x="597" y="1598"/>
      <point x="541" y="1598" type="qcurve" smooth="yes"/>
      <point x="443" y="1599"/>
      <point x="262" y="1497"/>
      <point x="189" y="1399" type="qcurve"/>
      <point x="158" y="1422" type="line"/>
      <point x="191" y="1467"/>
      <point x="275" y="1546"/>
      <point x="372" y="1603"/>
      <point x="481" y="1636"/>
      <point x="541" y="1636" type="qcurve" smooth="yes"/>
      <point x="604" y="1636"/>
      <point x="732" y="1594"/>
      <point x="835" y="1518"/>
      <point x="900" y="1410"/>
      <point x="900" y="1343" type="qcurve" smooth="yes"/>
      <point x="900" y="1299"/>
      <point x="874" y="1214"/>
      <point x="811" y="1131"/>
      <point x="708" y="1047"/>
      <point x="632" y="1004" type="qcurve"/>
      <point x="727" y="1023"/>
      <point x="881" y="985"/>
      <point x="989" y="885"/>
      <point x="1048" y="731"/>
      <point x="1048" y="636" type="qcurve" smooth="yes"/>
      <point x="1048" y="549"/>
      <point x="998" y="385"/>
      <point x="908" y="241"/>
      <point x="785" y="120"/>
      <point x="640" y="33"/>
      <point x="477" y="-15"/>
      <point x="393" y="-15" type="qcurve" smooth="yes"/>
      <point x="333" y="-15"/>
      <point x="219" y="23"/>
      <point x="129" y="92"/>
      <point x="71" y="186"/>
      <point x="68" y="243" type="qcurve"/>
    </contour>
  </outline>
</glyph>
<glyph name="four" format="2">
  <advance width="1262"/>
  <unicode hex="0034"/>
  <outline>
    <contour>
      <point x="68" y="596" type="line"/>
      <point x="798" y="1904" type="line"/>
      <point x="832" y="1885" type="line"/>
      <point x="134" y="635" type="line"/>
      <point x="862" y="635" type="line"/>
      <point x="862" y="1311" type="line"/>
      <point x="900" y="1311" type="line"/>
      <point x="900" y="635" type="line"/>
      <point x="1193" y="635" type="line"/>
      <point x="1193" y="596" type="line"/>
      <point x="900" y="596" type="line"/>
      <point x="900" y="235" type="line" smooth="yes"/>
      <point x="900" y="165"/>
      <point x="828" y="67"/>
      <point x="770" y="39" type="qcurve"/>
      <point x="1193" y="39" type="line"/>
      <point x="1193" y="0" type="line"/>
      <point x="568" y="0" type="line"/>
      <point x="569" y="39" type="line"/>
      <point x="624" y="40"/>
      <point x="730" y="61"/>
      <point x="812" y="106"/>
      <point x="862" y="180"/>
      <point x="862" y="235" type="qcurve" smooth="yes"/>
      <point x="862" y="596" type="line"/>
    </contour>
  </outline>
</glyph>
<glyph name="five" format="2">
  <advance width="1092"/>
  <unicode hex="0035"/>
  <outline>
    <contour>
      <point x="68" y="-132" type="line"/>
      <point x="187" y="-134"/>
      <point x="416" y="-87"/>
      <point x="622" y="7"/>
      <point x="796" y="146"/>
      <point x="922" y="324"/>
      <point x="993" y="539"/>
      <point x="993" y="663" type="qcurve" smooth="yes"/>
      <point x="993" y="739"/>
      <point x="950" y="855"/>
      <point x="873" y="940"/>
      <point x="769" y="998"/>
      <point x="648" y="1033"/>
      <point x="513" y="1048"/>
      <point x="445" y="1048" type="qcurve" smooth="yes"/>
      <point x="397" y="1048"/>
      <point x="309" y="1041"/>
      <point x="234" y="1032"/>
      <point x="176" y="1021"/>
      <point x="157" y="1017" type="qcurve"/>
      <point x="157" y="1619" type="line"/>
      <point x="1008" y="1793" type="line"/>
      <point x="1016" y="1755" type="line"/>
      <point x="195" y="1588" type="line"/>
      <point x="195" y="1064" type="line"/>
      <point x="258" y="1075"/>
      <point x="381" y="1086"/>
      <point x="444" y="1086" type="qcurve" smooth="yes"/>
      <point x="513" y="1086"/>
      <point x="654" y="1071"/>
      <point x="784" y="1034"/>
      <point x="899" y="972"/>
      <point x="983" y="878"/>
      <point x="1032" y="749"/>
      <point x="1032" y="663" type="qcurve" smooth="yes"/>
      <point x="1032" y="539"/>
      <point x="957" y="316"/>
      <point x="824" y="127"/>
      <point x="642" y="-23"/>
      <point x="428" y="-126"/>
      <point x="190" y="-177"/>
      <point x="68" y="-171" type="qcurve"/>
      <point x="68" y="-132" type="line"/>
    </contour>
  </outline>
</glyph>
<glyph name="seven" format="2">
  <advance width="1262"/>
  <unicode hex="0037"/>
  <outline>
    <contour>
      <point x="68" y="1347" type="line"/>
      <point x="200" y="1614" type="line"/>
      <point x="1239" y="1614" type="line"/>
      <point x="425" y="-210" type="line"/>
      <point x="390" y="-195" type="line"/>
      <point x="1180" y="1575" type="line"/>
      <point x="225" y="1575" type="line"/>
      <point x="102" y="1330" type="line"/>
    </contour>
  </outline>
</glyph>
<glyph name="nine" format="2">
  <advance width="1024"/>
  <unicode hex="0039"/>
  <outline>
    <contour>
      <point x="957" y="1098" type="qcurve" smooth="yes"/>
      <point x="957" y="865"/>
      <point x="836" y="464"/>
      <point x="610" y="163"/>
      <point x="288" y="-20"/>
      <point x="87" y="-34" type="qcurve"/>
      <point x="85" y="4" type="line"/>
      <point x="282" y="20"/>
      <point x="592" y="194"/>
      <point x="806" y="481"/>
      <point x="918" y="869"/>
      <point x="918" y="1099" type="qcurve" smooth="yes"/>
      <point x="918" y="1230"/>
      <point x="852" y="1417"/>
      <point x="739" y="1537"/>
      <point x="590" y="1592"/>
      <point x="506" y="1591" type="qcurve" smooth="yes"/>
      <point x="429" y="1590"/>
      <point x="289" y="1512"/>
      <point x="182" y="1380"/>
      <point x="118" y="1204"/>
      <point x="118" y="1105" type="qcurve" smooth="yes"/>
      <point x="118" y="1022"/>
      <point x="172" y="873"/>
      <point x="273" y="761"/>
      <point x="419" y="695"/>
      <point x="512" y="695" type="qcurve" smooth="yes"/>
      <point x="583" y="695"/>
      <point x="705" y="752"/>
      <point x="745" y="811" type="qcurve"/>
      <point x="774" y="791" type="line"/>
      <point x="729" y="728"/>
      <point x="594" y="656"/>
      <point x="513" y="656" type="qcurve" smooth="yes"/>
      <point x="412" y="656"/>
      <point x="251" y="728"/>
      <point x="139" y="851"/>
      <point x="80" y="1014"/>
      <point x="80" y="1104" type="qcurve" smooth="yes"/>
      <point x="80" y="1213"/>
      <point x="148" y="1404"/>
      <point x="264" y="1547"/>
      <point x="419" y="1630"/>
      <point x="506" y="1630" type="qcurve" smooth="yes"/>
      <point x="623" y="1630"/>
      <point x="793" y="1546"/>
      <point x="904" y="1401"/>
      <point x="957" y="1207"/>
    </contour>
  </outline>
</glyph>
<glyph name="colon" format="2">
  <advance width="477"/>
  <unicode hex="003A"/>
  <outline>
    <contour>
      <point x="137" y="111" type="qcurve" smooth="yes"/>
      <point x="137" y="133"/>
      <point x="155" y="175"/>
      <point x="185" y="206"/>
      <point x="226" y="225"/>
      <point x="250" y="225" type="qcurve" smooth="yes"/>
      <point x="272" y="225"/>
      <point x="314" y="207"/>
      <point x="345" y="176"/>
      <point x="364" y="135"/>
      <point x="364" y="111" type="qcurve" smooth="yes"/>
      <point x="364" y="88"/>
      <point x="346" y="48"/>
      <point x="315" y="16"/>
      <point x="274" y="-2"/>
      <point x="250" y="-2" type="qcurve" smooth="yes"/>
      <point x="227" y="-2"/>
      <point x="187" y="16"/>
      <point x="155" y="46"/>
      <point x="137" y="87"/>
    </contour>
    <contour>
      <point x="137" y="474" type="qcurve" smooth="yes"/>
      <point x="137" y="496"/>
      <point x="155" y="538"/>
      <point x="185" y="569"/>
      <point x="226" y="588"/>
      <point x="250" y="588" type="qcurve" smooth="yes"/>
      <point x="272" y="588"/>
      <point x="314" y="570"/>
      <point x="345" y="539"/>
      <point x="364" y="498"/>
      <point x="364" y="474" type="qcurve" smooth="yes"/>
      <point x="364" y="451"/>
      <point x="346" y="411"/>
      <point x="315" y="379"/>
      <point x="274" y="361"/>
      <point x="250" y="361" type="qcurve" smooth="yes"/>
      <point x="227" y="361"/>
      <point x="187" y="379"/>
      <point x="155" y="409"/>
      <point x="137" y="450"/>
    </contour>
    <contour>
      <point x="325" y="111" type="qcurve" smooth="yes"/>
      <point x="325" y="143"/>
      <point x="281" y="187"/>
      <point x="250" y="187" type="qcurve" smooth="yes"/>
      <point x="219" y="187"/>
      <point x="175" y="142"/>
      <point x="175" y="111" type="qcurve" smooth="yes"/>
      <point x="175" y="80"/>
      <point x="219" y="36"/>
      <point x="250" y="36" type="qcurve" smooth="yes"/>
      <point x="281" y="36"/>
      <point x="325" y="80"/>
    </contour>
    <contour>
      <point x="250" y="399" type="qcurve" smooth="yes"/>
      <point x="281" y="399"/>
      <point x="325" y="443"/>
      <point x="325" y="474" type="qcurve" smooth="yes"/>
      <point x="325" y="505"/>
      <point x="281" y="549"/>
      <point x="250" y="549" type="qcurve" smooth="yes"/>
      <point x="219" y="549"/>
      <point x="175" y="505"/>
      <point x="175" y="474" type="qcurve" smooth="yes"/>
      <point x="175" y="443"/>
      <point x="219" y="399"/>
    </contour>
  </outline>
</glyph>
<glyph name="semicolon" format="2">
  <advance width="443"/>
  <unicode hex="003B"/>
  <outline>
    <contour>
      <point x="253" y="18" type="line"/>
      <point x="253" y="275" type="line"/>
      <point x="291" y="275" type="line"/>
      <point x="291" y="0" type="line"/>
      <point x="93" y="-170" type="line"/>
      <point x="68" y="-140" type="line"/>
    </contour>
    <contour>
      <point x="158" y="474" type="qcurve" smooth="yes"/>
      <point x="158" y="496"/>
      <point x="176" y="538"/>
      <point x="206" y="569"/>
      <point x="247" y="588"/>
      <point x="271" y="588" type="qcurve" smooth="yes"/>
      <point x="293" y="588"/>
      <point x="335" y="570"/>
      <point x="366" y="539"/>
      <point x="385" y="498"/>
      <point x="385" y="474" type="qcurve" smooth="yes"/>
      <point x="385" y="451"/>
      <point x="367" y="411"/>
      <point x="336" y="379"/>
      <point x="295" y="361"/>
      <point x="271" y="361" type="qcurve" smooth="yes"/>
      <point x="248" y="361"/>
      <point x="208" y="379"/>
      <point x="176" y="409"/>
      <point x="158" y="450"/>
    </contour>
    <contour>
      <point x="271" y="399" type="qcurve" smooth="yes"/>
      <point x="302" y="399"/>
      <point x="346" y="443"/>
      <point x="346" y="474" type="qcurve" smooth="yes"/>
      <point x="346" y="505"/>
      <point x="302" y="549"/>
      <point x="271" y="549" type="qcurve" smooth="yes"/>
      <point x="240" y="549"/>
      <point x="196" y="505"/>
      <point x="196" y="474" type="qcurve" smooth="yes"/>
      <point x="196" y="443"/>
      <point x="240" y="399"/>
    </contour>
  </outline>
</glyph>
<glyph name="less" format="2">
  <advance width="580"/>
  <unicode hex="003C"/>
  <outline>
    <contour>
      <point x="492" y="1239" type="line"/>
      <point x="519" y="1212" type="line"/>
      <point x="156" y="850" type="line"/>
      <point x="519" y="487" type="line"/>
      <point x="492" y="460" type="line"/>
      <point x="102" y="850" type="line"/>
    </contour>
  </outline>
</glyph>
<glyph name="equal" format="2">
  <advance width="1024"/>
  <unicode hex="003D"/>
  <outline>
    <contour>
      <point x="102" y="719" type="line"/>
      <point x="917" y="719" type="line"/>
      <point x="917" y="681" type="line"/>
      <point x="102" y="681" type="line"/>
    </contour>
    <contour>
      <point x="102" y="956" type="line"/>
      <point x="917" y="956" type="line"/>
      <point x="917" y="918" type="line"/>
      <point x="102" y="918" type="line"/>
    </contour>
  </outline>
</glyph>
<glyph name="question" format="2">
  <advance width="1160"/>
  <unicode hex="003F"/>
  <outline>
    <contour>
      <point x="69" y="1200" type="line"/>
      <point x="69" y="1309"/>
      <point x="149" y="1470"/>
      <point x="287" y="1576"/>
      <point x="474" y="1628"/>
      <point x="581" y="1628" type="qcurve" smooth="yes"/>
      <point x="727" y="1628"/>
      <point x="928" y="1557"/>
      <point x="1055" y="1414"/>
      <point x="1115" y="1198"/>
      <point x="1121" y="1053" type="qcurve"/>
      <point x="1107" y="1048" type="line" smooth="yes"/>
      <point x="1006" y="1012"/>
      <point x="821" y="883"/>
      <point x="683" y="712"/>
      <point x="607" y="507"/>
      <point x="614" y="395" type="qcurve"/>
      <point x="575" y="395" type="line"/>
      <point x="576" y="514"/>
      <point x="650" y="724"/>
      <point x="782" y="899"/>
      <point x="968" y="1035"/>
      <point x="1082" y="1080" type="qcurve"/>
      <point x="1076" y="1221"/>
      <point x="1006" y="1415"/>
      <point x="880" y="1536"/>
      <point x="698" y="1590"/>
      <point x="581" y="1590" type="qcurve" smooth="yes"/>
      <point x="492" y="1590"/>
      <point x="325" y="1550"/>
      <point x="194" y="1462"/>
      <point x="111" y="1321"/>
      <point x="107" y="1219" type="qcurve"/>
      <point x="321" y="1056" type="line"/>
      <point x="297" y="1026" type="line"/>
    </contour>
    <contour>
      <point x="618" y="128" type="line"/>
      <point x="624" y="-182" type="line"/>
      <point x="585" y="-183" type="line"/>
      <point x="580" y="127" type="line"/>
    </contour>
  </outline>
</glyph>
<glyph name="at" format="2">
  <advance width="1570"/>
  <unicode hex="0040"/>
  <outline>
    <contour>
      <point x="1228" y="-23" type="qcurve" smooth="yes"/>
      <point x="1185" y="-23"/>
      <point x="1125" y="17"/>
      <point x="1086" y="79"/>
      <point x="1064" y="151"/>
      <point x="1059" y="183" type="qcurve"/>
      <point x="1023" y="139"/>
      <point x="930" y="67"/>
      <point x="825" y="14"/>
      <point x="713" y="-15"/>
      <point x="659" y="-15" type="qcurve" smooth="yes"/>
      <point x="602" y="-15"/>
      <point x="511" y="29"/>
      <point x="448" y="103"/>
      <point x="414" y="200"/>
      <point x="414" y="253" type="qcurve" smooth="yes"/>
      <point x="414" y="319"/>
      <point x="463" y="419"/>
      <point x="547" y="490"/>
      <point x="656" y="537"/>
      <point x="776" y="564"/>
      <point x="898" y="575"/>
      <point x="953" y="575" type="qcurve" smooth="yes"/>
      <point x="1064" y="575" type="line"/>
      <point x="1059" y="665"/>
      <point x="1048" y="813"/>
      <point x="1001" y="920"/>
      <point x="899" y="978"/>
      <point x="803" y="978" type="qcurve" smooth="yes"/>
      <point x="758" y="978"/>
      <point x="667" y="963"/>
      <point x="580" y="932"/>
      <point x="501" y="884"/>
      <point x="468" y="851" type="qcurve"/>
      <point x="522" y="743" type="line"/>
      <point x="488" y="726" type="line"/>
      <point x="422" y="857" type="line"/>
      <point x="501" y="937"/>
      <point x="694" y="1016"/>
      <point x="803" y="1016" type="qcurve" smooth="yes"/>
      <point x="872" y="1016"/>
      <point x="970" y="989"/>
      <point x="1035" y="935"/>
      <point x="1073" y="854"/>
      <point x="1093" y="748"/>
      <point x="1100" y="616"/>
      <point x="1102" y="538" type="qcurve"/>
      <point x="952" y="538" type="line" smooth="yes"/>
      <point x="907" y="538"/>
      <point x="799" y="530"/>
      <point x="688" y="507"/>
      <point x="583" y="467"/>
      <point x="501" y="404"/>
      <point x="452" y="314"/>
      <point x="452" y="253" type="qcurve" smooth="yes"/>
      <point x="452" y="209"/>
      <point x="481" y="127"/>
      <point x="535" y="62"/>
      <point x="612" y="23"/>
      <point x="660" y="23" type="qcurve" smooth="yes"/>
      <point x="714" y="23"/>
      <point x="837" y="59"/>
      <point x="953" y="126"/>
      <point x="1052" y="222"/>
      <point x="1083" y="282" type="qcurve"/>
      <point x="1094" y="279" type="line"/>
      <point x="1094" y="261"/>
      <point x="1096" y="209"/>
      <point x="1105" y="153"/>
      <point x="1122" y="96"/>
      <point x="1152" y="49"/>
      <point x="1196" y="18"/>
      <point x="1228" y="15" type="qcurve" smooth="yes"/>
      <point x="1277" y="15"/>
      <point x="1351" y="66"/>
      <point x="1404" y="151"/>
      <point x="1439" y="258"/>
      <point x="1460" y="371"/>
      <point x="1468" y="479"/>
      <point x="1468" y="521" type="qcurve" smooth="yes"/>
      <point x="1468" y="607"/>
      <point x="1421" y="772"/>
      <point x="1336" y="920"/>
      <point x="1216" y="1045"/>
      <point x="1068" y="1135"/>
      <point x="897" y="1186"/>
      <point x="804" y="1186" type="qcurve" smooth="yes"/>
      <point x="715" y="1186"/>
      <point x="547" y="1138"/>
      <point x="400" y="1052"/>
      <point x="277" y="930"/>
      <point x="189" y="782"/>
      <point x="140" y="612"/>
      <point x="140" y="521" type="qcurve" smooth="yes"/>
      <point x="140" y="427"/>
      <point x="185" y="254"/>
      <point x="270" y="105"/>
      <point x="391" y="-16"/>
      <point x="543" y="-98"/>
      <point x="722" y="-137"/>
      <point x="822" y="-130" type="qcurve"/>
      <point x="822" y="-167" type="line"/>
      <point x="719" y="-175"/>
      <point x="532" y="-136"/>
      <point x="372" y="-51"/>
      <point x="242" y="75"/>
      <point x="151" y="233"/>
      <point x="102" y="419"/>
      <point x="102" y="521" type="qcurve" smooth="yes"/>
      <point x="102" y="615"/>
      <point x="151" y="792"/>
      <point x="242" y="948"/>
      <point x="369" y="1078"/>
      <point x="525" y="1171"/>
      <point x="705" y="1223"/>
      <point x="804" y="1223" type="qcurve" smooth="yes"/>
      <point x="899" y="1223"/>
      <point x="1077" y="1175"/>
      <point x="1233" y="1086"/>
      <point x="1362" y="959"/>
      <point x="1455" y="803"/>
      <point x="1506" y="621"/>
      <point x="1506" y="521" type="qcurve" smooth="yes"/>
      <point x="1506" y="471"/>
      <point x="1496" y="352"/>
      <point x="1473" y="231"/>
      <point x="1432" y="117"/>
      <point x="1371" y="30"/>
      <point x="1285" y="-23"/>
    </contour>
  </outline>
</glyph>
<glyph name="B" format="2">
  <advance width="1325"/>
  <unicode hex="0042"/>
  <outline>
    <contour>
      <point x="70" y="37" type="line"/>
      <point x="187" y="37" type="line"/>
      <point x="187" y="1576" type="line"/>
      <point x="70" y="1576" type="line"/>
      <point x="70" y="1614" type="line"/>
      <point x="653" y="1614" type="line" smooth="yes"/>
      <point x="750" y="1614"/>
      <point x="920" y="1541"/>
      <point x="1047" y="1414"/>
      <point x="1120" y="1244"/>
      <point x="1120" y="1147" type="qcurve" smooth="yes"/>
      <point x="1120" y="1033"/>
      <point x="1066" y="930" type="qcurve"/>
      <point x="1154" y="854"/>
      <point x="1249" y="646"/>
      <point x="1249" y="529" type="qcurve" smooth="yes"/>
      <point x="1249" y="420"/>
      <point x="1166" y="225"/>
      <point x="1094" y="153" type="qcurve" smooth="yes"/>
      <point x="1022" y="81"/>
      <point x="827" y="-1"/>
      <point x="718" y="-1" type="qcurve" smooth="yes"/>
      <point x="70" y="-1" type="line"/>
    </contour>
    <contour>
      <point x="718" y="37" type="line" smooth="yes"/>
      <point x="818" y="35"/>
      <point x="998" y="113"/>
      <point x="1135" y="249"/>
      <point x="1213" y="429"/>
      <point x="1211" y="529" type="qcurve" smooth="yes"/>
      <point x="1211" y="641"/>
      <point x="1117" y="839"/>
      <point x="1030" y="911" type="qcurve" smooth="yes"/>
      <point x="1018" y="921" type="line"/>
      <point x="1026" y="935" type="line" smooth="yes"/>
      <point x="1082" y="1033"/>
      <point x="1082" y="1147" type="qcurve" smooth="yes"/>
      <point x="1082" y="1325"/>
      <point x="956" y="1450" type="qcurve" smooth="yes"/>
      <point x="831" y="1576"/>
      <point x="653" y="1576" type="qcurve" smooth="yes"/>
      <point x="225" y="1576" type="line"/>
      <point x="225" y="37" type="line"/>
    </contour>
  </outline>
</glyph>
<glyph name="C" format="2">
  <advance width="1155"/>
  <unicode hex="0043"/>
  <outline>
    <contour>
      <point x="80" y="798" type="qcurve" smooth="yes"/>
      <point x="80" y="887"/>
      <point x="112" y="1079"/>
      <point x="178" y="1264"/>
      <point x="277" y="1431"/>
      <point x="410" y="1556"/>
      <point x="577" y="1630"/>
      <point x="679" y="1630" type="qcurve" smooth="yes"/>
      <point x="877" y="1630"/>
      <point x="1036" y="1468" type="qcurve" smooth="yes"/>
      <point x="1050" y="1454" type="line"/>
      <point x="864" y="1269" type="line"/>
      <point x="838" y="1296" type="line"/>
      <point x="996" y="1454" type="line"/>
      <point x="852" y="1592"/>
      <point x="679" y="1592" type="qcurve" smooth="yes"/>
      <point x="587" y="1592"/>
      <point x="431" y="1523"/>
      <point x="307" y="1405"/>
      <point x="213" y="1248"/>
      <point x="150" y="1072"/>
      <point x="118" y="886"/>
      <point x="118" y="798" type="qcurve" smooth="yes"/>
      <point x="118" y="709"/>
      <point x="150" y="525"/>
      <point x="213" y="353"/>
      <point x="307" y="201"/>
      <point x="432" y="88"/>
      <point x="587" y="23"/>
      <point x="679" y="23" type="qcurve" smooth="yes"/>
      <point x="791" y="23"/>
      <point x="995" y="137"/>
      <point x="1074" y="243" type="qcurve"/>
      <point x="1104" y="220" type="line"/>
      <point x="1019" y="105"/>
      <point x="800" y="-15"/>
      <point x="679" y="-15" type="qcurve" smooth="yes"/>
      <point x="582" y="-15"/>
      <point x="417" y="54"/>
      <point x="284" y="172"/>
      <point x="183" y="331"/>
      <point x="115" y="511"/>
      <point x="80" y="704"/>
    </contour>
  </outline>
</glyph>
<glyph name="F" format="2">
  <advance width="1214"/>
  <unicode hex="0046"/>
  <outline>
    <contour>
      <point x="70" y="36" type="line"/>
      <point x="208" y="36" type="line"/>
      <point x="208" y="1576" type="line"/>
      <point x="92" y="1576" type="line"/>
      <point x="92" y="1614" type="line"/>
      <point x="967" y="1614" type="line"/>
      <point x="1174" y="1453" type="line"/>
      <point x="1151" y="1424" type="line"/>
      <point x="954" y="1576" type="line"/>
      <point x="246" y="1576" type="line"/>
      <point x="246" y="917" type="line"/>
      <point x="808" y="917" type="line"/>
      <point x="808" y="1030" type="line"/>
      <point x="845" y="1030" type="line"/>
      <point x="845" y="781" type="line"/>
      <point x="808" y="781" type="line"/>
      <point x="808" y="879" type="line"/>
      <point x="246" y="879" type="line"/>
      <point x="246" y="36" type="line"/>
      <point x="397" y="36" type="line"/>
      <point x="397" y="-2" type="line"/>
      <point x="70" y="-2" type="line"/>
    </contour>
  </outline>
</glyph>
<glyph name="H" format="2">
  <advance width="1463"/>
  <unicode hex="0048"/>
  <outline>
    <contour>
      <point x="70" y="38" type="line"/>
      <point x="208" y="38" type="line"/>
      <point x="208" y="1576" type="line"/>
      <point x="70" y="1576" type="line"/>
      <point x="70" y="1614" type="line"/>
      <point x="397" y="1614" type="line"/>
      <point x="397" y="1576" type="line"/>
      <point x="246" y="1576" type="line"/>
      <point x="246" y="881" type="line"/>
      <point x="724" y="734" type="line"/>
      <point x="1218" y="884" type="line"/>
      <point x="1218" y="1576" type="line"/>
      <point x="1066" y="1576" type="line"/>
      <point x="1066" y="1614" type="line"/>
      <point x="1393" y="1614" type="line"/>
      <point x="1393" y="1576" type="line"/>
      <point x="1256" y="1576" type="line"/>
      <point x="1256" y="38" type="line"/>
      <point x="1393" y="38" type="line"/>
      <point x="1393" y="0" type="line"/>
      <point x="1066" y="0" type="line"/>
      <point x="1066" y="38" type="line"/>
      <point x="1218" y="38" type="line"/>
      <point x="1218" y="844" type="line"/>
      <point x="724" y="695" type="line"/>
      <point x="718" y="696" type="line"/>
      <point x="246" y="842" type="line"/>
      <point x="246" y="38" type="line"/>
      <point x="397" y="38" type="line"/>
      <point x="397" y="0" type="line"/>
      <point x="70" y="0" type="line"/>
    </contour>
  </outline>
</glyph>
<glyph name="I" format="2">
  <advance width="467"/>
  <unicode hex="0049"/>
  <outline>
    <contour>
      <point x="70" y="0" type="line"/>
      <point x="70" y="38" type="line"/>
      <point x="215" y="38" type="line"/>
      <point x="215" y="1576" type="line"/>
      <point x="70" y="1576" type="line"/>
      <point x="70" y="1614" type="line"/>
      <point x="397" y="1614" type="line"/>
      <point x="397" y="1576" type="line"/>
      <point x="253" y="1576" type="line"/>
      <point x="253" y="38" type="line"/>
      <point x="397" y="38" type="line"/>
      <point x="397" y="0" type="line"/>
    </contour>
  </outline>
</glyph>
<glyph name="K" format="2">
  <advance width="1281"/>
  <unicode hex="004B"/>
  <outline>
    <contour>
      <point x="70" y="38" type="line"/>
      <point x="215" y="38" type="line"/>
      <point x="215" y="746" type="line"/>
      <point x="212" y="750" type="line"/>
      <point x="215" y="754" type="line"/>
      <point x="215" y="1576" type="line"/>
      <point x="70" y="1576" type="line"/>
      <point x="70" y="1614" type="line"/>
      <point x="397" y="1614" type="line"/>
      <point x="397" y="1576" type="line"/>
      <point x="253" y="1576" type="line"/>
      <point x="253" y="792" type="line"/>
      <point x="1030" y="1576" type="line"/>
      <point x="903" y="1576" type="line"/>
      <point x="903" y="1614" type="line"/>
      <point x="1230" y="1614" type="line"/>
      <point x="1230" y="1576" type="line"/>
      <point x="1083" y="1576" type="line"/>
      <point x="465" y="952" type="line"/>
      <point x="1060" y="38" type="line"/>
      <point x="1218" y="38" type="line"/>
      <point x="1218" y="0" type="line"/>
      <point x="884" y="0" type="line"/>
      <point x="884" y="38" type="line"/>
      <point x="1014" y="38" type="line"/>
      <point x="438" y="924" type="line"/>
      <point x="253" y="738" type="line"/>
      <point x="253" y="38" type="line"/>
      <point x="397" y="38" type="line"/>
      <point x="397" y="0" type="line"/>
      <point x="70" y="0" type="line"/>
    </contour>
  </outline>
</glyph>
<glyph name="L" format="2">
  <advance width="1318"/>
  <unicode hex="004C"/>
  <outline>
    <contour>
      <point x="70" y="0" type="line"/>
      <point x="70" y="38" type="line"/>
      <point x="215" y="38" type="line"/>
      <point x="215" y="1576" type="line"/>
      <point x="70" y="1576" type="line"/>
      <point x="70" y="1614" type="line"/>
      <point x="397" y="1614" type="line"/>
      <point x="397" y="1576" type="line"/>
      <point x="253" y="1576" type="line"/>
      <point x="253" y="38" type="line"/>
      <point x="1092" y="38" type="line"/>
      <point x="1092" y="33" type="line"/>
      <point x="1237" y="230" type="line"/>
      <point x="1268" y="207" type="line"/>
      <point x="1040" y="-101" type="line"/>
      <point x="1010" y="-78" type="line"/>
      <point x="1068" y="0" type="line"/>
    </contour>
  </outline>
</glyph>
<glyph name="M" format="2">
  <advance width="1774"/>
  <unicode hex="004D"/>
  <outline>
    <contour>
      <point x="28" y="0" type="line"/>
      <point x="28" y="38" type="line"/>
      <point x="136" y="38" type="line"/>
      <point x="396" y="1670" type="line"/>
      <point x="886" y="327" type="line"/>
      <point x="1401" y="1669" type="line"/>
      <point x="1638" y="38" type="line"/>
      <point x="1745" y="38" type="line"/>
      <point x="1745" y="0" type="line"/>
      <point x="1496" y="0" type="line"/>
      <point x="1496" y="38" type="line"/>
      <point x="1599" y="38" type="line"/>
      <point x="1384" y="1520" type="line"/>
      <point x="885" y="219" type="line"/>
      <point x="410" y="1520" type="line"/>
      <point x="174" y="38" type="line"/>
      <point x="278" y="38" type="line"/>
      <point x="278" y="0" type="line"/>
    </contour>
  </outline>
</glyph>
<glyph name="Q" format="2">
  <advance width="1421"/>
  <unicode hex="0051"/>
  <outline>
    <contour>
      <point x="1610" y="-203" type="line"/>
      <point x="1610" y="-229" type="line"/>
      <point x="1444" y="-416" type="line"/>
      <point x="1416" y="-390" type="line"/>
      <point x="1570" y="-217" type="line"/>
      <point x="688" y="666" type="line"/>
      <point x="714" y="692" type="line"/>
    </contour>
    <contour>
      <point x="97" y="820" type="qcurve" smooth="yes"/>
      <point x="97" y="923"/>
      <point x="134" y="1123"/>
      <point x="205" y="1304"/>
      <point x="309" y="1458"/>
      <point x="442" y="1569"/>
      <point x="604" y="1631"/>
      <point x="697" y="1630" type="qcurve" smooth="yes"/>
      <point x="795" y="1629"/>
      <point x="959" y="1561"/>
      <point x="1092" y="1444"/>
      <point x="1193" y="1287"/>
      <point x="1261" y="1107"/>
      <point x="1295" y="914"/>
      <point x="1295" y="820" type="qcurve" smooth="yes"/>
      <point x="1295" y="732"/>
      <point x="1263" y="540"/>
      <point x="1197" y="354"/>
      <point x="1098" y="187"/>
      <point x="965" y="60"/>
      <point x="796" y="-15"/>
      <point x="694" y="-15" type="qcurve" smooth="yes"/>
      <point x="596" y="-15"/>
      <point x="431" y="58"/>
      <point x="299" y="182"/>
      <point x="198" y="348"/>
      <point x="131" y="534"/>
      <point x="97" y="728"/>
    </contour>
    <contour>
      <point x="135" y="820" type="qcurve" smooth="yes"/>
      <point x="135" y="731"/>
      <point x="167" y="543"/>
      <point x="230" y="366"/>
      <point x="324" y="209"/>
      <point x="449" y="91"/>
      <point x="604" y="23"/>
      <point x="696" y="23" type="qcurve" smooth="yes"/>
      <point x="789" y="23"/>
      <point x="944" y="92"/>
      <point x="1069" y="211"/>
      <point x="1163" y="369"/>
      <point x="1225" y="546"/>
      <point x="1257" y="732"/>
      <point x="1257" y="820" type="qcurve" smooth="yes"/>
      <point x="1257" y="910"/>
      <point x="1225" y="1094"/>
      <point x="1162" y="1266"/>
      <point x="1067" y="1416"/>
      <point x="943" y="1528"/>
      <point x="788" y="1593"/>
      <point x="696" y="1593" type="qcurve" smooth="yes"/>
      <point x="604" y="1593"/>
      <point x="449" y="1528"/>
      <point x="324" y="1415"/>
      <point x="230" y="1263"/>
      <point x="167" y="1091"/>
      <point x="135" y="908"/>
    </contour>
  </outline>
</glyph>
<glyph name="R" format="2">
  <advance width="1340"/>
  <unicode hex="0052"/>
  <outline>
    <contour>
      <point x="70" y="38" type="line"/>
      <point x="218" y="38" type="line"/>
      <point x="218" y="1576" type="line"/>
      <point x="102" y="1576" type="line"/>
      <point x="102" y="1614" type="line"/>
      <point x="685" y="1614" type="line" smooth="yes"/>
      <point x="794" y="1614"/>
      <point x="981" y="1549"/>
      <point x="1119" y="1428"/>
      <point x="1198" y="1255"/>
      <point x="1198" y="1146" type="qcurve" smooth="yes"/>
      <point x="1198" y="1050"/>
      <point x="1134" y="888"/>
      <point x="1015" y="769"/>
      <point x="845" y="700"/>
      <point x="738" y="696" type="qcurve"/>
      <point x="1058" y="38" type="line"/>
      <point x="1262" y="38" type="line"/>
      <point x="1262" y="0" type="line"/>
      <point x="1035" y="0" type="line"/>
      <point x="696" y="697" type="line"/>
      <point x="256" y="696" type="line"/>
      <point x="256" y="38" type="line"/>
      <point x="398" y="38" type="line"/>
      <point x="398" y="0" type="line"/>
      <point x="70" y="0" type="line"/>
    </contour>
    <contour>
      <point x="708" y="734" type="line" smooth="yes"/>
      <point x="818" y="734"/>
      <point x="987" y="794"/>
      <point x="1101" y="903"/>
      <point x="1160" y="1055"/>
      <point x="1160" y="1146" type="qcurve" smooth="yes"/>
      <point x="1160" y="1245"/>
      <point x="1088" y="1404"/>
      <point x="960" y="1516"/>
      <point x="786" y="1576"/>
      <point x="684" y="1576" type="qcurve" smooth="yes"/>
      <point x="256" y="1576" type="line"/>
      <point x="256" y="734" type="line"/>
    </contour>
  </outline>
</glyph>
<glyph name="Z" format="2">
  <advance width="1297"/>
  <unicode hex="005A"/>
  <outline>
    <contour>
      <point x="23" y="1443" type="line"/>
      <point x="176" y="1614" type="line"/>
      <point x="1220" y="1614" type="line"/>
      <point x="157" y="39" type="line"/>
      <point x="1235" y="39" type="line"/>
      <point x="1234" y="239" type="line"/>
      <point x="1272" y="239" type="line"/>
      <point x="1274" y="1" type="line"/>
      <point x="85" y="1" type="line"/>
      <point x="1149" y="1576" type="line"/>
      <point x="193" y="1576" type="line"/>
      <point x="52" y="1418" type="line"/>
    </contour>
  </outline>
</glyph>
<glyph name="bracketleft" format="2">
  <advance width="546"/>
  <unicode hex="005B"/>
  <outline>
    <contour>
      <point x="171" y="-1" type="line"/>
      <point x="171" y="1614" type="line"/>
      <point x="501" y="1614" type="line"/>
      <point x="501" y="1576" type="line"/>
      <point x="208" y="1576" type="line"/>
      <point x="208" y="37" type="line"/>
      <point x="501" y="37" type="line"/>
      <point x="501" y="-1" type="line"/>
    </contour>
  </outline>
</glyph>
<glyph name="bracketright" format="2">
  <advance width="580"/>
  <unicode hex="005D"/>
  <outline>
    <contour>
      <point x="102" y="-2" type="line"/>
      <point x="102" y="36" type="line"/>
      <point x="395" y="36" type="line"/>
      <point x="395" y="1576" type="line"/>
      <point x="102" y="1576" type="line"/>
      <point x="102" y="1614" type="line"/>
      <point x="433" y="1614" type="line"/>
      <point x="433" y="-2" type="line"/>
    </contour>
  </outline>
</glyph>
<glyph name="asciicircum" format="2">
  <advance width="921"/>
  <unicode hex="005E"/>
  <outline>
    <contour>
      <point x="468" y="2046" type="line"/>
      <point x="754" y="1856" type="line"/>
      <point x="733" y="1824" type="line"/>
      <point x="469" y="2000" type="line"/>
      <point x="227" y="1824" type="line"/>
      <point x="205" y="1856" type="line"/>
    </contour>
  </outline>
</glyph>
<glyph name="underscore" format="2">
  <advance width="1058"/>
  <unicode hex="005F"/>
  <outline>
    <contour>
      <point x="137" y="-1" type="line"/>
      <point x="951" y="-1" type="line"/>
      <point x="951" y="37" type="line"/>
      <point x="137" y="37" type="line"/>
    </contour>
  </outline>
</glyph>
<glyph name="a" format="2">
  <advance width="929"/>
  <unicode hex="0061"/>
  <outline>
    <contour>
      <point x="80" y="253" type="qcurve" smooth="yes"/>
      <point x="80" y="319"/>
      <point x="129" y="419"/>
      <point x="213" y="490"/>
      <point x="322" y="537"/>
      <point x="442" y="564"/>
      <point x="564" y="575"/>
      <point x="619" y="575" type="qcurve" smooth="yes"/>
      <point x="730" y="575" type="line"/>
      <point x="725" y="665"/>
      <point x="714" y="813"/>
      <point x="667" y="920"/>
      <point x="565" y="978"/>
      <point x="469" y="978" type="qcurve" smooth="yes"/>
      <point x="424" y="978"/>
      <point x="333" y="963"/>
      <point x="246" y="932"/>
      <point x="167" y="884"/>
      <point x="134" y="851" type="qcurve"/>
      <point x="188" y="743" type="line"/>
      <point x="154" y="726" type="line"/>
      <point x="88" y="857" type="line"/>
      <point x="167" y="937"/>
      <point x="360" y="1016"/>
      <point x="469" y="1016" type="qcurve" smooth="yes"/>
      <point x="538" y="1016"/>
      <point x="636" y="989"/>
      <point x="701" y="935"/>
      <point x="739" y="854"/>
      <point x="759" y="748"/>
      <point x="766" y="616"/>
      <point x="768" y="538" type="qcurve"/>
      <point x="618" y="538" type="line" smooth="yes"/>
      <point x="573" y="538"/>
      <point x="465" y="530"/>
      <point x="354" y="507"/>
      <point x="249" y="467"/>
      <point x="167" y="404"/>
      <point x="118" y="314"/>
      <point x="118" y="253" type="qcurve" smooth="yes"/>
      <point x="118" y="209"/>
      <point x="147" y="127"/>
      <point x="201" y="62"/>
      <point x="278" y="23"/>
      <point x="326" y="23" type="qcurve" smooth="yes"/>
      <point x="380" y="23"/>
      <point x="503" y="59"/>
      <point x="619" y="126"/>
      <point x="718" y="222"/>
      <point x="749" y="282" type="qcurve"/>
      <point x="760" y="279" type="line"/>
      <point x="760" y="253"/>
      <point x="763" y="172"/>
      <point x="782" y="95"/>
      <point x="824" y="39"/>
      <point x="864" y="38" type="qcurve"/>
      <point x="864" y="0" type="line"/>
      <point x="830" y="0"/>
      <point x="782" y="33"/>
      <point x="749" y="86"/>
      <point x="730" y="151"/>
      <point x="725" y="183" type="qcurve"/>
      <point x="689" y="139"/>
      <point x="596" y="67"/>
      <point x="491" y="14"/>
      <point x="379" y="-15"/>
      <point x="325" y="-15" type="qcurve" smooth="yes"/>
      <point x="268" y="-15"/>
      <point x="177" y="29"/>
      <point x="114" y="103"/>
      <point x="80" y="200"/>
    </contour>
  </outline>
</glyph>
<glyph name="b" format="2">
  <advance width="1001"/>
  <unicode hex="0062"/>
  <outline>
    <contour>
      <point x="25" y="1528" type="line"/>
      <point x="201" y="1611" type="line"/>
      <point x="201" y="190" type="line"/>
      <point x="227" y="139"/>
      <point x="300" y="74"/>
      <point x="384" y="37"/>
      <point x="473" y="23"/>
      <point x="515" y="23" type="qcurve" smooth="yes"/>
      <point x="588" y="23"/>
      <point x="702" y="73"/>
      <point x="788" y="157"/>
      <point x="849" y="268"/>
      <point x="887" y="390"/>
      <point x="904" y="516"/>
      <point x="904" y="573" type="qcurve" smooth="yes"/>
      <point x="904" y="616"/>
      <point x="890" y="711"/>
      <point x="862" y="803"/>
      <point x="817" y="885"/>
      <point x="754" y="947"/>
      <point x="673" y="984"/>
      <point x="622" y="984" type="qcurve" smooth="yes"/>
      <point x="578" y="984"/>
      <point x="495" y="957"/>
      <point x="420" y="914"/>
      <point x="353" y="858"/>
      <point x="325" y="830" type="qcurve"/>
      <point x="299" y="856" type="line"/>
      <point x="333" y="889"/>
      <point x="408" y="949"/>
      <point x="489" y="995"/>
      <point x="575" y="1022"/>
      <point x="622" y="1022" type="qcurve" smooth="yes"/>
      <point x="680" y="1022"/>
      <point x="772" y="983"/>
      <point x="843" y="917"/>
      <point x="894" y="828"/>
      <point x="926" y="728"/>
      <point x="941" y="623"/>
      <point x="941" y="573" type="qcurve" smooth="yes"/>
      <point x="941" y="507"/>
      <point x="921" y="368"/>
      <point x="878" y="237"/>
      <point x="811" y="122"/>
      <point x="718" y="35"/>
      <point x="596" y="-15"/>
      <point x="519" y="-15" type="qcurve" smooth="yes"/>
      <point x="474" y="-15"/>
      <point x="379" y="3"/>
      <point x="292" y="37"/>
      <point x="222" y="89"/>
      <point x="201" y="123" type="qcurve"/>
      <point x="201" y="0" type="line"/>
      <point x="164" y="0" type="line"/>
      <point x="164" y="1552" type="line"/>
      <point x="41" y="1494" type="line"/>
    </contour>
  </outline>
</glyph>
<glyph name="c" format="2">
  <advance width="964"/>
  <unicode hex="0063"/>
  <outline>
    <contour>
      <point x="541" y="-15" type="qcurve" smooth="yes"/>
      <point x="433" y="-15"/>
      <point x="256" y="68"/>
      <point x="129" y="212"/>
      <point x="60" y="406"/>
      <point x="60" y="517" type="qcurve" smooth="yes"/>
      <point x="60" y="615"/>
      <point x="131" y="795"/>
      <point x="256" y="933"/>
      <point x="426" y="1015"/>
      <point x="525" y="1015" type="qcurve" smooth="yes"/>
      <point x="613" y="1017"/>
      <point x="784" y="942"/>
      <point x="859" y="867" type="qcurve"/>
      <point x="759" y="694" type="line"/>
      <point x="726" y="712" type="line"/>
      <point x="812" y="860" type="line"/>
      <point x="754" y="915"/>
      <point x="604" y="978"/>
      <point x="521" y="978" type="qcurve" smooth="yes"/>
      <point x="437" y="978"/>
      <point x="283" y="905"/>
      <point x="167" y="779"/>
      <point x="98" y="612"/>
      <point x="98" y="518" type="qcurve" smooth="yes"/>
      <point x="98" y="421"/>
      <point x="156" y="242"/>
      <point x="268" y="105"/>
      <point x="432" y="23"/>
      <point x="538" y="23" type="qcurve" smooth="yes"/>
      <point x="641" y="23"/>
      <point x="819" y="120"/>
      <point x="883" y="208" type="qcurve"/>
      <point x="914" y="187" type="line"/>
      <point x="883" y="142"/>
      <point x="802" y="67"/>
      <point x="706" y="14"/>
      <point x="598" y="-15"/>
    </contour>
  </outline>
</glyph>
<glyph name="d" format="2">
  <advance width="1045"/>
  <unicode hex="0064"/>
  <outline>
    <contour>
      <point x="60" y="566" type="qcurve" smooth="yes"/>
      <point x="60" y="573" type="line" smooth="yes"/>
      <point x="60" y="660"/>
      <point x="117" y="816"/>
      <point x="220" y="934"/>
      <point x="365" y="1003"/>
      <point x="453" y="1003" type="qcurve" smooth="yes"/>
      <point x="528" y="1003"/>
      <point x="662" y="948"/>
      <point x="712" y="897" type="qcurve"/>
      <point x="685" y="871" type="line"/>
      <point x="637" y="920"/>
      <point x="519" y="966"/>
      <point x="455" y="966" type="qcurve" smooth="yes"/>
      <point x="372" y="966"/>
      <point x="239" y="901"/>
      <point x="147" y="793"/>
      <point x="98" y="651"/>
      <point x="98" y="573" type="qcurve" smooth="yes"/>
      <point x="98" y="443"/>
      <point x="153" y="238"/>
      <point x="262" y="97"/>
      <point x="423" y="23"/>
      <point x="529" y="23" type="qcurve" smooth="yes"/>
      <point x="573" y="23"/>
      <point x="655" y="46"/>
      <point x="726" y="88"/>
      <point x="782" y="148"/>
      <point x="800" y="185" type="qcurve"/>
      <point x="800" y="1555" type="line"/>
      <point x="636" y="1493" type="line"/>
      <point x="623" y="1529" type="line"/>
      <point x="838" y="1609" type="line"/>
      <point x="838" y="45" type="line"/>
      <point x="984" y="92" type="line"/>
      <point x="995" y="56" type="line"/>
      <point x="800" y="-6" type="line"/>
      <point x="800" y="122" type="line"/>
      <point x="790" y="106"/>
      <point x="742" y="59"/>
      <point x="672" y="16"/>
      <point x="581" y="-15"/>
      <point x="529" y="-15" type="qcurve" smooth="yes"/>
      <point x="409" y="-15"/>
      <point x="232" y="71"/>
      <point x="116" y="225"/>
      <point x="60" y="438"/>
    </contour>
  </outline>
</glyph>
<glyph name="e" format="2">
  <advance width="962"/>
  <unicode hex="0065"/>
  <outline>
    <contour>
      <point x="539" y="-15" type="qcurve" smooth="yes"/>
      <point x="439" y="-15"/>
      <point x="265" y="71"/>
      <point x="135" y="218"/>
      <point x="60" y="413"/>
      <point x="60" y="523" type="qcurve" smooth="yes"/>
      <point x="60" y="618"/>
      <point x="128" y="796"/>
      <point x="251" y="934"/>
      <point x="421" y="1017"/>
      <point x="523" y="1017" type="qcurve" smooth="yes"/>
      <point x="611" y="1017"/>
      <point x="783" y="942"/>
      <point x="863" y="862" type="qcurve"/>
      <point x="277" y="421" type="line"/>
      <point x="255" y="451" type="line"/>
      <point x="805" y="866" type="line"/>
      <point x="748" y="917"/>
      <point x="603" y="979"/>
      <point x="521" y="979" type="qcurve" smooth="yes"/>
      <point x="432" y="979"/>
      <point x="278" y="905"/>
      <point x="163" y="781"/>
      <point x="97" y="616"/>
      <point x="97" y="525" type="qcurve" smooth="yes"/>
      <point x="97" y="428"/>
      <point x="162" y="247"/>
      <point x="279" y="107"/>
      <point x="440" y="23"/>
      <point x="536" y="23" type="qcurve" smooth="yes"/>
      <point x="639" y="23"/>
      <point x="817" y="123"/>
      <point x="881" y="211" type="qcurve"/>
      <point x="912" y="190" type="line"/>
      <point x="881" y="145"/>
      <point x="799" y="69"/>
      <point x="703" y="15"/>
      <point x="596" y="-15"/>
    </contour>
  </outline>
</glyph>
<glyph name="f" format="2">
  <advance width="655"/>
  <unicode hex="0066"/>
  <outline>
    <contour>
      <point x="35" y="999" type="line"/>
      <point x="408" y="999" type="line"/>
      <point x="353" y="1021"/>
      <point x="274" y="1085"/>
      <point x="223" y="1163"/>
      <point x="199" y="1253"/>
      <point x="199" y="1300" type="qcurve" smooth="yes"/>
      <point x="199" y="1360"/>
      <point x="241" y="1478"/>
      <point x="321" y="1572"/>
      <point x="438" y="1631"/>
      <point x="514" y="1631" type="qcurve" smooth="yes"/>
      <point x="539" y="1631"/>
      <point x="609" y="1622"/>
      <point x="679" y="1597"/>
      <point x="739" y="1552"/>
      <point x="755" y="1515" type="qcurve"/>
      <point x="755" y="1505" type="line"/>
      <point x="667" y="1438" type="line"/>
      <point x="645" y="1468" type="line"/>
      <point x="713" y="1520" type="line"/>
      <point x="700" y="1541"/>
      <point x="650" y="1570"/>
      <point x="593" y="1586"/>
      <point x="536" y="1593"/>
      <point x="516" y="1593" type="qcurve" smooth="yes"/>
      <point x="448" y="1593"/>
      <point x="343" y="1543"/>
      <point x="272" y="1460"/>
      <point x="236" y="1355"/>
      <point x="236" y="1300" type="qcurve" smooth="yes"/>
      <point x="236" y="1231"/>
      <point x="284" y="1127"/>
      <point x="367" y="1053"/>
      <point x="476" y="1009"/>
      <point x="537" y="999" type="qcurve"/>
      <point x="537" y="961" type="line"/>
      <point x="219" y="961" type="line"/>
      <point x="334" y="912"/>
      <point x="334" y="821" type="qcurve" smooth="yes"/>
      <point x="334" y="177" type="line" smooth="yes"/>
      <point x="334" y="142"/>
      <point x="365" y="91"/>
      <point x="415" y="57"/>
      <point x="478" y="39"/>
      <point x="510" y="38" type="qcurve"/>
      <point x="510" y="0" type="line"/>
      <point x="120" y="0" type="line"/>
      <point x="120" y="38" type="line"/>
      <point x="373" y="38" type="line"/>
      <point x="296" y="85"/>
      <point x="296" y="177" type="qcurve" smooth="yes"/>
      <point x="296" y="821" type="line" smooth="yes"/>
      <point x="296" y="861"/>
      <point x="239" y="914"/>
      <point x="157" y="946"/>
      <point x="67" y="960"/>
      <point x="35" y="961" type="qcurve"/>
    </contour>
  </outline>
</glyph>
<glyph name="g" format="2">
  <advance width="975"/>
  <unicode hex="0067"/>
  <outline>
    <contour>
      <point x="218" y="-213" type="line"/>
      <point x="242" y="-243" type="line"/>
      <point x="106" y="-353" type="line"/>
      <point x="108" y="-422"/>
      <point x="164" y="-546"/>
      <point x="259" y="-641"/>
      <point x="386" y="-697"/>
      <point x="458" y="-697" type="qcurve" smooth="yes"/>
      <point x="528" y="-697"/>
      <point x="656" y="-642"/>
      <point x="754" y="-547"/>
      <point x="811" y="-418"/>
      <point x="811" y="-344" type="qcurve" smooth="yes"/>
      <point x="811" y="-274"/>
      <point x="769" y="-146"/>
      <point x="683" y="-49"/>
      <point x="550" y="8"/>
      <point x="459" y="8" type="qcurve" smooth="yes"/>
      <point x="408" y="8"/>
      <point x="313" y="15"/>
      <point x="240" y="42"/>
      <point x="196" y="92"/>
      <point x="196" y="136" type="qcurve" smooth="yes"/>
      <point x="196" y="192"/>
      <point x="264" y="254"/>
      <point x="318" y="268" type="qcurve"/>
      <point x="264" y="288"/>
      <point x="172" y="361"/>
      <point x="105" y="457"/>
      <point x="68" y="571"/>
      <point x="68" y="632" type="qcurve" smooth="yes"/>
      <point x="68" y="710"/>
      <point x="129" y="851"/>
      <point x="234" y="958"/>
      <point x="376" y="1022"/>
      <point x="458" y="1022" type="qcurve" smooth="yes"/>
      <point x="571" y="1022"/>
      <point x="666" y="962" type="qcurve"/>
      <point x="950" y="962" type="line"/>
      <point x="950" y="924" type="line"/>
      <point x="716" y="924" type="line"/>
      <point x="746" y="904"/>
      <point x="796" y="836"/>
      <point x="830" y="756"/>
      <point x="849" y="670"/>
      <point x="849" y="632" type="qcurve" smooth="yes"/>
      <point x="849" y="554"/>
      <point x="788" y="413"/>
      <point x="683" y="305"/>
      <point x="540" y="242"/>
      <point x="458" y="242" type="qcurve" smooth="yes"/>
      <point x="431" y="242"/>
      <point x="354" y="240"/>
      <point x="283" y="220"/>
      <point x="234" y="177"/>
      <point x="234" y="136" type="qcurve" smooth="yes"/>
      <point x="234" y="106"/>
      <point x="270" y="70"/>
      <point x="331" y="52"/>
      <point x="413" y="46"/>
      <point x="458" y="46" type="qcurve" smooth="yes"/>
      <point x="557" y="46"/>
      <point x="703" y="-14"/>
      <point x="801" y="-119"/>
      <point x="849" y="-262"/>
      <point x="849" y="-344" type="qcurve" smooth="yes"/>
      <point x="849" y="-422"/>
      <point x="788" y="-564"/>
      <point x="683" y="-671"/>
      <point x="540" y="-735"/>
      <point x="458" y="-735" type="qcurve" smooth="yes"/>
      <point x="380" y="-735"/>
      <point x="239" y="-674"/>
      <point x="132" y="-566"/>
      <point x="68" y="-420"/>
      <point x="68" y="-335" type="qcurve"/>
    </contour>
    <contour>
      <point x="106" y="632" type="qcurve" smooth="yes"/>
      <point x="106" y="562"/>
      <point x="161" y="434"/>
      <point x="256" y="337"/>
      <point x="384" y="279"/>
      <point x="458" y="279" type="qcurve" smooth="yes"/>
      <point x="529" y="279"/>
      <point x="657" y="333"/>
      <point x="754" y="428"/>
      <point x="811" y="557"/>
      <point x="811" y="632" type="qcurve" smooth="yes"/>
      <point x="811" y="702"/>
      <point x="756" y="830"/>
      <point x="661" y="927"/>
      <point x="532" y="984"/>
      <point x="458" y="984" type="qcurve" smooth="yes"/>
      <point x="388" y="984"/>
      <point x="260" y="929"/>
      <point x="163" y="834"/>
      <point x="106" y="706"/>
    </contour>
  </outline>
</glyph>
<glyph name="h" format="2">
  <advance width="1116"/>
  <unicode hex="0068"/>
  <outline>
    <contour>
      <point x="274" y="1607" type="line"/>
      <point x="274" y="848" type="line"/>
      <point x="312" y="883"/>
      <point x="403" y="944"/>
      <point x="505" y="989"/>
      <point x="617" y="1015"/>
      <point x="676" y="1015" type="qcurve" smooth="yes"/>
      <point x="737" y="1015"/>
      <point x="833" y="973"/>
      <point x="899" y="898"/>
      <point x="934" y="794"/>
      <point x="934" y="733" type="qcurve" smooth="yes"/>
      <point x="934" y="162" type="line" smooth="yes"/>
      <point x="934" y="81"/>
      <point x="873" y="38" type="qcurve"/>
      <point x="1036" y="38" type="line"/>
      <point x="1036" y="0" type="line"/>
      <point x="750" y="0" type="line"/>
      <point x="750" y="38" type="line"/>
      <point x="777" y="38"/>
      <point x="829" y="53"/>
      <point x="871" y="84"/>
      <point x="897" y="131"/>
      <point x="897" y="162" type="qcurve" smooth="yes"/>
      <point x="897" y="734" type="line"/>
      <point x="897" y="735" type="line" smooth="yes"/>
      <point x="897" y="785"/>
      <point x="870" y="873"/>
      <point x="814" y="939"/>
      <point x="731" y="977"/>
      <point x="676" y="977" type="qcurve" smooth="yes"/>
      <point x="619" y="977"/>
      <point x="510" y="951"/>
      <point x="408" y="903"/>
      <point x="315" y="836"/>
      <point x="274" y="796" type="qcurve"/>
      <point x="274" y="154" type="line" smooth="yes"/>
      <point x="274" y="119"/>
      <point x="244" y="58"/>
      <point x="214" y="38" type="qcurve"/>
      <point x="397" y="38" type="line"/>
      <point x="397" y="0" type="line"/>
      <point x="54" y="0" type="line"/>
      <point x="56" y="38" type="line"/>
      <point x="80" y="38" type="line" smooth="yes"/>
      <point x="106" y="38"/>
      <point x="162" y="51"/>
      <point x="208" y="78"/>
      <point x="237" y="122"/>
      <point x="237" y="154" type="qcurve" smooth="yes"/>
      <point x="237" y="1557" type="line"/>
      <point x="60" y="1507" type="line"/>
      <point x="50" y="1543" type="line"/>
    </contour>
  </outline>
</glyph>
<glyph name="i" format="2">
  <advance width="507"/>
  <unicode hex="0069"/>
  <outline>
    <contour>
      <point x="304" y="1012" type="line"/>
      <point x="304" y="153" type="line" smooth="yes"/>
      <point x="304" y="118"/>
      <point x="273" y="57"/>
      <point x="244" y="37" type="qcurve"/>
      <point x="427" y="37" type="line"/>
      <point x="427" y="0" type="line"/>
      <point x="84" y="0" type="line"/>
      <point x="86" y="37" type="line"/>
      <point x="114" y="38"/>
      <point x="177" y="47"/>
      <point x="231" y="71"/>
      <point x="267" y="116"/>
      <point x="267" y="153" type="qcurve" smooth="yes"/>
      <point x="267" y="962" type="line"/>
      <point x="90" y="912" type="line"/>
      <point x="80" y="948" type="line"/>
    </contour>
    <contour>
      <point x="167" y="1284" type="qcurve" smooth="yes"/>
      <point x="167" y="1307"/>
      <point x="184" y="1347"/>
      <point x="214" y="1376"/>
      <point x="253" y="1393"/>
      <point x="276" y="1393" type="qcurve" smooth="yes"/>
      <point x="298" y="1393"/>
      <point x="338" y="1376"/>
      <point x="368" y="1346"/>
      <point x="386" y="1306"/>
      <point x="386" y="1284" type="qcurve" smooth="yes"/>
      <point x="386" y="1261"/>
      <point x="368" y="1222"/>
      <point x="338" y="1192"/>
      <point x="298" y="1175"/>
      <point x="276" y="1175" type="qcurve" smooth="yes"/>
      <point x="253" y="1175"/>
      <point x="214" y="1192"/>
      <point x="184" y="1222"/>
      <point x="167" y="1261"/>
    </contour>
    <contour>
      <point x="205" y="1284" type="qcurve" smooth="yes"/>
      <point x="205" y="1255"/>
      <point x="247" y="1213"/>
      <point x="276" y="1213" type="qcurve" smooth="yes"/>
      <point x="305" y="1213"/>
      <point x="348" y="1255"/>
      <point x="348" y="1284" type="qcurve" smooth="yes"/>
      <point x="347" y="1314"/>
      <point x="305" y="1356"/>
      <point x="276" y="1356" type="qcurve" smooth="yes"/>
      <point x="247" y="1356"/>
      <point x="205" y="1314"/>
    </contour>
  </outline>
</glyph>
<glyph name="j" format="2">
  <advance width="416"/>
  <unicode hex="006A"/>
  <outline>
    <contour>
      <point x="-135" y="-697" type="line"/>
      <point x="-44" y="-636"/>
      <point x="90" y="-478"/>
      <point x="177" y="-293"/>
      <point x="219" y="-86"/>
      <point x="219" y="24" type="qcurve" smooth="yes"/>
      <point x="219" y="967" type="line"/>
      <point x="43" y="916" type="line"/>
      <point x="32" y="953" type="line"/>
      <point x="256" y="1016" type="line"/>
      <point x="256" y="26" type="line" smooth="yes"/>
      <point x="256" y="-87"/>
      <point x="213" y="-300"/>
      <point x="123" y="-494"/>
      <point x="-17" y="-662"/>
      <point x="-114" y="-728" type="qcurve"/>
    </contour>
    <contour>
      <point x="128" y="1284" type="qcurve" smooth="yes"/>
      <point x="128" y="1307"/>
      <point x="145" y="1347"/>
      <point x="175" y="1376"/>
      <point x="214" y="1393"/>
      <point x="237" y="1393" type="qcurve" smooth="yes"/>
      <point x="259" y="1393"/>
      <point x="299" y="1376"/>
      <point x="329" y="1347"/>
      <point x="346" y="1307"/>
      <point x="346" y="1284" type="qcurve" smooth="yes"/>
      <point x="346" y="1261"/>
      <point x="329" y="1222"/>
      <point x="299" y="1192"/>
      <point x="259" y="1175"/>
      <point x="237" y="1175" type="qcurve" smooth="yes"/>
      <point x="214" y="1175"/>
      <point x="175" y="1192"/>
      <point x="145" y="1222"/>
      <point x="128" y="1261"/>
    </contour>
    <contour>
      <point x="166" y="1284" type="qcurve" smooth="yes"/>
      <point x="166" y="1255"/>
      <point x="208" y="1213"/>
      <point x="237" y="1213" type="qcurve" smooth="yes"/>
      <point x="266" y="1213"/>
      <point x="309" y="1255"/>
      <point x="309" y="1284" type="qcurve" smooth="yes"/>
      <point x="309" y="1314"/>
      <point x="266" y="1356"/>
      <point x="237" y="1356" type="qcurve" smooth="yes"/>
      <point x="208" y="1356"/>
      <point x="166" y="1314"/>
    </contour>
  </outline>
</glyph>
<glyph name="k" format="2">
  <advance width="1142"/>
  <unicode hex="006B"/>
  <outline>
    <contour>
      <point x="274" y="1607" type="line"/>
      <point x="274" y="716" type="line"/>
      <point x="438" y="716" type="line"/>
      <point x="721" y="962" type="line"/>
      <point x="652" y="962" type="line"/>
      <point x="652" y="999" type="line"/>
      <point x="876" y="999" type="line"/>
      <point x="876" y="962" type="line"/>
      <point x="778" y="962" type="line"/>
      <point x="470" y="694" type="line"/>
      <point x="923" y="38" type="line"/>
      <point x="1110" y="38" type="line"/>
      <point x="1110" y="0" type="line"/>
      <point x="720" y="0" type="line"/>
      <point x="720" y="38" type="line"/>
      <point x="878" y="38" type="line"/>
      <point x="435" y="679" type="line"/>
      <point x="274" y="679" type="line"/>
      <point x="274" y="154" type="line" smooth="yes"/>
      <point x="274" y="118"/>
      <point x="242" y="59"/>
      <point x="213" y="38" type="qcurve"/>
      <point x="446" y="38" type="line"/>
      <point x="446" y="0" type="line"/>
      <point x="56" y="0" type="line"/>
      <point x="56" y="38" type="line"/>
      <point x="75" y="38" type="line" smooth="yes"/>
      <point x="101" y="39"/>
      <point x="158" y="50"/>
      <point x="206" y="77"/>
      <point x="237" y="121"/>
      <point x="237" y="154" type="qcurve" smooth="yes"/>
      <point x="237" y="1557" type="line"/>
      <point x="60" y="1507" type="line"/>
      <point x="50" y="1543" type="line"/>
    </contour>
  </outline>
</glyph>
<glyph name="l" format="2">
  <advance width="447"/>
  <unicode hex="006C"/>
  <outline>
    <contour>
      <point x="50" y="1543" type="line"/>
      <point x="274" y="1607" type="line"/>
      <point x="274" y="153" type="line" smooth="yes"/>
      <point x="274" y="136"/>
      <point x="266" y="101"/>
      <point x="251" y="70"/>
      <point x="229" y="44"/>
      <point x="214" y="37" type="qcurve"/>
      <point x="397" y="37" type="line"/>
      <point x="397" y="0" type="line"/>
      <point x="57" y="0" type="line"/>
      <point x="56" y="37" type="line"/>
      <point x="94" y="39"/>
      <point x="160" y="53"/>
      <point x="209" y="80"/>
      <point x="237" y="122"/>
      <point x="237" y="153" type="qcurve" smooth="yes"/>
      <point x="237" y="1557" type="line"/>
      <point x="60" y="1507" type="line"/>
    </contour>
  </outline>
</glyph>
<glyph name="m" format="2">
  <advance width="1502"/>
  <unicode hex="006D"/>
  <outline>
    <contour>
      <point x="304" y="1028" type="line"/>
      <point x="304" y="822" type="line"/>
      <point x="465" y="1016"/>
      <point x="618" y="1016" type="qcurve" smooth="yes"/>
      <point x="659" y="1016"/>
      <point x="719" y="980"/>
      <point x="761" y="923"/>
      <point x="787" y="851"/>
      <point x="794" y="814" type="qcurve"/>
      <point x="821" y="848"/>
      <point x="890" y="920"/>
      <point x="971" y="978"/>
      <point x="1064" y="1016"/>
      <point x="1115" y="1016" type="qcurve" smooth="yes"/>
      <point x="1172" y="1016"/>
      <point x="1243" y="964"/>
      <point x="1282" y="878"/>
      <point x="1296" y="767"/>
      <point x="1296" y="708" type="qcurve" smooth="yes"/>
      <point x="1296" y="154" type="line" smooth="yes"/>
      <point x="1296" y="77"/>
      <point x="1227" y="37" type="qcurve"/>
      <point x="1422" y="37" type="line"/>
      <point x="1422" y="0" type="line"/>
      <point x="1077" y="0" type="line"/>
      <point x="1077" y="37" type="line"/>
      <point x="1100" y="37"/>
      <point x="1163" y="49"/>
      <point x="1220" y="76"/>
      <point x="1259" y="121"/>
      <point x="1259" y="154" type="qcurve" smooth="yes"/>
      <point x="1259" y="710" type="line" smooth="yes"/>
      <point x="1259" y="744"/>
      <point x="1251" y="837"/>
      <point x="1221" y="920"/>
      <point x="1164" y="978"/>
      <point x="1115" y="978" type="qcurve" smooth="yes"/>
      <point x="1065" y="978"/>
      <point x="975" y="938"/>
      <point x="895" y="874"/>
      <point x="827" y="796"/>
      <point x="800" y="758" type="qcurve"/>
      <point x="800" y="154" type="line" smooth="yes"/>
      <point x="800" y="77"/>
      <point x="745" y="37" type="qcurve"/>
      <point x="936" y="37" type="line"/>
      <point x="936" y="0" type="line"/>
      <point x="627" y="0" type="line"/>
      <point x="627" y="37" type="line"/>
      <point x="652" y="37"/>
      <point x="701" y="52"/>
      <point x="739" y="82"/>
      <point x="763" y="125"/>
      <point x="763" y="154" type="qcurve" smooth="yes"/>
      <point x="763" y="710" type="line" smooth="yes"/>
      <point x="763" y="745"/>
      <point x="755" y="837"/>
      <point x="725" y="920"/>
      <point x="667" y="978"/>
      <point x="618" y="978" type="qcurve" smooth="yes"/>
      <point x="570" y="978"/>
      <point x="480" y="938"/>
      <point x="401" y="875"/>
      <point x="332" y="797"/>
      <point x="304" y="760" type="qcurve"/>
      <point x="304" y="154" type="line" smooth="yes"/>
      <point x="304" y="120"/>
      <point x="274" y="54"/>
      <point x="242" y="37" type="qcurve"/>
      <point x="481" y="37" type="line"/>
      <point x="481" y="0" type="line"/>
      <point x="90" y="0" type="line"/>
      <point x="91" y="37" type="line"/>
      <point x="102" y="37" type="line" smooth="yes"/>
      <point x="128" y="38"/>
      <point x="186" y="50"/>
      <point x="235" y="77"/>
      <point x="267" y="121"/>
      <point x="267" y="154" type="qcurve" smooth="yes"/>
      <point x="267" y="978" type="line"/>
      <point x="91" y="928" type="line"/>
      <point x="80" y="964" type="line"/>
    </contour>
  </outline>
</glyph>
<glyph name="n" format="2">
  <advance width="1158"/>
  <unicode hex="006E"/>
  <outline>
    <contour>
      <point x="304" y="1028" type="line"/>
      <point x="304" y="814" type="line"/>
      <point x="342" y="852"/>
      <point x="431" y="924"/>
      <point x="532" y="981"/>
      <point x="642" y="1016"/>
      <point x="701" y="1016" type="qcurve" smooth="yes"/>
      <point x="764" y="1016"/>
      <point x="849" y="964"/>
      <point x="901" y="879"/>
      <point x="923" y="768"/>
      <point x="923" y="708" type="qcurve" smooth="yes"/>
      <point x="923" y="154" type="line" smooth="yes"/>
      <point x="923" y="77"/>
      <point x="856" y="37" type="qcurve"/>
      <point x="1078" y="37" type="line"/>
      <point x="1078" y="0" type="line"/>
      <point x="712" y="0" type="line"/>
      <point x="712" y="37" type="line"/>
      <point x="755" y="37"/>
      <point x="802" y="53" type="qcurve" smooth="yes"/>
      <point x="886" y="84"/>
      <point x="886" y="154" type="qcurve" smooth="yes"/>
      <point x="886" y="710" type="line" smooth="yes"/>
      <point x="886" y="755"/>
      <point x="870" y="850"/>
      <point x="829" y="928"/>
      <point x="757" y="978"/>
      <point x="701" y="978" type="qcurve" smooth="yes"/>
      <point x="644" y="978"/>
      <point x="534" y="941"/>
      <point x="433" y="880"/>
      <point x="342" y="801"/>
      <point x="304" y="759" type="qcurve"/>
      <point x="304" y="154" type="line" smooth="yes"/>
      <point x="304" y="93"/>
      <point x="264" y="54" type="qcurve" smooth="yes"/>
      <point x="262" y="52"/>
      <point x="251" y="44"/>
      <point x="242" y="37" type="qcurve"/>
      <point x="480" y="37" type="line"/>
      <point x="480" y="0" type="line"/>
      <point x="90" y="0" type="line"/>
      <point x="90" y="37" type="line"/>
      <point x="102" y="37" type="line"/>
      <point x="196" y="41"/>
      <point x="238" y="82" type="qcurve" smooth="yes"/>
      <point x="267" y="111"/>
      <point x="267" y="154" type="qcurve" smooth="yes"/>
      <point x="267" y="978" type="line"/>
      <point x="90" y="928" type="line"/>
      <point x="80" y="964" type="line"/>
    </contour>
  </outline>
</glyph>
<glyph name="o" format="2">
  <advance width="961"/>
  <unicode hex="006F"/>
  <outline>
    <contour>
      <point x="494" y="-16" type="qcurve" smooth="yes"/>
      <point x="394" y="-16"/>
      <point x="234" y="77"/>
      <point x="122" y="227"/>
      <point x="61" y="417"/>
      <point x="61" y="515" type="qcurve" smooth="yes"/>
      <point x="61" y="570"/>
      <point x="85" y="687"/>
      <point x="133" y="798"/>
      <point x="204" y="897"/>
      <point x="294" y="972"/>
      <point x="404" y="1015"/>
      <point x="468" y="1015" type="qcurve" smooth="yes"/>
      <point x="541" y="1015"/>
      <point x="661" y="970"/>
      <point x="757" y="892"/>
      <point x="828" y="786"/>
      <point x="876" y="664"/>
      <point x="899" y="533"/>
      <point x="900" y="468" type="qcurve" smooth="yes"/>
      <point x="901" y="380"/>
      <point x="844" y="207"/>
      <point x="738" y="69"/>
      <point x="587" y="-16"/>
    </contour>
    <contour>
      <point x="98" y="513" type="qcurve" smooth="yes"/>
      <point x="98" y="413"/>
      <point x="156" y="235"/>
      <point x="261" y="101"/>
      <point x="407" y="22"/>
      <point x="494" y="22" type="qcurve" smooth="yes"/>
      <point x="576" y="22"/>
      <point x="711" y="98"/>
      <point x="808" y="223"/>
      <point x="862" y="384"/>
      <point x="862" y="470" type="qcurve" smooth="yes"/>
      <point x="862" y="524"/>
      <point x="841" y="641"/>
      <point x="799" y="754"/>
      <point x="734" y="856"/>
      <point x="646" y="933"/>
      <point x="535" y="978"/>
      <point x="468" y="978" type="qcurve" smooth="yes"/>
      <point x="386" y="978"/>
      <point x="250" y="897"/>
      <point x="152" y="766"/>
      <point x="98" y="599"/>
    </contour>
  </outline>
</glyph>
<glyph name="p" format="2">
  <advance width="1060"/>
  <unicode hex="0070"/>
  <outline>
    <contour>
      <point x="258" y="1016" type="line"/>
      <point x="258" y="776" type="line"/>
      <point x="278" y="827"/>
      <point x="349" y="915"/>
      <point x="441" y="980"/>
      <point x="550" y="1017"/>
      <point x="609" y="1017" type="qcurve" smooth="yes"/>
      <point x="721" y="1017"/>
      <point x="871" y="942"/>
      <point x="962" y="806"/>
      <point x="1000" y="612"/>
      <point x="1000" y="494" type="qcurve" smooth="yes"/>
      <point x="1000" y="437"/>
      <point x="983" y="317"/>
      <point x="946" y="204"/>
      <point x="887" y="105"/>
      <point x="804" y="31"/>
      <point x="695" y="-12"/>
      <point x="627" y="-12" type="qcurve" smooth="yes"/>
      <point x="456" y="-12"/>
      <point x="305" y="124" type="qcurve"/>
      <point x="332" y="154" type="line"/>
      <point x="362" y="127"/>
      <point x="430" y="81"/>
      <point x="505" y="47"/>
      <point x="586" y="28"/>
      <point x="628" y="28" type="qcurve" smooth="yes"/>
      <point x="717" y="28"/>
      <point x="843" y="112"/>
      <point x="922" y="245"/>
      <point x="959" y="411"/>
      <point x="959" y="494" type="qcurve" smooth="yes"/>
      <point x="959" y="610"/>
      <point x="925" y="789"/>
      <point x="844" y="912"/>
      <point x="709" y="976"/>
      <point x="609" y="976" type="qcurve" smooth="yes"/>
      <point x="543" y="976"/>
      <point x="422" y="926"/>
      <point x="326" y="840"/>
      <point x="264" y="725"/>
      <point x="257" y="659" type="qcurve"/>
      <point x="257" y="-580" type="line" smooth="yes"/>
      <point x="257" y="-615"/>
      <point x="226" y="-677"/>
      <point x="195" y="-696" type="qcurve"/>
      <point x="433" y="-696" type="line"/>
      <point x="433" y="-734" type="line"/>
      <point x="43" y="-734" type="line"/>
      <point x="43" y="-696" type="line"/>
      <point x="75" y="-695"/>
      <point x="138" y="-683"/>
      <point x="189" y="-657"/>
      <point x="220" y="-613"/>
      <point x="220" y="-580" type="qcurve" smooth="yes"/>
      <point x="220" y="966" type="line"/>
      <point x="44" y="916" type="line"/>
      <point x="34" y="952" type="line"/>
    </contour>
  </outline>
</glyph>
<glyph name="q" format="2">
  <advance width="1022"/>
  <unicode hex="0071"/>
  <outline>
    <contour>
      <point x="60" y="519" type="qcurve" smooth="yes"/>
      <point x="60" y="627"/>
      <point x="129" y="809"/>
      <point x="259" y="941"/>
      <point x="445" y="1015"/>
      <point x="561" y="1015" type="qcurve" smooth="yes"/>
      <point x="689" y="1015"/>
      <point x="786" y="960" type="qcurve"/>
      <point x="962" y="1014" type="line"/>
      <point x="973" y="978" type="line"/>
      <point x="816" y="930" type="line"/>
      <point x="816" y="-580" type="line" smooth="yes"/>
      <point x="816" y="-615"/>
      <point x="784" y="-677"/>
      <point x="754" y="-696" type="qcurve"/>
      <point x="992" y="-696" type="line"/>
      <point x="992" y="-734" type="line"/>
      <point x="602" y="-734" type="line"/>
      <point x="602" y="-696" type="line"/>
      <point x="632" y="-695"/>
      <point x="695" y="-684"/>
      <point x="746" y="-658"/>
      <point x="779" y="-614"/>
      <point x="779" y="-580" type="qcurve" smooth="yes"/>
      <point x="779" y="917" type="line"/>
      <point x="688" y="975"/>
      <point x="561" y="975" type="qcurve" smooth="yes"/>
      <point x="457" y="975"/>
      <point x="288" y="913"/>
      <point x="166" y="794"/>
      <point x="100" y="624"/>
      <point x="100" y="516" type="qcurve" smooth="yes"/>
      <point x="100" y="462"/>
      <point x="121" y="347"/>
      <point x="164" y="238"/>
      <point x="226" y="141"/>
      <point x="309" y="68"/>
      <point x="411" y="26"/>
      <point x="472" y="26" type="qcurve" smooth="yes"/>
      <point x="602" y="26"/>
      <point x="728" y="157" type="qcurve"/>
      <point x="757" y="129" type="line"/>
      <point x="619" y="-14"/>
      <point x="471" y="-14" type="qcurve" smooth="yes"/>
      <point x="405" y="-14"/>
      <point x="293" y="32"/>
      <point x="201" y="111"/>
      <point x="132" y="216"/>
      <point x="84" y="335"/>
      <point x="60" y="460"/>
    </contour>
  </outline>
</glyph>
<glyph name="r" format="2">
  <advance width="831"/>
  <unicode hex="0072"/>
  <outline>
    <contour>
      <point x="80" y="37" type="line"/>
      <point x="104" y="38"/>
      <point x="165" y="49"/>
      <point x="218" y="76"/>
      <point x="254" y="120"/>
      <point x="254" y="154" type="qcurve" smooth="yes"/>
      <point x="254" y="941" type="line"/>
      <point x="245" y="923"/>
      <point x="204" y="896"/>
      <point x="153" y="878"/>
      <point x="100" y="869"/>
      <point x="80" y="868" type="qcurve"/>
      <point x="80" y="906" type="line"/>
      <point x="108" y="906"/>
      <point x="166" y="919"/>
      <point x="214" y="945"/>
      <point x="249" y="985"/>
      <point x="255" y="1011" type="qcurve"/>
      <point x="292" y="1002" type="line"/>
      <point x="292" y="784" type="line"/>
      <point x="319" y="827"/>
      <point x="391" y="910"/>
      <point x="476" y="976"/>
      <point x="575" y="1016"/>
      <point x="630" y="1016" type="qcurve" smooth="yes"/>
      <point x="727" y="1016"/>
      <point x="822" y="944" type="qcurve"/>
      <point x="800" y="914" type="line"/>
      <point x="718" y="978"/>
      <point x="632" y="978" type="qcurve" smooth="yes"/>
      <point x="576" y="978"/>
      <point x="477" y="933"/>
      <point x="391" y="860"/>
      <point x="320" y="767"/>
      <point x="292" y="720" type="qcurve"/>
      <point x="292" y="154" type="line" smooth="yes"/>
      <point x="292" y="79"/>
      <point x="224" y="37" type="qcurve"/>
      <point x="466" y="37" type="line"/>
      <point x="466" y="0" type="line"/>
      <point x="80" y="0" type="line"/>
    </contour>
  </outline>
</glyph>
<glyph name="s" format="2">
  <advance width="767"/>
  <unicode hex="0073"/>
  <outline>
    <contour>
      <point x="144" y="343" type="line"/>
      <point x="175" y="321" type="line"/>
      <point x="105" y="224" type="line"/>
      <point x="133" y="132"/>
      <point x="273" y="21"/>
      <point x="375" y="21" type="qcurve" smooth="yes"/>
      <point x="456" y="21"/>
      <point x="566" y="78"/>
      <point x="635" y="162"/>
      <point x="665" y="256"/>
      <point x="665" y="293" type="qcurve" smooth="yes"/>
      <point x="665" y="366"/>
      <point x="618" y="469"/>
      <point x="541" y="544"/>
      <point x="442" y="596"/>
      <point x="339" y="639"/>
      <point x="240" y="679"/>
      <point x="163" y="728"/>
      <point x="116" y="794"/>
      <point x="116" y="841" type="qcurve" smooth="yes"/>
      <point x="116" y="882"/>
      <point x="155" y="947"/>
      <point x="220" y="992"/>
      <point x="304" y="1016"/>
      <point x="348" y="1016" type="qcurve" smooth="yes"/>
      <point x="405" y="1016"/>
      <point x="520" y="986"/>
      <point x="583" y="963" type="qcurve"/>
      <point x="661" y="828" type="line"/>
      <point x="628" y="809" type="line"/>
      <point x="556" y="934" type="line"/>
      <point x="507" y="954"/>
      <point x="401" y="979"/>
      <point x="344" y="979" type="qcurve" smooth="yes"/>
      <point x="309" y="979"/>
      <point x="241" y="962"/>
      <point x="187" y="928"/>
      <point x="153" y="876"/>
      <point x="153" y="841" type="qcurve" smooth="yes"/>
      <point x="153" y="800"/>
      <point x="200" y="745"/>
      <point x="277" y="702"/>
      <point x="376" y="665"/>
      <point x="479" y="622"/>
      <point x="578" y="566"/>
      <point x="655" y="485"/>
      <point x="702" y="371"/>
      <point x="702" y="292" type="qcurve" smooth="yes"/>
      <point x="702" y="229"/>
      <point x="652" y="117"/>
      <point x="564" y="33"/>
      <point x="445" y="-16"/>
      <point x="375" y="-16" type="qcurve" smooth="yes"/>
      <point x="260" y="-16"/>
      <point x="98" y="110"/>
      <point x="63" y="231" type="qcurve"/>
    </contour>
  </outline>
</glyph>
<glyph name="t" format="2">
  <advance width="726"/>
  <unicode hex="0074"/>
  <outline>
    <contour>
      <point x="-73" y="995" type="line"/>
      <point x="-3" y="995" type="line" smooth="yes"/>
      <point x="46" y="995"/>
      <point x="129" y="1040"/>
      <point x="186" y="1117"/>
      <point x="212" y="1219"/>
      <point x="205" y="1276" type="qcurve"/>
      <point x="205" y="1277" type="line"/>
      <point x="241" y="1283" type="line"/>
      <point x="249" y="1244"/>
      <point x="240" y="1165"/>
      <point x="210" y="1090"/>
      <point x="160" y="1024"/>
      <point x="127" y="999" type="qcurve"/>
      <point x="705" y="999" type="line"/>
      <point x="705" y="962" type="line"/>
      <point x="245" y="962" type="line"/>
      <point x="245" y="111" type="line" smooth="yes"/>
      <point x="245" y="63"/>
      <point x="297" y="22"/>
      <point x="336" y="22" type="qcurve" smooth="yes"/>
      <point x="394" y="22"/>
      <point x="492" y="95"/>
      <point x="527" y="148" type="qcurve"/>
      <point x="559" y="128" type="line"/>
      <point x="543" y="100"/>
      <point x="496" y="48"/>
      <point x="439" y="8"/>
      <point x="372" y="-16"/>
      <point x="337" y="-16" type="qcurve" smooth="yes"/>
      <point x="274" y="-16"/>
      <point x="207" y="54"/>
      <point x="207" y="111" type="qcurve" smooth="yes"/>
      <point x="207" y="962" type="line"/>
      <point x="-73" y="962" type="line"/>
    </contour>
  </outline>
</glyph>
<glyph name="v" format="2">
  <advance width="1175"/>
  <unicode hex="0076"/>
  <outline>
    <contour>
      <point x="5" y="999" type="line"/>
      <point x="317" y="999" type="line"/>
      <point x="317" y="961" type="line"/>
      <point x="168" y="961" type="line"/>
      <point x="186" y="943"/>
      <point x="196" y="919" type="qcurve" smooth="yes"/>
      <point x="587" y="49" type="line"/>
      <point x="979" y="919" type="line" smooth="yes"/>
      <point x="989" y="943"/>
      <point x="1007" y="961" type="qcurve"/>
      <point x="858" y="961" type="line"/>
      <point x="858" y="999" type="line"/>
      <point x="1170" y="999" type="line"/>
      <point x="1170" y="961" type="line"/>
      <point x="1149" y="961"/>
      <point x="1103" y="960"/>
      <point x="1060" y="950"/>
      <point x="1024" y="927"/>
      <point x="1014" y="904" type="qcurve" smooth="yes"/>
      <point x="600" y="-15" type="line"/>
      <point x="575" y="-15" type="line"/>
      <point x="161" y="904" type="line" smooth="yes"/>
      <point x="151" y="926"/>
      <point x="118" y="949"/>
      <point x="76" y="959"/>
      <point x="29" y="961"/>
      <point x="5" y="961" type="qcurve"/>
    </contour>
  </outline>
</glyph>
<glyph name="w" format="2">
  <advance width="1834"/>
  <unicode hex="0077"/>
  <outline>
    <contour>
      <point x="5" y="999" type="line"/>
      <point x="317" y="999" type="line"/>
      <point x="317" y="961" type="line"/>
      <point x="168" y="961" type="line"/>
      <point x="186" y="943"/>
      <point x="196" y="919" type="qcurve" smooth="yes"/>
      <point x="587" y="49" type="line"/>
      <point x="896" y="736" type="line"/>
      <point x="820" y="904" type="line" smooth="yes"/>
      <point x="810" y="926"/>
      <point x="777" y="949"/>
      <point x="735" y="959"/>
      <point x="688" y="961"/>
      <point x="664" y="961" type="qcurve"/>
      <point x="664" y="999" type="line"/>
      <point x="1170" y="999" type="line"/>
      <point x="1170" y="961" type="line"/>
      <point x="1149" y="961"/>
      <point x="1103" y="960"/>
      <point x="1060" y="950"/>
      <point x="1024" y="927"/>
      <point x="1014" y="904" type="qcurve" smooth="yes"/>
      <point x="938" y="736" type="line"/>
      <point x="1246" y="49" type="line"/>
      <point x="1638" y="919" type="line" smooth="yes"/>
      <point x="1648" y="943"/>
      <point x="1666" y="961" type="qcurve"/>
      <point x="1517" y="961" type="line"/>
      <point x="1517" y="999" type="line"/>
      <point x="1829" y="998" type="line"/>
      <point x="1829" y="960" type="line"/>
      <point x="1808" y="960"/>
      <point x="1762" y="960"/>
      <point x="1719" y="951"/>
      <point x="1683" y="927"/>
      <point x="1673" y="904" type="qcurve" smooth="yes"/>
      <point x="1258" y="-15" type="line"/>
      <point x="1234" y="-15" type="line"/>
      <point x="917" y="691" type="line"/>
      <point x="600" y="-15" type="line"/>
      <point x="575" y="-15" type="line"/>
      <point x="161" y="904" type="line" smooth="yes"/>
      <point x="151" y="926"/>
      <point x="118" y="949"/>
      <point x="76" y="959"/>
      <point x="29" y="961"/>
      <point x="5" y="961" type="qcurve"/>
    </contour>
    <contour>
      <point x="827" y="961" type="line"/>
      <point x="845" y="943"/>
      <point x="855" y="919" type="qcurve" smooth="yes"/>
      <point x="917" y="781" type="line"/>
      <point x="979" y="919" type="line" smooth="yes"/>
      <point x="989" y="943"/>
      <point x="1007" y="961" type="qcurve"/>
    </contour>
  </outline>
</glyph>
<glyph name="y" format="2">
  <advance width="1174"/>
  <unicode hex="0079"/>
  <outline>
    <contour>
      <point x="5" y="1000" type="line"/>
      <point x="317" y="1000" type="line"/>
      <point x="317" y="963" type="line"/>
      <point x="168" y="963" type="line"/>
      <point x="184" y="946"/>
      <point x="195" y="921" type="qcurve" smooth="yes"/>
      <point x="590" y="50" type="line"/>
      <point x="979" y="921" type="line" smooth="yes"/>
      <point x="989" y="946"/>
      <point x="1006" y="963" type="qcurve"/>
      <point x="857" y="963" type="line"/>
      <point x="857" y="1000" type="line"/>
      <point x="1169" y="1000" type="line"/>
      <point x="1169" y="963" type="line"/>
      <point x="1090" y="963"/>
      <point x="1059" y="952" type="qcurve" smooth="yes"/>
      <point x="1029" y="942"/>
      <point x="1013" y="906" type="qcurve" smooth="yes"/>
      <point x="351" y="-577" type="line" smooth="yes"/>
      <point x="340" y="-602"/>
      <point x="307" y="-659"/>
      <point x="264" y="-707"/>
      <point x="210" y="-739"/>
      <point x="177" y="-739" type="qcurve" smooth="yes"/>
      <point x="133" y="-739"/>
      <point x="55" y="-695"/>
      <point x="38" y="-651" type="qcurve"/>
      <point x="74" y="-639" type="line"/>
      <point x="102" y="-702"/>
      <point x="177" y="-702" type="qcurve" smooth="yes"/>
      <point x="201" y="-702"/>
      <point x="243" y="-674"/>
      <point x="279" y="-632"/>
      <point x="307" y="-583"/>
      <point x="317" y="-562" type="qcurve" smooth="yes"/>
      <point x="570" y="4" type="line"/>
      <point x="161" y="906" type="line" smooth="yes"/>
      <point x="145" y="942"/>
      <point x="115" y="952" type="qcurve" smooth="yes"/>
      <point x="84" y="963"/>
      <point x="5" y="963" type="qcurve"/>
    </contour>
  </outline>
</glyph>
<glyph name="z" format="2">
  <advance width="950"/>
  <unicode hex="007A"/>
  <outline>
    <contour>
      <point x="768" y="964" type="line"/>
      <point x="280" y="964" type="line" smooth="yes"/>
      <point x="241" y="964"/>
      <point x="209" y="987" type="qcurve"/>
      <point x="106" y="796" type="line"/>
      <point x="74" y="813" type="line"/>
      <point x="204" y="1053" type="line"/>
      <point x="220" y="1026" type="line"/>
      <point x="246" y="1000"/>
      <point x="280" y="1000" type="qcurve" smooth="yes"/>
      <point x="839" y="1000" type="line"/>
      <point x="141" y="36" type="line"/>
      <point x="823" y="36" type="line"/>
      <point x="898" y="195" type="line"/>
      <point x="930" y="180" type="line"/>
      <point x="846" y="0" type="line"/>
      <point x="70" y="0" type="line"/>
    </contour>
  </outline>
</glyph>
<glyph name="braceleft" format="2">
  <advance width="614"/>
  <unicode hex="007B"/>
  <outline>
    <contour>
      <point x="142" y="837" type="line" smooth="yes"/>
      <point x="145" y="836"/>
      <point x="186" y="858"/>
      <point x="207" y="886" type="qcurve" smooth="yes"/>
      <point x="220" y="903"/>
      <point x="241" y="968"/>
      <point x="241" y="1008" type="qcurve" smooth="yes"/>
      <point x="241" y="1077"/>
      <point x="269" y="1182" type="qcurve" smooth="yes"/>
      <point x="297" y="1286"/>
      <point x="341" y="1382" type="qcurve" smooth="yes"/>
      <point x="389" y="1491"/>
      <point x="450" y="1559" type="qcurve" smooth="yes"/>
      <point x="520" y="1637"/>
      <point x="595" y="1637" type="qcurve"/>
      <point x="595" y="1599" type="line"/>
      <point x="541" y="1599"/>
      <point x="426" y="1478"/>
      <point x="375" y="1366" type="qcurve" smooth="yes"/>
      <point x="353" y="1317"/>
      <point x="318" y="1218"/>
      <point x="305" y="1167" type="qcurve" smooth="yes"/>
      <point x="280" y="1068"/>
      <point x="280" y="1008" type="qcurve" smooth="yes"/>
      <point x="280" y="897"/>
      <point x="217" y="839" type="qcurve" smooth="yes"/>
      <point x="214" y="836"/>
      <point x="201" y="826"/>
      <point x="191" y="818" type="qcurve"/>
      <point x="207" y="807"/>
      <point x="217" y="798" type="qcurve" smooth="yes"/>
      <point x="280" y="736"/>
      <point x="280" y="628" type="qcurve" smooth="yes"/>
      <point x="280" y="567"/>
      <point x="305" y="468" type="qcurve" smooth="yes"/>
      <point x="318" y="417"/>
      <point x="353" y="319"/>
      <point x="375" y="270" type="qcurve" smooth="yes"/>
      <point x="426" y="158"/>
      <point x="541" y="37"/>
      <point x="595" y="37" type="qcurve"/>
      <point x="595" y="-1" type="line"/>
      <point x="520" y="-1"/>
      <point x="450" y="78" type="qcurve" smooth="yes"/>
      <point x="389" y="146"/>
      <point x="341" y="255" type="qcurve" smooth="yes"/>
      <point x="297" y="350"/>
      <point x="269" y="454" type="qcurve" smooth="yes"/>
      <point x="241" y="559"/>
      <point x="241" y="628" type="qcurve" smooth="yes"/>
      <point x="241" y="671"/>
      <point x="229" y="707" type="qcurve" smooth="yes"/>
      <point x="205" y="777"/>
      <point x="143" y="800" type="qcurve"/>
      <point x="142" y="800" type="line"/>
      <point x="68" y="818" type="line"/>
    </contour>
  </outline>
</glyph>
<glyph name="bar" format="2">
  <advance width="341"/>
  <unicode hex="007C"/>
  <outline>
    <contour>
      <point x="152" y="-108" type="line"/>
      <point x="152" y="1779" type="line"/>
      <point x="189" y="1779" type="line"/>
      <point x="189" y="-108" type="line"/>
    </contour>
  </outline>
</glyph>
<glyph name="braceright" format="2">
  <advance width="648"/>
  <unicode hex="007D"/>
  <outline>
    <contour>
      <point x="102" y="39" type="line"/>
      <point x="156" y="39"/>
      <point x="271" y="160"/>
      <point x="322" y="272" type="qcurve" smooth="yes"/>
      <point x="344" y="321"/>
      <point x="379" y="419"/>
      <point x="392" y="470" type="qcurve" smooth="yes"/>
      <point x="418" y="574"/>
      <point x="418" y="630" type="qcurve" smooth="yes"/>
      <point x="418" y="740"/>
      <point x="481" y="799" type="qcurve" smooth="yes"/>
      <point x="484" y="802"/>
      <point x="497" y="812"/>
      <point x="507" y="820" type="qcurve"/>
      <point x="500" y="824"/>
      <point x="488" y="834"/>
      <point x="481" y="841" type="qcurve" smooth="yes"/>
      <point x="418" y="902"/>
      <point x="418" y="1010" type="qcurve" smooth="yes"/>
      <point x="418" y="1067"/>
      <point x="392" y="1169" type="qcurve" smooth="yes"/>
      <point x="379" y="1220"/>
      <point x="344" y="1319"/>
      <point x="322" y="1368" type="qcurve" smooth="yes"/>
      <point x="271" y="1480"/>
      <point x="156" y="1601"/>
      <point x="102" y="1601" type="qcurve"/>
      <point x="102" y="1639" type="line"/>
      <point x="177" y="1639"/>
      <point x="247" y="1560" type="qcurve" smooth="yes"/>
      <point x="308" y="1492"/>
      <point x="356" y="1383" type="qcurve" smooth="yes"/>
      <point x="378" y="1335"/>
      <point x="413" y="1237"/>
      <point x="427" y="1183" type="qcurve" smooth="yes"/>
      <point x="456" y="1076"/>
      <point x="456" y="1010" type="qcurve" smooth="yes"/>
      <point x="456" y="967"/>
      <point x="468" y="931" type="qcurve" smooth="yes"/>
      <point x="492" y="861"/>
      <point x="554" y="838" type="qcurve"/>
      <point x="555" y="838" type="line"/>
      <point x="629" y="820" type="line"/>
      <point x="555" y="802" type="line" smooth="yes"/>
      <point x="551" y="803"/>
      <point x="512" y="781"/>
      <point x="489" y="752" type="qcurve" smooth="yes"/>
      <point x="476" y="735"/>
      <point x="456" y="670"/>
      <point x="456" y="630" type="qcurve" smooth="yes"/>
      <point x="456" y="564"/>
      <point x="427" y="456" type="qcurve" smooth="yes"/>
      <point x="413" y="403"/>
      <point x="378" y="305"/>
      <point x="356" y="257" type="qcurve" smooth="yes"/>
      <point x="308" y="148"/>
      <point x="247" y="80" type="qcurve" smooth="yes"/>
      <point x="177" y="1"/>
      <point x="102" y="1" type="qcurve"/>
    </contour>
  </outline>
</glyph>
<glyph name="sterling" format="2">
  <advance width="1467"/>
  <unicode hex="00A3"/>
  <outline>
    <contour>
      <point x="70" y="205" type="qcurve" smooth="yes"/>
      <point x="70" y="249"/>
      <point x="108" y="322"/>
      <point x="170" y="375"/>
      <point x="250" y="405"/>
      <point x="292" y="405" type="qcurve" smooth="yes"/>
      <point x="340" y="405"/>
      <point x="417" y="381"/>
      <point x="483" y="339"/>
      <point x="541" y="284"/>
      <point x="598" y="224"/>
      <point x="658" y="161"/>
      <point x="693" y="132" type="qcurve"/>
      <point x="802" y="196"/>
      <point x="909" y="428"/>
      <point x="909" y="583" type="qcurve" smooth="yes"/>
      <point x="909" y="664"/>
      <point x="844" y="768"/>
      <point x="740" y="839"/>
      <point x="611" y="889"/>
      <point x="547" y="915" type="qcurve"/>
      <point x="207" y="915" type="line"/>
      <point x="207" y="953" type="line"/>
      <point x="473" y="953" type="line"/>
      <point x="426" y="978"/>
      <point x="352" y="1045"/>
      <point x="299" y="1132"/>
      <point x="271" y="1243"/>
      <point x="271" y="1312" type="qcurve" smooth="yes"/>
      <point x="271" y="1389"/>
      <point x="333" y="1510"/>
      <point x="440" y="1593"/>
      <point x="581" y="1637"/>
      <point x="660" y="1637" type="qcurve" smooth="yes"/>
      <point x="740" y="1637"/>
      <point x="885" y="1595"/>
      <point x="991" y="1513"/>
      <point x="1047" y="1391"/>
      <point x="1038" y="1311" type="qcurve"/>
      <point x="1004" y="1313" type="line"/>
      <point x="1008" y="1387"/>
      <point x="954" y="1495"/>
      <point x="859" y="1565"/>
      <point x="731" y="1599"/>
      <point x="660" y="1599" type="qcurve" smooth="yes"/>
      <point x="595" y="1599"/>
      <point x="470" y="1565"/>
      <point x="370" y="1494"/>
      <point x="309" y="1386"/>
      <point x="309" y="1312" type="qcurve" smooth="yes"/>
      <point x="309" y="1246"/>
      <point x="339" y="1138"/>
      <point x="399" y="1051"/>
      <point x="492" y="982"/>
      <point x="555" y="953" type="qcurve"/>
      <point x="1021" y="953" type="line"/>
      <point x="1021" y="915" type="line"/>
      <point x="644" y="915" type="line"/>
      <point x="704" y="894"/>
      <point x="814" y="840"/>
      <point x="898" y="764"/>
      <point x="947" y="658"/>
      <point x="947" y="583" type="qcurve" smooth="yes"/>
      <point x="947" y="515"/>
      <point x="923" y="379"/>
      <point x="871" y="253"/>
      <point x="788" y="146"/>
      <point x="728" y="109" type="qcurve"/>
      <point x="765" y="82"/>
      <point x="850" y="49"/>
      <point x="942" y="30"/>
      <point x="1039" y="23"/>
      <point x="1089" y="23" type="qcurve" smooth="yes"/>
      <point x="1153" y="23"/>
      <point x="1267" y="56"/>
      <point x="1353" y="120"/>
      <point x="1404" y="214"/>
      <point x="1407" y="275" type="qcurve"/>
      <point x="1446" y="275" type="line"/>
      <point x="1444" y="209"/>
      <point x="1388" y="102"/>
      <point x="1294" y="26"/>
      <point x="1166" y="-15"/>
      <point x="1092" y="-15" type="qcurve" smooth="yes"/>
      <point x="1035" y="-15"/>
      <point x="926" y="-6"/>
      <point x="825" y="17"/>
      <point x="732" y="57"/>
      <point x="691" y="88" type="qcurve"/>
      <point x="652" y="68"/>
      <point x="563" y="30"/>
      <point x="463" y="2"/>
      <point x="353" y="-15"/>
      <point x="292" y="-15" type="qcurve" smooth="yes"/>
      <point x="189" y="-15"/>
      <point x="70" y="96"/>
    </contour>
    <contour>
      <point x="109" y="205" type="qcurve" smooth="yes"/>
      <point x="109" y="117"/>
      <point x="198" y="23"/>
      <point x="292" y="23" type="qcurve" smooth="yes"/>
      <point x="348" y="23"/>
      <point x="449" y="38"/>
      <point x="541" y="64"/>
      <point x="621" y="96"/>
      <point x="656" y="113" type="qcurve"/>
      <point x="614" y="149"/>
      <point x="537" y="238"/>
      <point x="453" y="315"/>
      <point x="355" y="368"/>
      <point x="292" y="368" type="qcurve" smooth="yes"/>
      <point x="260" y="368"/>
      <point x="195" y="345"/>
      <point x="143" y="303"/>
      <point x="109" y="243"/>
    </contour>
  </outline>
</glyph>
<glyph name="questiondown" format="2">
  <advance width="1194"/>
  <unicode hex="00BF"/>
  <outline>
    <contour>
      <point x="1154" y="416" type="line"/>
      <point x="1154" y="307"/>
      <point x="1074" y="146"/>
      <point x="936" y="40"/>
      <point x="749" y="-12"/>
      <point x="642" y="-12" type="qcurve" smooth="yes"/>
      <point x="496" y="-12"/>
      <point x="295" y="59"/>
      <point x="168" y="202"/>
      <point x="108" y="418"/>
      <point x="102" y="563" type="qcurve"/>
      <point x="116" y="568" type="line" smooth="yes"/>
      <point x="183" y="592"/>
      <point x="311" y="666"/>
      <point x="424" y="761"/>
      <point x="517" y="876"/>
      <point x="582" y="1005"/>
      <point x="614" y="1146"/>
      <point x="609" y="1221" type="qcurve"/>
      <point x="648" y="1221" type="line"/>
      <point x="646" y="1102"/>
      <point x="573" y="892"/>
      <point x="441" y="717"/>
      <point x="255" y="581"/>
      <point x="141" y="536" type="qcurve"/>
      <point x="147" y="395"/>
      <point x="217" y="201"/>
      <point x="343" y="80"/>
      <point x="525" y="26"/>
      <point x="642" y="26" type="qcurve" smooth="yes"/>
      <point x="731" y="26"/>
      <point x="898" y="66"/>
      <point x="1029" y="154"/>
      <point x="1111" y="295"/>
      <point x="1116" y="397" type="qcurve"/>
      <point x="902" y="560" type="line"/>
      <point x="926" y="590" type="line"/>
    </contour>
    <contour>
      <point x="605" y="1488" type="line"/>
      <point x="599" y="1798" type="line"/>
      <point x="638" y="1799" type="line"/>
      <point x="643" y="1489" type="line"/>
    </contour>
  </outline>
</glyph>
<glyph name="Agrave" format="2">
  <advance width="1453"/>
  <unicode hex="00C0"/>
  <outline>
    <contour>
      <point x="416" y="2018" type="line"/>
      <point x="1054" y="1817" type="line"/>
      <point x="1043" y="1781" type="line"/>
      <point x="404" y="1982" type="line"/>
    </contour>
    <contour>
      <point x="50" y="37" type="line"/>
      <point x="117" y="37" type="line"/>
      <point x="574" y="1576" type="line"/>
      <point x="453" y="1576" type="line"/>
      <point x="414" y="1433" type="line"/>
      <point x="377" y="1444" type="line"/>
      <point x="439" y="1666" type="line"/>
      <point x="476" y="1656" type="line"/>
      <point x="464" y="1614" type="line"/>
      <point x="954" y="1614" type="line"/>
      <point x="942" y="1656" type="line"/>
      <point x="979" y="1666" type="line"/>
      <point x="1041" y="1444" type="line"/>
      <point x="1004" y="1433" type="line"/>
      <point x="965" y="1576" type="line"/>
      <point x="842" y="1576" type="line"/>
      <point x="1296" y="37" type="line"/>
      <point x="1385" y="37" type="line"/>
      <point x="1385" y="-1" type="line"/>
      <point x="1136" y="-1" type="line"/>
      <point x="1136" y="37" type="line"/>
      <point x="1256" y="37" type="line"/>
      <point x="1068" y="677" type="line"/>
      <point x="706" y="529" type="line"/>
      <point x="347" y="679" type="line"/>
      <point x="156" y="37" type="line"/>
      <point x="300" y="37" type="line"/>
      <point x="300" y="-1" type="line"/>
      <point x="50" y="-1" type="line"/>
    </contour>
    <contour>
      <point x="706" y="570" type="line"/>
      <point x="1056" y="714" type="line"/>
      <point x="802" y="1576" type="line"/>
      <point x="613" y="1576" type="line"/>
      <point x="358" y="716" type="line"/>
    </contour>
  </outline>
</glyph>
<glyph name="Aring" format="2">
  <advance width="1453"/>
  <unicode hex="00C5"/>
  <outline>
    <contour>
      <point x="595" y="1807" type="qcurve" smooth="yes"/>
      <point x="595" y="1829"/>
      <point x="613" y="1869"/>
      <point x="643" y="1900"/>
      <point x="684" y="1918"/>
      <point x="707" y="1918" type="qcurve" smooth="yes"/>
      <point x="729" y="1918"/>
      <point x="769" y="1901"/>
      <point x="800" y="1871"/>
      <point x="818" y="1830"/>
      <point x="818" y="1807" type="qcurve" smooth="yes"/>
      <point x="818" y="1785"/>
      <point x="801" y="1744"/>
      <point x="771" y="1713"/>
      <point x="730" y="1695"/>
      <point x="707" y="1695" type="qcurve" smooth="yes"/>
      <point x="685" y="1695"/>
      <point x="644" y="1713"/>
      <point x="613" y="1743"/>
      <point x="595" y="1784"/>
    </contour>
    <contour>
      <point x="633" y="1807" type="qcurve" smooth="yes"/>
      <point x="633" y="1776"/>
      <point x="677" y="1733"/>
      <point x="707" y="1733" type="qcurve" smooth="yes"/>
      <point x="738" y="1733"/>
      <point x="780" y="1776"/>
      <point x="780" y="1807" type="qcurve" smooth="yes"/>
      <point x="780" y="1837"/>
      <point x="738" y="1880"/>
      <point x="707" y="1880" type="qcurve" smooth="yes"/>
      <point x="677" y="1880"/>
      <point x="633" y="1837"/>
    </contour>
    <contour>
      <point x="50" y="37" type="line"/>
      <point x="117" y="37" type="line"/>
      <point x="574" y="1576" type="line"/>
      <point x="453" y="1576" type="line"/>
      <point x="414" y="1433" type="line"/>
      <point x="377" y="1444" type="line"/>
      <point x="439" y="1666" type="line"/>
      <point x="476" y="1656" type="line"/>
      <point x="464" y="1614" type="line"/>
      <point x="954" y="1614" type="line"/>
      <point x="942" y="1656" type="line"/>
      <point x="979" y="1666" type="line"/>
      <point x="1041" y="1444" type="line"/>
      <point x="1004" y="1433" type="line"/>
      <point x="965" y="1576" type="line"/>
      <point x="842" y="1576" type="line"/>
      <point x="1296" y="37" type="line"/>
      <point x="1385" y="37" type="line"/>
      <point x="1385" y="-1" type="line"/>
      <point x="1136" y="-1" type="line"/>
      <point x="1136" y="37" type="line"/>
      <point x="1256" y="37" type="line"/>
      <point x="1068" y="677" type="line"/>
      <point x="706" y="529" type="line"/>
      <point x="347" y="679" type="line"/>
      <point x="156" y="37" type="line"/>
      <point x="300" y="37" type="line"/>
      <point x="300" y="-1" type="line"/>
      <point x="50" y="-1" type="line"/>
    </contour>
    <contour>
      <point x="706" y="570" type="line"/>
      <point x="1056" y="714" type="line"/>
      <point x="802" y="1576" type="line"/>
      <point x="613" y="1576" type="line"/>
      <point x="358" y="716" type="line"/>
    </contour>
  </outline>
</glyph>
<glyph name="Egrave" format="2">
  <advance width="1363"/>
  <unicode hex="00C8"/>
  <outline>
    <contour>
      <point x="164" y="2018" type="line"/>
      <point x="802" y="1817" type="line"/>
      <point x="791" y="1781" type="line"/>
      <point x="153" y="1982" type="line"/>
    </contour>
    <contour>
      <point x="70" y="38" type="line"/>
      <point x="187" y="38" type="line"/>
      <point x="187" y="1576" type="line"/>
      <point x="70" y="1576" type="line"/>
      <point x="70" y="1614" type="line"/>
      <point x="842" y="1614" type="line"/>
      <point x="774" y="1666" type="line"/>
      <point x="798" y="1696" type="line"/>
      <point x="1110" y="1453" type="line"/>
      <point x="1086" y="1424" type="line"/>
      <point x="890" y="1576" type="line"/>
      <point x="224" y="1576" type="line"/>
      <point x="224" y="917" type="line"/>
      <point x="767" y="917" type="line"/>
      <point x="767" y="1030" type="line"/>
      <point x="805" y="1030" type="line"/>
      <point x="805" y="781" type="line"/>
      <point x="767" y="781" type="line"/>
      <point x="767" y="879" type="line"/>
      <point x="224" y="879" type="line"/>
      <point x="224" y="38" type="line"/>
      <point x="1064" y="38" type="line"/>
      <point x="1271" y="239" type="line"/>
      <point x="1298" y="212" type="line"/>
      <point x="998" y="-78" type="line"/>
      <point x="972" y="-51" type="line"/>
      <point x="1024" y="0" type="line"/>
      <point x="70" y="0" type="line"/>
    </contour>
  </outline>
</glyph>
<glyph name="Edieresis" format="2">
  <advance width="1363"/>
  <unicode hex="00CB"/>
  <outline>
    <contour>
      <point x="350" y="1951" type="line"/>
      <point x="388" y="1951" type="line"/>
      <point x="388" y="1789" type="line"/>
      <point x="350" y="1789" type="line"/>
    </contour>
    <contour>
      <point x="585" y="1951" type="line"/>
      <point x="624" y="1951" type="line"/>
      <point x="624" y="1789" type="line"/>
      <point x="586" y="1789" type="line"/>
    </contour>
    <contour>
      <point x="70" y="38" type="line"/>
      <point x="187" y="38" type="line"/>
      <point x="187" y="1576" type="line"/>
      <point x="70" y="1576" type="line"/>
      <point x="70" y="1614" type="line"/>
      <point x="842" y="1614" type="line"/>
      <point x="774" y="1666" type="line"/>
      <point x="798" y="1696" type="line"/>
      <point x="1110" y="1453" type="line"/>
      <point x="1086" y="1424" type="line"/>
      <point x="890" y="1576" type="line"/>
      <point x="224" y="1576" type="line"/>
      <point x="224" y="917" type="line"/>
      <point x="767" y="917" type="line"/>
      <point x="767" y="1030" type="line"/>
      <point x="805" y="1030" type="line"/>
      <point x="805" y="781" type="line"/>
      <point x="767" y="781" type="line"/>
      <point x="767" y="879" type="line"/>
      <point x="224" y="879" type="line"/>
      <point x="224" y="38" type="line"/>
      <point x="1064" y="38" type="line"/>
      <point x="1271" y="239" type="line"/>
      <point x="1298" y="212" type="line"/>
      <point x="998" y="-78" type="line"/>
      <point x="972" y="-51" type="line"/>
      <point x="1024" y="0" type="line"/>
      <point x="70" y="0" type="line"/>
    </contour>
  </outline>
</glyph>
<glyph name="Igrave" format="2">
  <advance width="467"/>
  <unicode hex="00CC"/>
  <outline>
    <contour>
      <point x="-244" y="2018" type="line"/>
      <point x="394" y="1817" type="line"/>
      <point x="383" y="1781" type="line"/>
      <point x="-256" y="1982" type="line"/>
    </contour>
    <contour>
      <point x="70" y="0" type="line"/>
      <point x="70" y="38" type="line"/>
      <point x="215" y="38" type="line"/>
      <point x="215" y="1576" type="line"/>
      <point x="70" y="1576" type="line"/>
      <point x="70" y="1614" type="line"/>
      <point x="397" y="1614" type="line"/>
      <point x="397" y="1576" type="line"/>
      <point x="253" y="1576" type="line"/>
      <point x="253" y="38" type="line"/>
      <point x="397" y="38" type="line"/>
      <point x="397" y="0" type="line"/>
    </contour>
  </outline>
</glyph>
<glyph name="Icircumflex" format="2">
  <advance width="467"/>
  <unicode hex="00CE"/>
  <outline>
    <contour>
      <point x="222" y="2009" type="line"/>
      <point x="504" y="1822" type="line"/>
      <point x="483" y="1791" type="line"/>
      <point x="223" y="1963" type="line"/>
      <point x="-14" y="1792" type="line"/>
      <point x="-36" y="1822" type="line"/>
    </contour>
    <contour>
      <point x="70" y="0" type="line"/>
      <point x="70" y="38" type="line"/>
      <point x="215" y="38" type="line"/>
      <point x="215" y="1576" type="line"/>
      <point x="70" y="1576" type="line"/>
      <point x="70" y="1614" type="line"/>
      <point x="397" y="1614" type="line"/>
      <point x="397" y="1576" type="line"/>
      <point x="253" y="1576" type="line"/>
      <point x="253" y="38" type="line"/>
      <point x="397" y="38" type="line"/>
      <point x="397" y="0" type="line"/>
    </contour>
  </outline>
</glyph>
<glyph name="Idieresis" format="2">
  <advance width="467"/>
  <unicode hex="00CF"/>
  <outline>
    <contour>
      <point x="100" y="1951" type="line"/>
      <point x="138" y="1951" type="line"/>
      <point x="136" y="1788" type="line"/>
      <point x="98" y="1789" type="line"/>
    </contour>
    <contour>
      <point x="336" y="1951" type="line"/>
      <point x="374" y="1951" type="line"/>
      <point x="373" y="1788" type="line"/>
      <point x="335" y="1789" type="line"/>
    </contour>
    <contour>
      <point x="70" y="0" type="line"/>
      <point x="70" y="38" type="line"/>
      <point x="215" y="38" type="line"/>
      <point x="215" y="1576" type="line"/>
      <point x="70" y="1576" type="line"/>
      <point x="70" y="1614" type="line"/>
      <point x="397" y="1614" type="line"/>
      <point x="397" y="1576" type="line"/>
      <point x="253" y="1576" type="line"/>
      <point x="253" y="38" type="line"/>
      <point x="397" y="38" type="line"/>
      <point x="397" y="0" type="line"/>
    </contour>
  </outline>
</glyph>
<glyph name="Ograve" format="2">
  <advance width="1358"/>
  <unicode hex="00D2"/>
  <outline>
    <contour>
      <point x="389" y="2018" type="line"/>
      <point x="1027" y="1817" type="line"/>
      <point x="1016" y="1781" type="line"/>
      <point x="377" y="1982" type="line"/>
    </contour>
    <contour>
      <point x="80" y="820" type="qcurve" smooth="yes"/>
      <point x="80" y="923"/>
      <point x="117" y="1123"/>
      <point x="188" y="1304"/>
      <point x="292" y="1458"/>
      <point x="425" y="1569"/>
      <point x="587" y="1631"/>
      <point x="680" y="1630" type="qcurve" smooth="yes"/>
      <point x="777" y="1629"/>
      <point x="942" y="1561"/>
      <point x="1075" y="1444"/>
      <point x="1176" y="1287"/>
      <point x="1244" y="1107"/>
      <point x="1278" y="914"/>
      <point x="1278" y="820" type="qcurve" smooth="yes"/>
      <point x="1278" y="732"/>
      <point x="1246" y="540"/>
      <point x="1180" y="354"/>
      <point x="1081" y="187"/>
      <point x="948" y="60"/>
      <point x="779" y="-15"/>
      <point x="677" y="-15" type="qcurve" smooth="yes"/>
      <point x="579" y="-15"/>
      <point x="414" y="58"/>
      <point x="282" y="182"/>
      <point x="181" y="348"/>
      <point x="114" y="534"/>
      <point x="80" y="728"/>
    </contour>
    <contour>
      <point x="118" y="820" type="qcurve" smooth="yes"/>
      <point x="118" y="731"/>
      <point x="150" y="543"/>
      <point x="213" y="366"/>
      <point x="307" y="209"/>
      <point x="432" y="91"/>
      <point x="587" y="23"/>
      <point x="679" y="23" type="qcurve" smooth="yes"/>
      <point x="772" y="23"/>
      <point x="927" y="92"/>
      <point x="1052" y="211"/>
      <point x="1146" y="369"/>
      <point x="1208" y="546"/>
      <point x="1240" y="732"/>
      <point x="1240" y="820" type="qcurve" smooth="yes"/>
      <point x="1240" y="910"/>
      <point x="1208" y="1094"/>
      <point x="1145" y="1266"/>
      <point x="1050" y="1416"/>
      <point x="926" y="1528"/>
      <point x="771" y="1593"/>
      <point x="679" y="1593" type="qcurve" smooth="yes"/>
      <point x="587" y="1593"/>
      <point x="432" y="1528"/>
      <point x="307" y="1415"/>
      <point x="213" y="1263"/>
      <point x="150" y="1091"/>
      <point x="118" y="908"/>
    </contour>
  </outline>
</glyph>
<glyph name="Ucircumflex" format="2">
  <advance width="1411"/>
  <unicode hex="00DB"/>
  <outline>
    <contour>
      <point x="637" y="2009" type="line"/>
      <point x="920" y="1822" type="line"/>
      <point x="899" y="1791" type="line"/>
      <point x="638" y="1963" type="line"/>
      <point x="402" y="1792" type="line"/>
      <point x="380" y="1822" type="line"/>
    </contour>
    <contour>
      <point x="70" y="1576" type="line"/>
      <point x="70" y="1614" type="line"/>
      <point x="397" y="1614" type="line"/>
      <point x="397" y="1576" type="line"/>
      <point x="257" y="1576" type="line"/>
      <point x="257" y="446" type="line" smooth="yes"/>
      <point x="257" y="342"/>
      <point x="334" y="188"/>
      <point x="460" y="86"/>
      <point x="623" y="36"/>
      <point x="709" y="36" type="qcurve" smooth="yes"/>
      <point x="809" y="36"/>
      <point x="974" y="95"/>
      <point x="1091" y="204"/>
      <point x="1155" y="360"/>
      <point x="1155" y="458" type="qcurve" smooth="yes"/>
      <point x="1155" y="1576" type="line"/>
      <point x="1015" y="1576" type="line"/>
      <point x="1015" y="1614" type="line"/>
      <point x="1341" y="1614" type="line"/>
      <point x="1341" y="1576" type="line"/>
      <point x="1193" y="1576" type="line"/>
      <point x="1193" y="460" type="line" smooth="yes"/>
      <point x="1193" y="348"/>
      <point x="1120" y="175"/>
      <point x="990" y="58"/>
      <point x="813" y="-2"/>
      <point x="709" y="-2" type="qcurve" smooth="yes"/>
      <point x="616" y="-2"/>
      <point x="440" y="49"/>
      <point x="303" y="157"/>
      <point x="219" y="327"/>
      <point x="219" y="446" type="qcurve" smooth="yes"/>
      <point x="219" y="1576" type="line"/>
    </contour>
  </outline>
</glyph>
<glyph name="Udieresis" format="2">
  <advance width="1411"/>
  <unicode hex="00DC"/>
  <outline>
    <contour>
      <point x="578" y="1951" type="line"/>
      <point x="615" y="1951" type="line"/>
      <point x="614" y="1788" type="line"/>
      <point x="576" y="1789" type="line"/>
    </contour>
    <contour>
      <point x="814" y="1951" type="line"/>
      <point x="852" y="1951" type="line"/>
      <point x="850" y="1788" type="line"/>
      <point x="813" y="1789" type="line"/>
    </contour>
    <contour>
      <point x="70" y="1576" type="line"/>
      <point x="70" y="1614" type="line"/>
      <point x="397" y="1614" type="line"/>
      <point x="397" y="1576" type="line"/>
      <point x="257" y="1576" type="line"/>
      <point x="257" y="446" type="line" smooth="yes"/>
      <point x="257" y="342"/>
      <point x="334" y="188"/>
      <point x="460" y="86"/>
      <point x="623" y="36"/>
      <point x="709" y="36" type="qcurve" smooth="yes"/>
      <point x="809" y="36"/>
      <point x="974" y="95"/>
      <point x="1091" y="204"/>
      <point x="1155" y="360"/>
      <point x="1155" y="458" type="qcurve" smooth="yes"/>
      <point x="1155" y="1576" type="line"/>
      <point x="1015" y="1576" type="line"/>
      <point x="1015" y="1614" type="line"/>
      <point x="1341" y="1614" type="line"/>
      <point x="1341" y="1576" type="line"/>
      <point x="1193" y="1576" type="line"/>
      <point x="1193" y="460" type="line" smooth="yes"/>
      <point x="1193" y="348"/>
      <point x="1120" y="175"/>
      <point x="990" y="58"/>
      <point x="813" y="-2"/>
      <point x="709" y="-2" type="qcurve" smooth="yes"/>
      <point x="616" y="-2"/>
      <point x="440" y="49"/>
      <point x="303" y="157"/>
      <point x="219" y="327"/>
      <point x="219" y="446" type="qcurve" smooth="yes"/>
      <point x="219" y="1576" type="line"/>
    </contour>
  </outline>
</glyph>
<glyph name="Yacute" format="2">
  <advance width="1331"/>
  <unicode hex="00DD"/>
  <outline>
    <contour>
      <point x="998" y="2018" type="line"/>
      <point x="1009" y="1982" type="line"/>
      <point x="371" y="1780" type="line"/>
      <point x="360" y="1817" type="line"/>
    </contour>
    <contour>
      <point x="34" y="1614" type="line"/>
      <point x="304" y="1614" type="line"/>
      <point x="304" y="1576" type="line"/>
      <point x="221" y="1576" type="line"/>
      <point x="661" y="946" type="line"/>
      <point x="1102" y="1576" type="line"/>
      <point x="1026" y="1576" type="line"/>
      <point x="1026" y="1614" type="line"/>
      <point x="1296" y="1614" type="line"/>
      <point x="1296" y="1576" type="line"/>
      <point x="1148" y="1576" type="line"/>
      <point x="680" y="908" type="line"/>
      <point x="680" y="38" type="line"/>
      <point x="796" y="38" type="line"/>
      <point x="796" y="0" type="line"/>
      <point x="526" y="0" type="line"/>
      <point x="526" y="38" type="line"/>
      <point x="642" y="38" type="line"/>
      <point x="642" y="907" type="line"/>
      <point x="174" y="1576" type="line"/>
      <point x="34" y="1576" type="line"/>
    </contour>
  </outline>
</glyph>
<glyph name="aacute" format="2">
  <advance width="921"/>
  <unicode hex="00E1"/>
  <outline>
    <contour>
      <point x="740" y="1324" type="line"/>
      <point x="752" y="1288" type="line"/>
      <point x="113" y="1087" type="line"/>
      <point x="102" y="1123" type="line"/>
    </contour>
    <contour>
      <point x="102" y="253" type="qcurve" smooth="yes"/>
      <point x="102" y="319"/>
      <point x="151" y="419"/>
      <point x="235" y="490"/>
      <point x="344" y="537"/>
      <point x="464" y="564"/>
      <point x="586" y="575"/>
      <point x="641" y="575" type="qcurve" smooth="yes"/>
      <point x="752" y="575" type="line"/>
      <point x="747" y="665"/>
      <point x="736" y="813"/>
      <point x="689" y="920"/>
      <point x="587" y="978"/>
      <point x="491" y="978" type="qcurve" smooth="yes"/>
      <point x="446" y="978"/>
      <point x="355" y="963"/>
      <point x="268" y="932"/>
      <point x="189" y="884"/>
      <point x="156" y="851" type="qcurve"/>
      <point x="210" y="743" type="line"/>
      <point x="176" y="726" type="line"/>
      <point x="110" y="857" type="line"/>
      <point x="189" y="937"/>
      <point x="382" y="1016"/>
      <point x="491" y="1016" type="qcurve" smooth="yes"/>
      <point x="560" y="1016"/>
      <point x="658" y="989"/>
      <point x="723" y="935"/>
      <point x="761" y="854"/>
      <point x="781" y="748"/>
      <point x="788" y="616"/>
      <point x="790" y="538" type="qcurve"/>
      <point x="640" y="538" type="line" smooth="yes"/>
      <point x="595" y="538"/>
      <point x="487" y="530"/>
      <point x="376" y="507"/>
      <point x="271" y="467"/>
      <point x="189" y="404"/>
      <point x="140" y="314"/>
      <point x="140" y="253" type="qcurve" smooth="yes"/>
      <point x="140" y="209"/>
      <point x="169" y="127"/>
      <point x="223" y="62"/>
      <point x="300" y="23"/>
      <point x="348" y="23" type="qcurve" smooth="yes"/>
      <point x="402" y="23"/>
      <point x="525" y="59"/>
      <point x="641" y="126"/>
      <point x="740" y="222"/>
      <point x="771" y="282" type="qcurve"/>
      <point x="782" y="279" type="line"/>
      <point x="782" y="253"/>
      <point x="785" y="172"/>
      <point x="804" y="95"/>
      <point x="846" y="39"/>
      <point x="886" y="38" type="qcurve"/>
      <point x="886" y="0" type="line"/>
      <point x="852" y="0"/>
      <point x="804" y="33"/>
      <point x="771" y="86"/>
      <point x="752" y="151"/>
      <point x="747" y="183" type="qcurve"/>
      <point x="711" y="139"/>
      <point x="618" y="67"/>
      <point x="513" y="14"/>
      <point x="401" y="-15"/>
      <point x="347" y="-15" type="qcurve" smooth="yes"/>
      <point x="290" y="-15"/>
      <point x="199" y="29"/>
      <point x="136" y="103"/>
      <point x="102" y="200"/>
    </contour>
  </outline>
</glyph>
<glyph name="ae" format="2">
  <advance width="1635"/>
  <unicode hex="00E6"/>
  <outline>
    <contour>
      <point x="1212" y="-15" type="qcurve" smooth="yes"/>
      <point x="1112" y="-15"/>
      <point x="938" y="71"/>
      <point x="808" y="218"/>
      <point x="733" y="413"/>
      <point x="733" y="523" type="qcurve" smooth="yes"/>
      <point x="733" y="538" type="line"/>
      <point x="618" y="538" type="line" smooth="yes"/>
      <point x="573" y="538"/>
      <point x="465" y="530"/>
      <point x="354" y="507"/>
      <point x="249" y="467"/>
      <point x="167" y="404"/>
      <point x="118" y="314"/>
      <point x="118" y="253" type="qcurve" smooth="yes"/>
      <point x="118" y="209"/>
      <point x="147" y="127"/>
      <point x="201" y="62"/>
      <point x="278" y="23"/>
      <point x="326" y="23" type="qcurve" smooth="yes"/>
      <point x="374" y="23"/>
      <point x="482" y="52"/>
      <point x="587" y="106"/>
      <point x="683" y="183"/>
      <point x="718" y="232" type="qcurve"/>
      <point x="744" y="210" type="line"/>
      <point x="707" y="161"/>
      <point x="608" y="78"/>
      <point x="496" y="18"/>
      <point x="379" y="-15"/>
      <point x="325" y="-15" type="qcurve" smooth="yes"/>
      <point x="268" y="-15"/>
      <point x="177" y="29"/>
      <point x="114" y="103"/>
      <point x="80" y="200"/>
      <point x="80" y="253" type="qcurve" smooth="yes"/>
      <point x="80" y="319"/>
      <point x="129" y="419"/>
      <point x="213" y="490"/>
      <point x="322" y="537"/>
      <point x="442" y="564"/>
      <point x="564" y="575"/>
      <point x="619" y="575" type="qcurve" smooth="yes"/>
      <point x="730" y="575" type="line"/>
      <point x="725" y="665"/>
      <point x="714" y="813"/>
      <point x="667" y="920"/>
      <point x="565" y="978"/>
      <point x="469" y="978" type="qcurve" smooth="yes"/>
      <point x="424" y="978"/>
      <point x="333" y="963"/>
      <point x="246" y="932"/>
      <point x="167" y="884"/>
      <point x="134" y="851" type="qcurve"/>
      <point x="188" y="743" type="line"/>
      <point x="154" y="726" type="line"/>
      <point x="88" y="857" type="line"/>
      <point x="167" y="937"/>
      <point x="360" y="1016"/>
      <point x="469" y="1016" type="qcurve" smooth="yes"/>
      <point x="554" y="1016"/>
      <point x="664" y="970"/>
      <point x="730" y="882"/>
      <point x="757" y="754"/>
      <point x="760" y="672" type="qcurve"/>
      <point x="781" y="744"/>
      <point x="864" y="870"/>
      <point x="978" y="963"/>
      <point x="1118" y="1017"/>
      <point x="1196" y="1017" type="qcurve" smooth="yes"/>
      <point x="1284" y="1017"/>
      <point x="1456" y="942"/>
      <point x="1536" y="862" type="qcurve"/>
      <point x="950" y="421" type="line"/>
      <point x="928" y="451" type="line"/>
      <point x="1478" y="866" type="line"/>
      <point x="1421" y="917"/>
      <point x="1276" y="979"/>
      <point x="1194" y="979" type="qcurve" smooth="yes"/>
      <point x="1105" y="979"/>
      <point x="951" y="905"/>
      <point x="836" y="781"/>
      <point x="770" y="616"/>
      <point x="770" y="525" type="qcurve" smooth="yes"/>
      <point x="770" y="428"/>
      <point x="835" y="247"/>
      <point x="952" y="107"/>
      <point x="1113" y="23"/>
      <point x="1209" y="23" type="qcurve" smooth="yes"/>
      <point x="1312" y="23"/>
      <point x="1490" y="123"/>
      <point x="1554" y="211" type="qcurve"/>
      <point x="1585" y="190" type="line"/>
      <point x="1554" y="145"/>
      <point x="1472" y="69"/>
      <point x="1376" y="15"/>
      <point x="1269" y="-15"/>
    </contour>
  </outline>
</glyph>
<glyph name="ccedilla" format="2">
  <advance width="921"/>
  <unicode hex="00E7"/>
  <outline>
    <contour>
      <point x="525" y="-393" type="line"/>
      <point x="525" y="-136" type="line"/>
      <point x="563" y="-136" type="line"/>
      <point x="563" y="-411" type="line"/>
      <point x="365" y="-581" type="line"/>
      <point x="340" y="-552" type="line"/>
    </contour>
    <contour>
      <point x="547" y="-15" type="qcurve" smooth="yes"/>
      <point x="439" y="-15"/>
      <point x="262" y="68"/>
      <point x="135" y="212"/>
      <point x="66" y="406"/>
      <point x="66" y="517" type="qcurve" smooth="yes"/>
      <point x="66" y="615"/>
      <point x="137" y="795"/>
      <point x="262" y="933"/>
      <point x="432" y="1015"/>
      <point x="531" y="1015" type="qcurve" smooth="yes"/>
      <point x="619" y="1017"/>
      <point x="790" y="942"/>
      <point x="865" y="867" type="qcurve"/>
      <point x="765" y="694" type="line"/>
      <point x="732" y="712" type="line"/>
      <point x="818" y="860" type="line"/>
      <point x="760" y="915"/>
      <point x="610" y="978"/>
      <point x="527" y="978" type="qcurve" smooth="yes"/>
      <point x="443" y="978"/>
      <point x="289" y="905"/>
      <point x="173" y="779"/>
      <point x="104" y="612"/>
      <point x="104" y="518" type="qcurve" smooth="yes"/>
      <point x="104" y="421"/>
      <point x="162" y="242"/>
      <point x="274" y="105"/>
      <point x="438" y="23"/>
      <point x="544" y="23" type="qcurve" smooth="yes"/>
      <point x="647" y="23"/>
      <point x="825" y="120"/>
      <point x="889" y="208" type="qcurve"/>
      <point x="920" y="187" type="line"/>
      <point x="889" y="142"/>
      <point x="808" y="67"/>
      <point x="712" y="14"/>
      <point x="604" y="-15"/>
    </contour>
  </outline>
</glyph>
<glyph name="eacute" format="2">
  <advance width="921"/>
  <unicode hex="00E9"/>
  <outline>
    <contour>
      <point x="821" y="1324" type="line"/>
      <point x="832" y="1288" type="line"/>
      <point x="194" y="1087" type="line"/>
      <point x="183" y="1123" type="line"/>
    </contour>
    <contour>
      <point x="547" y="-15" type="qcurve" smooth="yes"/>
      <point x="447" y="-15"/>
      <point x="273" y="71"/>
      <point x="143" y="218"/>
      <point x="68" y="413"/>
      <point x="68" y="523" type="qcurve" smooth="yes"/>
      <point x="68" y="618"/>
      <point x="136" y="796"/>
      <point x="259" y="934"/>
      <point x="429" y="1017"/>
      <point x="531" y="1017" type="qcurve" smooth="yes"/>
      <point x="619" y="1017"/>
      <point x="791" y="942"/>
      <point x="871" y="862" type="qcurve"/>
      <point x="285" y="421" type="line"/>
      <point x="263" y="451" type="line"/>
      <point x="813" y="866" type="line"/>
      <point x="756" y="917"/>
      <point x="611" y="979"/>
      <point x="529" y="979" type="qcurve" smooth="yes"/>
      <point x="440" y="979"/>
      <point x="286" y="905"/>
      <point x="171" y="781"/>
      <point x="105" y="616"/>
      <point x="105" y="525" type="qcurve" smooth="yes"/>
      <point x="105" y="428"/>
      <point x="170" y="247"/>
      <point x="287" y="107"/>
      <point x="448" y="23"/>
      <point x="544" y="23" type="qcurve" smooth="yes"/>
      <point x="647" y="23"/>
      <point x="825" y="123"/>
      <point x="889" y="211" type="qcurve"/>
      <point x="920" y="190" type="line"/>
      <point x="889" y="145"/>
      <point x="807" y="69"/>
      <point x="711" y="15"/>
      <point x="604" y="-15"/>
    </contour>
  </outline>
</glyph>
<glyph name="iacute" format="2">
  <advance width="507"/>
  <unicode hex="00ED"/>
  <outline>
    <contour>
      <point x="774" y="1324" type="line"/>
      <point x="785" y="1288" type="line"/>
      <point x="147" y="1087" type="line"/>
      <point x="136" y="1123" type="line"/>
    </contour>
    <contour>
      <point x="304" y="1012" type="line"/>
      <point x="304" y="153" type="line" smooth="yes"/>
      <point x="304" y="118"/>
      <point x="273" y="57"/>
      <point x="244" y="37" type="qcurve"/>
      <point x="427" y="37" type="line"/>
      <point x="427" y="0" type="line"/>
      <point x="84" y="0" type="line"/>
      <point x="86" y="37" type="line"/>
      <point x="114" y="38"/>
      <point x="177" y="47"/>
      <point x="231" y="71"/>
      <point x="267" y="116"/>
      <point x="267" y="153" type="qcurve" smooth="yes"/>
      <point x="267" y="962" type="line"/>
      <point x="90" y="912" type="line"/>
      <point x="80" y="948" type="line"/>
    </contour>
  </outline>
</glyph>
<glyph name="icircumflex" format="2">
  <advance width="531"/>
  <unicode hex="00EE"/>
  <outline>
    <contour>
      <point x="294" y="1316" type="line"/>
      <point x="576" y="1129" type="line"/>
      <point x="555" y="1097" type="line"/>
      <point x="295" y="1270" type="line"/>
      <point x="58" y="1098" type="line"/>
      <point x="36" y="1129" type="line"/>
    </contour>
    <contour>
      <point x="304" y="1012" type="line"/>
      <point x="304" y="153" type="line" smooth="yes"/>
      <point x="304" y="118"/>
      <point x="273" y="57"/>
      <point x="244" y="37" type="qcurve"/>
      <point x="427" y="37" type="line"/>
      <point x="427" y="0" type="line"/>
      <point x="84" y="0" type="line"/>
      <point x="86" y="37" type="line"/>
      <point x="114" y="38"/>
      <point x="177" y="47"/>
      <point x="231" y="71"/>
      <point x="267" y="116"/>
      <point x="267" y="153" type="qcurve" smooth="yes"/>
      <point x="267" y="962" type="line"/>
      <point x="90" y="912" type="line"/>
      <point x="80" y="948" type="line"/>
    </contour>
  </outline>
</glyph>
<glyph name="idieresis" format="2">
  <advance width="529"/>
  <unicode hex="00EF"/>
  <outline>
    <contour>
      <point x="139" y="1247" type="line"/>
      <point x="177" y="1247" type="line"/>
      <point x="175" y="1085" type="line"/>
      <point x="137" y="1085" type="line"/>
    </contour>
    <contour>
      <point x="375" y="1247" type="line"/>
      <point x="413" y="1247" type="line"/>
      <point x="412" y="1085" type="line"/>
      <point x="374" y="1085" type="line"/>
    </contour>
    <contour>
      <point x="304" y="1012" type="line"/>
      <point x="304" y="153" type="line" smooth="yes"/>
      <point x="304" y="118"/>
      <point x="273" y="57"/>
      <point x="244" y="37" type="qcurve"/>
      <point x="427" y="37" type="line"/>
      <point x="427" y="0" type="line"/>
      <point x="84" y="0" type="line"/>
      <point x="86" y="37" type="line"/>
      <point x="114" y="38"/>
      <point x="177" y="47"/>
      <point x="231" y="71"/>
      <point x="267" y="116"/>
      <point x="267" y="153" type="qcurve" smooth="yes"/>
      <point x="267" y="962" type="line"/>
      <point x="90" y="912" type="line"/>
      <point x="80" y="948" type="line"/>
    </contour>
  </outline>
</glyph>
<glyph name="ocircumflex" format="2">
  <advance width="955"/>
  <unicode hex="00F4"/>
  <outline>
    <contour>
      <point x="467" y="1316" type="line"/>
      <point x="750" y="1129" type="line"/>
      <point x="729" y="1097" type="line"/>
      <point x="469" y="1270" type="line"/>
      <point x="232" y="1098" type="line"/>
      <point x="210" y="1129" type="line"/>
    </contour>
    <contour>
      <point x="501" y="-16" type="qcurve" smooth="yes"/>
      <point x="401" y="-16"/>
      <point x="241" y="77"/>
      <point x="129" y="227"/>
      <point x="68" y="417"/>
      <point x="68" y="515" type="qcurve" smooth="yes"/>
      <point x="68" y="570"/>
      <point x="92" y="687"/>
      <point x="140" y="798"/>
      <point x="211" y="897"/>
      <point x="301" y="972"/>
      <point x="411" y="1015"/>
      <point x="475" y="1015" type="qcurve" smooth="yes"/>
      <point x="548" y="1015"/>
      <point x="668" y="970"/>
      <point x="764" y="892"/>
      <point x="835" y="786"/>
      <point x="883" y="664"/>
      <point x="906" y="533"/>
      <point x="907" y="468" type="qcurve" smooth="yes"/>
      <point x="908" y="380"/>
      <point x="851" y="207"/>
      <point x="745" y="69"/>
      <point x="594" y="-16"/>
    </contour>
    <contour>
      <point x="105" y="513" type="qcurve" smooth="yes"/>
      <point x="105" y="413"/>
      <point x="163" y="235"/>
      <point x="268" y="101"/>
      <point x="414" y="22"/>
      <point x="501" y="22" type="qcurve" smooth="yes"/>
      <point x="583" y="22"/>
      <point x="718" y="98"/>
      <point x="815" y="223"/>
      <point x="869" y="384"/>
      <point x="869" y="470" type="qcurve" smooth="yes"/>
      <point x="869" y="524"/>
      <point x="848" y="641"/>
      <point x="806" y="754"/>
      <point x="741" y="856"/>
      <point x="653" y="933"/>
      <point x="542" y="978"/>
      <point x="475" y="978" type="qcurve" smooth="yes"/>
      <point x="393" y="978"/>
      <point x="257" y="897"/>
      <point x="159" y="766"/>
      <point x="105" y="599"/>
    </contour>
  </outline>
</glyph>
<glyph name="ugrave" format="2">
  <advance width="1058"/>
  <unicode hex="00F9"/>
  <outline>
    <contour>
      <point x="239" y="1325" type="line"/>
      <point x="877" y="1124" type="line"/>
      <point x="866" y="1087" type="line"/>
      <point x="227" y="1289" type="line"/>
    </contour>
    <contour>
      <point x="34" y="872" type="line"/>
      <point x="105" y="872"/>
      <point x="197" y="950"/>
      <point x="228" y="1010" type="qcurve"/>
      <point x="264" y="1004" type="line"/>
      <point x="264" y="289" type="line" smooth="yes"/>
      <point x="264" y="235"/>
      <point x="280" y="137"/>
      <point x="321" y="64"/>
      <point x="393" y="21"/>
      <point x="449" y="21" type="qcurve" smooth="yes"/>
      <point x="507" y="21"/>
      <point x="617" y="58"/>
      <point x="717" y="120"/>
      <point x="806" y="199"/>
      <point x="845" y="240" type="qcurve"/>
      <point x="845" y="915" type="line"/>
      <point x="813" y="880"/>
      <point x="723" y="849"/>
      <point x="671" y="839" type="qcurve"/>
      <point x="667" y="876" type="line"/>
      <point x="682" y="878"/>
      <point x="741" y="892"/>
      <point x="800" y="922"/>
      <point x="845" y="972"/>
      <point x="845" y="1011" type="qcurve" smooth="yes"/>
      <point x="845" y="1012" type="line"/>
      <point x="883" y="1002" type="line"/>
      <point x="883" y="21" type="line"/>
      <point x="1059" y="72" type="line"/>
      <point x="1069" y="36" type="line"/>
      <point x="845" y="-28" type="line"/>
      <point x="845" y="186" type="line"/>
      <point x="807" y="148"/>
      <point x="718" y="76"/>
      <point x="618" y="19"/>
      <point x="508" y="-16"/>
      <point x="449" y="-16" type="qcurve" smooth="yes"/>
      <point x="384" y="-16"/>
      <point x="299" y="30"/>
      <point x="248" y="112"/>
      <point x="227" y="225"/>
      <point x="227" y="291" type="qcurve" smooth="yes"/>
      <point x="227" y="932" type="line"/>
      <point x="198" y="884"/>
      <point x="92" y="835"/>
      <point x="34" y="834" type="qcurve"/>
    </contour>
  </outline>
</glyph>
<glyph name="yacute" format="2">
  <advance width="1208"/>
  <unicode hex="00FD"/>
  <outline>
    <contour>
      <point x="949" y="1324" type="line"/>
      <point x="960" y="1288" type="line"/>
      <point x="322" y="1087" type="line"/>
      <point x="311" y="1123" type="line"/>
    </contour>
    <contour>
      <point x="10" y="1000" type="line"/>
      <point x="322" y="1000" type="line"/>
      <point x="322" y="963" type="line"/>
      <point x="173" y="963" type="line"/>
      <point x="189" y="946"/>
      <point x="200" y="921" type="qcurve" smooth="yes"/>
      <point x="595" y="50" type="line"/>
      <point x="984" y="921" type="line" smooth="yes"/>
      <point x="994" y="946"/>
      <point x="1011" y="963" type="qcurve"/>
      <point x="862" y="963" type="line"/>
      <point x="862" y="1000" type="line"/>
      <point x="1174" y="1000" type="line"/>
      <point x="1174" y="963" type="line"/>
      <point x="1095" y="963"/>
      <point x="1064" y="952" type="qcurve" smooth="yes"/>
      <point x="1034" y="942"/>
      <point x="1018" y="906" type="qcurve" smooth="yes"/>
      <point x="356" y="-577" type="line" smooth="yes"/>
      <point x="345" y="-602"/>
      <point x="312" y="-659"/>
      <point x="269" y="-707"/>
      <point x="215" y="-739"/>
      <point x="182" y="-739" type="qcurve" smooth="yes"/>
      <point x="138" y="-739"/>
      <point x="60" y="-695"/>
      <point x="43" y="-651" type="qcurve"/>
      <point x="79" y="-639" type="line"/>
      <point x="107" y="-702"/>
      <point x="182" y="-702" type="qcurve" smooth="yes"/>
      <point x="206" y="-702"/>
      <point x="248" y="-674"/>
      <point x="284" y="-632"/>
      <point x="312" y="-583"/>
      <point x="322" y="-562" type="qcurve" smooth="yes"/>
      <point x="575" y="4" type="line"/>
      <point x="166" y="906" type="line" smooth="yes"/>
      <point x="150" y="942"/>
      <point x="120" y="952" type="qcurve" smooth="yes"/>
      <point x="89" y="963"/>
      <point x="10" y="963" type="qcurve"/>
    </contour>
  </outline>
</glyph>
<glyph name="OE" format="2">
  <advance width="1935"/>
  <unicode hex="0152"/>
  <outline>
    <contour>
      <point x="80" y="819" type="qcurve" smooth="yes"/>
      <point x="80" y="904"/>
      <point x="112" y="1089"/>
      <point x="177" y="1265"/>
      <point x="275" y="1424"/>
      <point x="407" y="1544"/>
      <point x="574" y="1614"/>
      <point x="676" y="1614" type="qcurve" smooth="yes"/>
      <point x="1441" y="1614" type="line"/>
      <point x="1375" y="1667" type="line"/>
      <point x="1398" y="1696" type="line"/>
      <point x="1709" y="1455" type="line"/>
      <point x="1685" y="1425" type="line"/>
      <point x="1490" y="1577" type="line"/>
      <point x="828" y="1577" type="line"/>
      <point x="828" y="914" type="line"/>
      <point x="1368" y="916" type="line"/>
      <point x="1368" y="1029" type="line"/>
      <point x="1405" y="1029" type="line"/>
      <point x="1405" y="781" type="line"/>
      <point x="1368" y="781" type="line"/>
      <point x="1368" y="878" type="line"/>
      <point x="828" y="877" type="line"/>
      <point x="828" y="37" type="line"/>
      <point x="1663" y="37" type="line"/>
      <point x="1869" y="237" type="line"/>
      <point x="1895" y="210" type="line"/>
      <point x="1597" y="-78" type="line"/>
      <point x="1571" y="-51" type="line"/>
      <point x="1623" y="0" type="line"/>
      <point x="674" y="1" type="line" smooth="yes"/>
      <point x="578" y="1"/>
      <point x="415" y="73"/>
      <point x="283" y="196"/>
      <point x="182" y="359"/>
      <point x="115" y="541"/>
      <point x="80" y="731"/>
    </contour>
    <contour>
      <point x="118" y="819" type="qcurve" smooth="yes"/>
      <point x="118" y="740"/>
      <point x="147" y="562"/>
      <point x="207" y="388"/>
      <point x="299" y="230"/>
      <point x="423" y="109"/>
      <point x="580" y="37"/>
      <point x="676" y="37" type="qcurve" smooth="yes"/>
      <point x="790" y="37" type="line"/>
      <point x="790" y="1577" type="line"/>
      <point x="674" y="1578" type="line" smooth="yes"/>
      <point x="582" y="1579"/>
      <point x="428" y="1514"/>
      <point x="305" y="1401"/>
      <point x="211" y="1251"/>
      <point x="149" y="1082"/>
      <point x="118" y="903"/>
    </contour>
  </outline>
</glyph>
<glyph name="oe" format="2">
  <advance width="1419"/>
  <unicode hex="0153"/>
  <outline>
    <contour>
      <point x="996" y="-15" type="qcurve" smooth="yes"/>
      <point x="922" y="-15"/>
      <point x="789" y="32"/>
      <point x="732" y="75" type="qcurve"/>
      <point x="683" y="33"/>
      <point x="563" y="-16"/>
      <point x="494" y="-16" type="qcurve" smooth="yes"/>
      <point x="394" y="-16"/>
      <point x="234" y="77"/>
      <point x="122" y="227"/>
      <point x="61" y="417"/>
      <point x="61" y="515" type="qcurve" smooth="yes"/>
      <point x="61" y="570"/>
      <point x="85" y="687"/>
      <point x="133" y="798"/>
      <point x="204" y="897"/>
      <point x="294" y="972"/>
      <point x="404" y="1015"/>
      <point x="468" y="1015" type="qcurve" smooth="yes"/>
      <point x="543" y="1015"/>
      <point x="665" y="968"/>
      <point x="713" y="926" type="qcurve"/>
      <point x="769" y="968"/>
      <point x="903" y="1017"/>
      <point x="980" y="1017" type="qcurve" smooth="yes"/>
      <point x="1068" y="1017"/>
      <point x="1240" y="942"/>
      <point x="1320" y="862" type="qcurve"/>
      <point x="734" y="421" type="line"/>
      <point x="712" y="451" type="line"/>
      <point x="1262" y="866" type="line"/>
      <point x="1205" y="917"/>
      <point x="1060" y="979"/>
      <point x="978" y="979" type="qcurve" smooth="yes"/>
      <point x="889" y="979"/>
      <point x="735" y="905"/>
      <point x="620" y="781"/>
      <point x="554" y="616"/>
      <point x="554" y="525" type="qcurve" smooth="yes"/>
      <point x="554" y="428"/>
      <point x="619" y="247"/>
      <point x="736" y="107"/>
      <point x="897" y="23"/>
      <point x="993" y="23" type="qcurve" smooth="yes"/>
      <point x="1096" y="23"/>
      <point x="1274" y="123"/>
      <point x="1338" y="211" type="qcurve"/>
      <point x="1369" y="190" type="line"/>
      <point x="1338" y="145"/>
      <point x="1256" y="69"/>
      <point x="1160" y="15"/>
      <point x="1053" y="-15"/>
    </contour>
    <contour>
      <point x="517" y="523" type="qcurve" smooth="yes"/>
      <point x="517" y="631"/>
      <point x="604" y="829"/>
      <point x="682" y="900" type="qcurve"/>
      <point x="638" y="935"/>
      <point x="533" y="978"/>
      <point x="468" y="978" type="qcurve" smooth="yes"/>
      <point x="386" y="978"/>
      <point x="250" y="897"/>
      <point x="152" y="766"/>
      <point x="98" y="599"/>
      <point x="98" y="513" type="qcurve" smooth="yes"/>
      <point x="98" y="413"/>
      <point x="156" y="235"/>
      <point x="261" y="101"/>
      <point x="407" y="22"/>
      <point x="494" y="22" type="qcurve" smooth="yes"/>
      <point x="554" y="22"/>
      <point x="658" y="63"/>
      <point x="702" y="99" type="qcurve"/>
      <point x="660" y="136"/>
      <point x="591" y="231"/>
      <point x="543" y="339"/>
      <point x="517" y="459"/>
    </contour>
  </outline>
</glyph>
<glyph name="euro" format="2">
  <advance width="1160"/>
  <unicode hex="20AC"/>
  <outline>
    <contour>
      <point x="95" y="798" type="qcurve" smooth="yes"/>
      <point x="95" y="887"/>
      <point x="127" y="1079"/>
      <point x="193" y="1264"/>
      <point x="292" y="1431"/>
      <point x="425" y="1556"/>
      <point x="592" y="1630"/>
      <point x="694" y="1630" type="qcurve" smooth="yes"/>
      <point x="892" y="1630"/>
      <point x="1051" y="1468" type="qcurve" smooth="yes"/>
      <point x="1065" y="1454" type="line"/>
      <point x="879" y="1269" type="line"/>
      <point x="853" y="1296" type="line"/>
      <point x="1011" y="1454" type="line"/>
      <point x="867" y="1592"/>
      <point x="694" y="1592" type="qcurve" smooth="yes"/>
      <point x="608" y="1592"/>
      <point x="462" y="1532"/>
      <point x="342" y="1429"/>
      <point x="249" y="1289"/>
      <point x="182" y="1130"/>
      <point x="142" y="959"/>
      <point x="136" y="875" type="qcurve"/>
      <point x="690" y="876" type="line"/>
      <point x="690" y="990" type="line"/>
      <point x="729" y="990" type="line"/>
      <point x="729" y="577" type="line"/>
      <point x="691" y="577" type="line"/>
      <point x="691" y="674" type="line"/>
      <point x="141" y="672" type="line"/>
      <point x="151" y="592"/>
      <point x="195" y="433"/>
      <point x="264" y="289"/>
      <point x="356" y="165"/>
      <point x="473" y="74"/>
      <point x="612" y="23"/>
      <point x="694" y="23" type="qcurve" smooth="yes"/>
      <point x="806" y="23"/>
      <point x="1010" y="137"/>
      <point x="1089" y="243" type="qcurve"/>
      <point x="898" y="394" type="line"/>
      <point x="921" y="423" type="line"/>
      <point x="1134" y="247" type="line"/>
      <point x="1092" y="187"/>
      <point x="989" y="90"/>
      <point x="875" y="22"/>
      <point x="754" y="-15"/>
      <point x="694" y="-15" type="qcurve" smooth="yes"/>
      <point x="597" y="-15"/>
      <point x="432" y="51"/>
      <point x="299" y="166"/>
      <point x="198" y="322"/>
      <point x="130" y="503"/>
      <point x="95" y="700"/>
    </contour>
    <contour>
      <point x="134" y="837" type="line"/>
      <point x="133" y="828"/>
      <point x="133" y="807"/>
      <point x="133" y="798" type="qcurve" smooth="yes"/>
      <point x="133" y="753"/>
      <point x="136" y="710" type="qcurve"/>
      <point x="691" y="712" type="line"/>
      <point x="691" y="839" type="line"/>
    </contour>
  </outline>
</glyph>
<glyph name="ff" format="2">
  <advance width="1061"/>
  <unicode hex="FB00"/>
  <outline>
    <contour>
      <point x="120" y="0" type="line"/>
      <point x="120" y="38" type="line"/>
      <point x="373" y="38" type="line"/>
      <point x="296" y="85"/>
      <point x="296" y="177" type="qcurve" smooth="yes"/>
      <point x="296" y="821" type="line" smooth="yes"/>
      <point x="296" y="861"/>
      <point x="239" y="914"/>
      <point x="157" y="946"/>
      <point x="67" y="960"/>
      <point x="35" y="961" type="qcurve"/>
      <point x="35" y="999" type="line"/>
      <point x="408" y="999" type="line"/>
      <point x="353" y="1021"/>
      <point x="274" y="1085"/>
      <point x="223" y="1163"/>
      <point x="199" y="1253"/>
      <point x="199" y="1300" type="qcurve" smooth="yes"/>
      <point x="199" y="1360"/>
      <point x="241" y="1478"/>
      <point x="321" y="1572"/>
      <point x="438" y="1631"/>
      <point x="514" y="1631" type="qcurve" smooth="yes"/>
      <point x="534" y="1631"/>
      <point x="589" y="1625"/>
      <point x="646" y="1610"/>
      <point x="702" y="1583"/>
      <point x="723" y="1561" type="qcurve"/>
      <point x="761" y="1593"/>
      <point x="860" y="1631"/>
      <point x="920" y="1631" type="qcurve" smooth="yes"/>
      <point x="945" y="1631"/>
      <point x="1015" y="1622"/>
      <point x="1085" y="1597"/>
      <point x="1145" y="1552"/>
      <point x="1161" y="1515" type="qcurve"/>
      <point x="1161" y="1505" type="line"/>
      <point x="1073" y="1438" type="line"/>
      <point x="1051" y="1468" type="line"/>
      <point x="1119" y="1520" type="line"/>
      <point x="1106" y="1541"/>
      <point x="1056" y="1570"/>
      <point x="999" y="1586"/>
      <point x="942" y="1593"/>
      <point x="922" y="1593" type="qcurve" smooth="yes"/>
      <point x="854" y="1593"/>
      <point x="749" y="1543"/>
      <point x="678" y="1460"/>
      <point x="642" y="1355"/>
      <point x="642" y="1300" type="qcurve" smooth="yes"/>
      <point x="642" y="1231"/>
      <point x="690" y="1127"/>
      <point x="773" y="1053"/>
      <point x="882" y="1009"/>
      <point x="943" y="999" type="qcurve"/>
      <point x="943" y="961" type="line"/>
      <point x="625" y="961" type="line"/>
      <point x="740" y="912"/>
      <point x="740" y="821" type="qcurve" smooth="yes"/>
      <point x="740" y="177" type="line" smooth="yes"/>
      <point x="740" y="142"/>
      <point x="771" y="91"/>
      <point x="821" y="57"/>
      <point x="884" y="39"/>
      <point x="916" y="38" type="qcurve"/>
      <point x="916" y="0" type="line"/>
    </contour>
    <contour>
      <point x="219" y="961" type="line"/>
      <point x="334" y="912"/>
      <point x="334" y="821" type="qcurve" smooth="yes"/>
      <point x="334" y="177" type="line" smooth="yes"/>
      <point x="334" y="142"/>
      <point x="365" y="91"/>
      <point x="415" y="57"/>
      <point x="478" y="39"/>
      <point x="510" y="38" type="qcurve" smooth="yes"/>
      <point x="779" y="38" type="line"/>
      <point x="702" y="85"/>
      <point x="702" y="177" type="qcurve" smooth="yes"/>
      <point x="702" y="821" type="line" smooth="yes"/>
      <point x="702" y="861"/>
      <point x="645" y="914"/>
      <point x="563" y="946"/>
      <point x="473" y="960"/>
      <point x="441" y="961" type="qcurve" smooth="yes"/>
    </contour>
    <contour>
      <point x="236" y="1300" type="qcurve" smooth="yes"/>
      <point x="236" y="1231"/>
      <point x="284" y="1127"/>
      <point x="367" y="1053"/>
      <point x="476" y="1009"/>
      <point x="537" y="999" type="qcurve"/>
      <point x="814" y="999" type="line"/>
      <point x="759" y="1021"/>
      <point x="680" y="1085"/>
      <point x="629" y="1163"/>
      <point x="605" y="1253"/>
      <point x="605" y="1300" type="qcurve" smooth="yes"/>
      <point x="605" y="1364"/>
      <point x="652" y="1490"/>
      <point x="698" y="1538" type="qcurve"/>
      <point x="681" y="1554"/>
      <point x="634" y="1575"/>
      <point x="583" y="1588"/>
      <point x="534" y="1593"/>
      <point x="516" y="1593" type="qcurve" smooth="yes"/>
      <point x="448" y="1593"/>
      <point x="343" y="1543"/>
      <point x="272" y="1460"/>
      <point x="236" y="1355"/>
    </contour>
  </outline>
</glyph>
<glyph name="fi" format="2">
  <advance width="933"/>
  <unicode hex="FB01"/>
  <outline>
    <contour>
      <point x="592" y="1284" type="qcurve" smooth="yes"/>
      <point x="592" y="1307"/>
      <point x="609" y="1347"/>
      <point x="639" y="1376"/>
      <point x="678" y="1393"/>
      <point x="701" y="1393" type="qcurve" smooth="yes"/>
      <point x="723" y="1393"/>
      <point x="763" y="1376"/>
      <point x="793" y="1346"/>
      <point x="811" y="1306"/>
      <point x="811" y="1284" type="qcurve" smooth="yes"/>
      <point x="811" y="1261"/>
      <point x="793" y="1222"/>
      <point x="763" y="1192"/>
      <point x="723" y="1175"/>
      <point x="701" y="1175" type="qcurve" smooth="yes"/>
      <point x="678" y="1175"/>
      <point x="639" y="1192"/>
      <point x="609" y="1222"/>
      <point x="592" y="1261"/>
    </contour>
    <contour>
      <point x="630" y="1284" type="qcurve" smooth="yes"/>
      <point x="630" y="1255"/>
      <point x="672" y="1213"/>
      <point x="701" y="1213" type="qcurve" smooth="yes"/>
      <point x="730" y="1213"/>
      <point x="773" y="1255"/>
      <point x="773" y="1284" type="qcurve" smooth="yes"/>
      <point x="772" y="1314"/>
      <point x="730" y="1356"/>
      <point x="701" y="1356" type="qcurve" smooth="yes"/>
      <point x="672" y="1356"/>
      <point x="630" y="1314"/>
    </contour>
    <contour>
      <point x="35" y="999" type="line"/>
      <point x="408" y="999" type="line"/>
      <point x="353" y="1021"/>
      <point x="274" y="1085"/>
      <point x="223" y="1163"/>
      <point x="199" y="1253"/>
      <point x="199" y="1300" type="qcurve" smooth="yes"/>
      <point x="199" y="1360"/>
      <point x="241" y="1478"/>
      <point x="321" y="1572"/>
      <point x="438" y="1631"/>
      <point x="514" y="1631" type="qcurve" smooth="yes"/>
      <point x="552" y="1631"/>
      <point x="627" y="1613"/>
      <point x="686" y="1576"/>
      <point x="722" y="1517"/>
      <point x="722" y="1476" type="qcurve" smooth="yes"/>
      <point x="722" y="1378" type="line"/>
      <point x="687" y="1376" type="line"/>
      <point x="687" y="1480" type="line" smooth="yes"/>
      <point x="687" y="1508"/>
      <point x="660" y="1551"/>
      <point x="613" y="1580"/>
      <point x="551" y="1595"/>
      <point x="516" y="1595" type="qcurve" smooth="yes"/>
      <point x="448" y="1595"/>
      <point x="343" y="1544"/>
      <point x="272" y="1461"/>
      <point x="236" y="1355"/>
      <point x="236" y="1300" type="qcurve" smooth="yes"/>
      <point x="236" y="1231"/>
      <point x="284" y="1127"/>
      <point x="367" y="1053"/>
      <point x="476" y="1009"/>
      <point x="537" y="999" type="qcurve"/>
      <point x="730" y="999" type="line"/>
      <point x="730" y="153" type="line" smooth="yes"/>
      <point x="730" y="118"/>
      <point x="699" y="57"/>
      <point x="670" y="37" type="qcurve"/>
      <point x="853" y="37" type="line"/>
      <point x="853" y="0" type="line"/>
      <point x="120" y="0" type="line"/>
      <point x="120" y="39" type="line"/>
      <point x="373" y="39" type="line"/>
      <point x="296" y="86"/>
      <point x="296" y="177" type="qcurve" smooth="yes"/>
      <point x="296" y="821" type="line" smooth="yes"/>
      <point x="296" y="861"/>
      <point x="239" y="914"/>
      <point x="157" y="946"/>
      <point x="67" y="960"/>
      <point x="35" y="961" type="qcurve"/>
    </contour>
    <contour>
      <point x="512" y="37" type="qcurve" smooth="yes"/>
      <point x="540" y="37"/>
      <point x="603" y="46"/>
      <point x="657" y="71"/>
      <point x="693" y="116"/>
      <point x="693" y="153" type="qcurve" smooth="yes"/>
      <point x="693" y="961" type="line"/>
      <point x="219" y="961" type="line"/>
      <point x="334" y="912"/>
      <point x="334" y="821" type="qcurve" smooth="yes"/>
      <point x="334" y="177" type="line" smooth="yes"/>
      <point x="334" y="142"/>
      <point x="365" y="90"/>
      <point x="416" y="55"/>
      <point x="480" y="37"/>
    </contour>
  </outline>
</glyph>
<glyph name="fl" format="2">
  <advance width="1084"/>
  <unicode hex="FB02"/>
  <outline>
    <contour>
      <point x="874" y="1511" type="line"/>
      <point x="802" y="1549"/>
      <point x="639" y="1593"/>
      <point x="537" y="1593" type="qcurve" smooth="yes"/>
      <point x="461" y="1593"/>
      <point x="348" y="1543"/>
      <point x="273" y="1460"/>
      <point x="236" y="1355"/>
      <point x="236" y="1300" type="qcurve" smooth="yes"/>
      <point x="236" y="1231"/>
      <point x="284" y="1127"/>
      <point x="367" y="1053"/>
      <point x="476" y="1009"/>
      <point x="537" y="999" type="qcurve"/>
      <point x="537" y="961" type="line"/>
      <point x="219" y="961" type="line"/>
      <point x="334" y="912"/>
      <point x="334" y="821" type="qcurve" smooth="yes"/>
      <point x="334" y="177" type="line" smooth="yes"/>
      <point x="334" y="142"/>
      <point x="365" y="91"/>
      <point x="415" y="57"/>
      <point x="478" y="39"/>
      <point x="510" y="38" type="qcurve"/>
      <point x="510" y="0" type="line"/>
      <point x="120" y="0" type="line"/>
      <point x="120" y="38" type="line"/>
      <point x="373" y="38" type="line"/>
      <point x="296" y="85"/>
      <point x="296" y="177" type="qcurve" smooth="yes"/>
      <point x="296" y="821" type="line" smooth="yes"/>
      <point x="296" y="861"/>
      <point x="239" y="914"/>
      <point x="157" y="946"/>
      <point x="67" y="960"/>
      <point x="35" y="961" type="qcurve"/>
      <point x="35" y="999" type="line"/>
      <point x="408" y="999" type="line"/>
      <point x="353" y="1021"/>
      <point x="274" y="1085"/>
      <point x="223" y="1163"/>
      <point x="199" y="1253"/>
      <point x="199" y="1300" type="qcurve" smooth="yes"/>
      <point x="199" y="1360"/>
      <point x="241" y="1478"/>
      <point x="326" y="1572"/>
      <point x="454" y="1631"/>
      <point x="539" y="1631" type="qcurve" smooth="yes"/>
      <point x="595" y="1631"/>
      <point x="689" y="1619"/>
      <point x="776" y="1595"/>
      <point x="863" y="1559"/>
      <point x="911" y="1535" type="qcurve"/>
      <point x="911" y="153" type="line" smooth="yes"/>
      <point x="911" y="136"/>
      <point x="903" y="101"/>
      <point x="888" y="70"/>
      <point x="866" y="44"/>
      <point x="851" y="37" type="qcurve"/>
      <point x="1034" y="37" type="line"/>
      <point x="1034" y="0" type="line"/>
      <point x="694" y="0" type="line"/>
      <point x="693" y="37" type="line"/>
      <point x="731" y="39"/>
      <point x="797" y="53"/>
      <point x="846" y="80"/>
      <point x="874" y="122"/>
      <point x="874" y="153" type="qcurve" smooth="yes"/>
    </contour>
  </outline>
</glyph>
<glyph name="ffi" format="2">
  <advance width="1340"/>
  <unicode hex="FB03"/>
  <outline>
    <contour>
      <point x="120" y="0" type="line"/>
      <point x="120" y="38" type="line"/>
      <point x="373" y="38" type="line"/>
      <point x="296" y="85"/>
      <point x="296" y="177" type="qcurve" smooth="yes"/>
      <point x="296" y="821" type="line" smooth="yes"/>
      <point x="296" y="861"/>
      <point x="239" y="914"/>
      <point x="157" y="946"/>
      <point x="67" y="960"/>
      <point x="35" y="961" type="qcurve"/>
      <point x="35" y="999" type="line"/>
      <point x="408" y="999" type="line"/>
      <point x="353" y="1021"/>
      <point x="274" y="1085"/>
      <point x="223" y="1163"/>
      <point x="199" y="1253"/>
      <point x="199" y="1300" type="qcurve" smooth="yes"/>
      <point x="199" y="1360"/>
      <point x="241" y="1478"/>
      <point x="321" y="1572"/>
      <point x="438" y="1631"/>
      <point x="514" y="1631" type="qcurve" smooth="yes"/>
      <point x="534" y="1631"/>
      <point x="589" y="1625"/>
      <point x="647" y="1610"/>
      <point x="703" y="1583"/>
      <point x="724" y="1561" type="qcurve"/>
      <point x="762" y="1593"/>
      <point x="860" y="1631"/>
      <point x="921" y="1631" type="qcurve" smooth="yes"/>
      <point x="959" y="1631"/>
      <point x="1034" y="1613"/>
      <point x="1093" y="1576"/>
      <point x="1129" y="1517"/>
      <point x="1129" y="1476" type="qcurve" smooth="yes"/>
      <point x="1129" y="1391" type="line"/>
      <point x="1167" y="1383"/>
      <point x="1218" y="1324"/>
      <point x="1218" y="1284" type="qcurve" smooth="yes"/>
      <point x="1218" y="1261"/>
      <point x="1200" y="1222"/>
      <point x="1170" y="1192"/>
      <point x="1130" y="1175"/>
      <point x="1108" y="1175" type="qcurve" smooth="yes"/>
      <point x="1085" y="1175"/>
      <point x="1046" y="1192"/>
      <point x="1016" y="1222"/>
      <point x="999" y="1261"/>
      <point x="999" y="1284" type="qcurve" smooth="yes"/>
      <point x="999" y="1326"/>
      <point x="1053" y="1387"/>
      <point x="1094" y="1392" type="qcurve"/>
      <point x="1094" y="1480" type="line" smooth="yes"/>
      <point x="1094" y="1508"/>
      <point x="1067" y="1551"/>
      <point x="1020" y="1580"/>
      <point x="958" y="1595"/>
      <point x="923" y="1595" type="qcurve" smooth="yes"/>
      <point x="855" y="1595"/>
      <point x="750" y="1544"/>
      <point x="679" y="1461"/>
      <point x="643" y="1355"/>
      <point x="643" y="1300" type="qcurve" smooth="yes"/>
      <point x="643" y="1231"/>
      <point x="691" y="1127"/>
      <point x="774" y="1053"/>
      <point x="883" y="1009"/>
      <point x="944" y="999" type="qcurve"/>
      <point x="1137" y="999" type="line"/>
      <point x="1137" y="153" type="line" smooth="yes"/>
      <point x="1137" y="118"/>
      <point x="1106" y="57"/>
      <point x="1077" y="37" type="qcurve"/>
      <point x="1260" y="37" type="line"/>
      <point x="1260" y="0" type="line"/>
    </contour>
    <contour>
      <point x="219" y="961" type="line"/>
      <point x="334" y="912"/>
      <point x="334" y="821" type="qcurve" smooth="yes"/>
      <point x="334" y="177" type="line" smooth="yes"/>
      <point x="334" y="143"/>
      <point x="363" y="91"/>
      <point x="411" y="57"/>
      <point x="471" y="39"/>
      <point x="503" y="39" type="qcurve" smooth="yes"/>
      <point x="780" y="39" type="line"/>
      <point x="703" y="86"/>
      <point x="703" y="177" type="qcurve" smooth="yes"/>
      <point x="703" y="821" type="line" smooth="yes"/>
      <point x="703" y="861"/>
      <point x="646" y="914"/>
      <point x="564" y="946"/>
      <point x="474" y="960"/>
      <point x="442" y="961" type="qcurve" smooth="yes"/>
    </contour>
    <contour>
      <point x="919" y="37" type="qcurve" smooth="yes"/>
      <point x="947" y="37"/>
      <point x="1010" y="46"/>
      <point x="1064" y="71"/>
      <point x="1100" y="116"/>
      <point x="1100" y="153" type="qcurve" smooth="yes"/>
      <point x="1100" y="961" type="line"/>
      <point x="626" y="961" type="line"/>
      <point x="741" y="912"/>
      <point x="741" y="821" type="qcurve" smooth="yes"/>
      <point x="741" y="177" type="line" smooth="yes"/>
      <point x="741" y="142"/>
      <point x="772" y="90"/>
      <point x="823" y="55"/>
      <point x="887" y="37"/>
    </contour>
    <contour>
      <point x="236" y="1300" type="qcurve" smooth="yes"/>
      <point x="236" y="1231"/>
      <point x="284" y="1127"/>
      <point x="367" y="1053"/>
      <point x="476" y="1009"/>
      <point x="537" y="999" type="qcurve"/>
      <point x="815" y="999" type="line"/>
      <point x="760" y="1021"/>
      <point x="681" y="1085"/>
      <point x="630" y="1163"/>
      <point x="606" y="1253"/>
      <point x="606" y="1300" type="qcurve" smooth="yes"/>
      <point x="606" y="1364"/>
      <point x="653" y="1489"/>
      <point x="699" y="1537" type="qcurve"/>
      <point x="682" y="1553"/>
      <point x="634" y="1575"/>
      <point x="583" y="1588"/>
      <point x="534" y="1593"/>
      <point x="516" y="1593" type="qcurve" smooth="yes"/>
      <point x="448" y="1593"/>
      <point x="343" y="1543"/>
      <point x="272" y="1460"/>
      <point x="236" y="1355"/>
    </contour>
    <contour>
      <point x="1037" y="1284" type="qcurve" smooth="yes"/>
      <point x="1037" y="1255"/>
      <point x="1079" y="1213"/>
      <point x="1108" y="1213" type="qcurve" smooth="yes"/>
      <point x="1137" y="1213"/>
      <point x="1180" y="1255"/>
      <point x="1180" y="1284" type="qcurve" smooth="yes"/>
      <point x="1179" y="1314"/>
      <point x="1137" y="1356"/>
      <point x="1108" y="1356" type="qcurve" smooth="yes"/>
      <point x="1079" y="1356"/>
      <point x="1037" y="1314"/>
    </contour>
  </outline>
</glyph>
<glyph name="s_t" format="2">
  <advance width="1511"/>
  <unicode hex="FB06"/>
  <outline>
    <contour>
      <point x="1032" y="1223" type="qcurve" smooth="yes"/>
      <point x="1032" y="1151"/>
      <point x="973" y="1044"/>
      <point x="902" y="999" type="qcurve"/>
      <point x="1490" y="999" type="line"/>
      <point x="1490" y="963" type="line"/>
      <point x="1030" y="963" type="line"/>
      <point x="1030" y="112" type="line" smooth="yes"/>
      <point x="1030" y="64"/>
      <point x="1082" y="23"/>
      <point x="1121" y="23" type="qcurve" smooth="yes"/>
      <point x="1179" y="23"/>
      <point x="1277" y="96"/>
      <point x="1312" y="149" type="qcurve"/>
      <point x="1344" y="129" type="line"/>
      <point x="1328" y="101"/>
      <point x="1281" y="49"/>
      <point x="1224" y="9"/>
      <point x="1157" y="-15"/>
      <point x="1122" y="-15" type="qcurve" smooth="yes"/>
      <point x="1059" y="-15"/>
      <point x="992" y="55"/>
      <point x="992" y="112" type="qcurve" smooth="yes"/>
      <point x="992" y="963" type="line"/>
      <point x="712" y="963" type="line"/>
      <point x="712" y="997" type="line"/>
      <point x="782" y="996" type="line" smooth="yes"/>
      <point x="825" y="996"/>
      <point x="902" y="1031"/>
      <point x="960" y="1091"/>
      <point x="993" y="1171"/>
      <point x="993" y="1215" type="qcurve" smooth="yes"/>
      <point x="993" y="1254"/>
      <point x="961" y="1320"/>
      <point x="901" y="1369"/>
      <point x="814" y="1397"/>
      <point x="759" y="1397" type="qcurve" smooth="yes"/>
      <point x="703" y="1397"/>
      <point x="613" y="1360"/>
      <point x="551" y="1293"/>
      <point x="518" y="1201"/>
      <point x="518" y="1147" type="qcurve" smooth="yes"/>
      <point x="518" y="1075"/>
      <point x="556" y="992"/>
      <point x="588" y="963" type="qcurve"/>
      <point x="568" y="928" type="line"/>
      <point x="519" y="948"/>
      <point x="406" y="979"/>
      <point x="349" y="979" type="qcurve" smooth="yes"/>
      <point x="314" y="979"/>
      <point x="246" y="962"/>
      <point x="192" y="928"/>
      <point x="158" y="876"/>
      <point x="158" y="841" type="qcurve" smooth="yes"/>
      <point x="158" y="800"/>
      <point x="205" y="745"/>
      <point x="282" y="702"/>
      <point x="381" y="665"/>
      <point x="484" y="622"/>
      <point x="583" y="566"/>
      <point x="660" y="485"/>
      <point x="707" y="371"/>
      <point x="707" y="292" type="qcurve" smooth="yes"/>
      <point x="707" y="229"/>
      <point x="657" y="117"/>
      <point x="569" y="33"/>
      <point x="450" y="-16"/>
      <point x="380" y="-16" type="qcurve" smooth="yes"/>
      <point x="265" y="-16"/>
      <point x="103" y="110"/>
      <point x="68" y="231" type="qcurve"/>
      <point x="149" y="343" type="line"/>
      <point x="180" y="321" type="line"/>
      <point x="110" y="224" type="line"/>
      <point x="138" y="132"/>
      <point x="278" y="21"/>
      <point x="380" y="21" type="qcurve" smooth="yes"/>
      <point x="461" y="21"/>
      <point x="571" y="78"/>
      <point x="640" y="162"/>
      <point x="670" y="256"/>
      <point x="670" y="293" type="qcurve" smooth="yes"/>
      <point x="670" y="366"/>
      <point x="623" y="469"/>
      <point x="546" y="544"/>
      <point x="447" y="596"/>
      <point x="344" y="639"/>
      <point x="245" y="679"/>
      <point x="168" y="728"/>
      <point x="121" y="794"/>
      <point x="121" y="841" type="qcurve" smooth="yes"/>
      <point x="121" y="882"/>
      <point x="160" y="947"/>
      <point x="225" y="992"/>
      <point x="309" y="1016"/>
      <point x="353" y="1016" type="qcurve" smooth="yes"/>
      <point x="394" y="1016"/>
      <point x="475" y="1001"/>
      <point x="517" y="988" type="qcurve"/>
      <point x="500" y="1015"/>
      <point x="480" y="1101"/>
      <point x="480" y="1147" type="qcurve" smooth="yes"/>
      <point x="480" y="1174"/>
      <point x="490" y="1238"/>
      <point x="515" y="1302"/>
      <point x="557" y="1363"/>
      <point x="619" y="1409"/>
      <point x="703" y="1437"/>
      <point x="759" y="1437" type="qcurve" smooth="yes"/>
      <point x="834" y="1437"/>
      <point x="938" y="1397"/>
      <point x="1003" y="1334"/>
      <point x="1032" y="1259"/>
    </contour>
  </outline>
</glyph>
<glyph name="A.2" format="2">
  <advance width="1422"/>
  <outline>
    <contour>
      <point x="50" y="39" type="line"/>
      <point x="116" y="39" type="line"/>
      <point x="233" y="444" type="line"/>
      <point x="569" y="1574" type="line"/>
      <point x="450" y="1574" type="line"/>
      <point x="410" y="1433" type="line"/>
      <point x="374" y="1443" type="line"/>
      <point x="435" y="1664" type="line"/>
      <point x="472" y="1654" type="line"/>
      <point x="460" y="1612" type="line"/>
      <point x="946" y="1612" type="line"/>
      <point x="934" y="1654" type="line"/>
      <point x="970" y="1664" type="line"/>
      <point x="1031" y="1443" type="line"/>
      <point x="995" y="1433" type="line"/>
      <point x="956" y="1574" type="line"/>
      <point x="834" y="1574" type="line"/>
      <point x="1284" y="39" type="line"/>
      <point x="1372" y="39" type="line"/>
      <point x="1372" y="1" type="line"/>
      <point x="1125" y="1" type="line"/>
      <point x="1125" y="39" type="line"/>
      <point x="1244" y="39" type="line"/>
      <point x="991" y="910" type="line"/>
      <point x="826" y="880"/>
      <point x="680" y="820" type="qcurve" smooth="yes"/>
      <point x="616" y="793"/>
      <point x="488" y="721"/>
      <point x="377" y="625"/>
      <point x="291" y="506"/>
      <point x="269" y="433" type="qcurve" smooth="yes"/>
      <point x="156" y="39" type="line"/>
      <point x="297" y="39" type="line"/>
      <point x="297" y="1" type="line"/>
      <point x="50" y="1" type="line"/>
    </contour>
    <contour>
      <point x="323" y="614" type="line"/>
      <point x="387" y="696"/>
      <point x="565" y="812"/>
      <point x="666" y="855" type="qcurve" smooth="yes"/>
      <point x="810" y="914"/>
      <point x="980" y="946" type="qcurve"/>
      <point x="795" y="1574" type="line"/>
      <point x="608" y="1574" type="line"/>
    </contour>
  </outline>
</glyph>
<glyph name="B.2" format="2">
  <advance width="1313"/>
  <outline>
    <contour>
      <point x="70" y="39" type="line"/>
      <point x="185" y="39" type="line"/>
      <point x="185" y="1575" type="line"/>
      <point x="70" y="1575" type="line"/>
      <point x="70" y="1613" type="line"/>
      <point x="647" y="1612" type="line" smooth="yes"/>
      <point x="739" y="1612"/>
      <point x="906" y="1544"/>
      <point x="1033" y="1419"/>
      <point x="1108" y="1245"/>
      <point x="1108" y="1139" type="qcurve" smooth="yes"/>
      <point x="1108" y="1021"/>
      <point x="1056" y="924" type="qcurve"/>
      <point x="1143" y="849"/>
      <point x="1237" y="642"/>
      <point x="1237" y="527" type="qcurve" smooth="yes"/>
      <point x="1237" y="422"/>
      <point x="1158" y="232"/>
      <point x="1017" y="87"/>
      <point x="824" y="1"/>
      <point x="711" y="1" type="qcurve" smooth="yes"/>
      <point x="70" y="1" type="line"/>
    </contour>
    <contour>
      <point x="711" y="39" type="line" smooth="yes"/>
      <point x="811" y="39"/>
      <point x="989" y="115"/>
      <point x="1122" y="246"/>
      <point x="1199" y="424"/>
      <point x="1199" y="527" type="qcurve" smooth="yes"/>
      <point x="1199" y="608"/>
      <point x="1158" y="739"/>
      <point x="1087" y="845"/>
      <point x="988" y="929"/>
      <point x="873" y="998"/>
      <point x="745" y="1054"/>
      <point x="680" y="1079" type="qcurve" smooth="yes"/>
      <point x="628" y="1099"/>
      <point x="539" y="1135"/>
      <point x="473" y="1176"/>
      <point x="436" y="1224"/>
      <point x="436" y="1255" type="qcurve" smooth="yes"/>
      <point x="436" y="1311"/>
      <point x="505" y="1384"/>
      <point x="564" y="1388" type="qcurve"/>
      <point x="564" y="1351" type="line"/>
      <point x="558" y="1350" type="line"/>
      <point x="520" y="1350"/>
      <point x="474" y="1293"/>
      <point x="474" y="1255" type="qcurve" smooth="yes"/>
      <point x="474" y="1230"/>
      <point x="512" y="1192"/>
      <point x="574" y="1160"/>
      <point x="653" y="1131"/>
      <point x="694" y="1115" type="qcurve" smooth="yes"/>
      <point x="737" y="1098"/>
      <point x="823" y="1063"/>
      <point x="907" y="1024"/>
      <point x="988" y="977"/>
      <point x="1026" y="949" type="qcurve"/>
      <point x="1071" y="1040"/>
      <point x="1071" y="1139" type="qcurve" smooth="yes"/>
      <point x="1071" y="1227"/>
      <point x="1005" y="1385"/>
      <point x="890" y="1505"/>
      <point x="735" y="1575"/>
      <point x="647" y="1575" type="qcurve" smooth="yes"/>
      <point x="223" y="1575" type="line"/>
      <point x="223" y="39" type="line"/>
    </contour>
  </outline>
</glyph>
<glyph name="B.3" format="2">
  <advance width="1321"/>
  <outline>
    <contour>
      <point x="70" y="37" type="line"/>
      <point x="187" y="37" type="line"/>
      <point x="187" y="1574" type="line"/>
      <point x="70" y="1574" type="line"/>
      <point x="70" y="1612" type="line"/>
      <point x="651" y="1612" type="line" smooth="yes"/>
      <point x="744" y="1612"/>
      <point x="912" y="1537"/>
      <point x="1040" y="1408"/>
      <point x="1116" y="1238"/>
      <point x="1116" y="1143" type="qcurve" smooth="yes"/>
      <point x="1116" y="1029"/>
      <point x="1062" y="927" type="qcurve"/>
      <point x="1150" y="851"/>
      <point x="1245" y="642"/>
      <point x="1245" y="527" type="qcurve" smooth="yes"/>
      <point x="1245" y="420"/>
      <point x="1160" y="228"/>
      <point x="1015" y="84"/>
      <point x="823" y="-1"/>
      <point x="716" y="-1" type="qcurve" smooth="yes"/>
      <point x="70" y="-1" type="line"/>
    </contour>
    <contour>
      <point x="716" y="37" type="line" smooth="yes"/>
      <point x="814" y="37"/>
      <point x="992" y="113"/>
      <point x="1127" y="245"/>
      <point x="1207" y="424"/>
      <point x="1207" y="527" type="qcurve" smooth="yes"/>
      <point x="1207" y="639"/>
      <point x="1114" y="837"/>
      <point x="1027" y="907" type="qcurve"/>
      <point x="889" y="995" type="line"/>
      <point x="864" y="900" type="line"/>
      <point x="828" y="910" type="line"/>
      <point x="890" y="1151" type="line"/>
      <point x="927" y="1141" type="line"/>
      <point x="899" y="1034" type="line"/>
      <point x="1032" y="950" type="line"/>
      <point x="1078" y="1038"/>
      <point x="1078" y="1143" type="qcurve" smooth="yes"/>
      <point x="1078" y="1227"/>
      <point x="1011" y="1382"/>
      <point x="896" y="1502"/>
      <point x="740" y="1573"/>
      <point x="651" y="1573" type="qcurve" smooth="yes"/>
      <point x="224" y="1573" type="line"/>
      <point x="224" y="37" type="line"/>
    </contour>
  </outline>
</glyph>
<glyph name="C.2" format="2">
  <advance width="1171"/>
  <outline>
    <contour>
      <point x="80" y="798" type="qcurve" smooth="yes"/>
      <point x="80" y="887"/>
      <point x="112" y="1079"/>
      <point x="178" y="1264"/>
      <point x="277" y="1431"/>
      <point x="410" y="1556"/>
      <point x="577" y="1630"/>
      <point x="679" y="1630" type="qcurve" smooth="yes"/>
      <point x="779" y="1630"/>
      <point x="953" y="1557"/>
      <point x="1035" y="1468" type="qcurve"/>
      <point x="1022" y="1446" type="line"/>
      <point x="986" y="1447"/>
      <point x="919" y="1419"/>
      <point x="868" y="1369"/>
      <point x="837" y="1306"/>
      <point x="836" y="1273" type="qcurve" smooth="yes"/>
      <point x="834" y="1205"/>
      <point x="890" y="1150" type="qcurve"/>
      <point x="864" y="1123" type="line"/>
      <point x="797" y="1190"/>
      <point x="798" y="1274" type="qcurve" smooth="yes"/>
      <point x="799" y="1358"/>
      <point x="879" y="1429" type="qcurve" smooth="yes"/>
      <point x="922" y="1468"/>
      <point x="975" y="1478" type="qcurve"/>
      <point x="917" y="1535"/>
      <point x="774" y="1592"/>
      <point x="679" y="1592" type="qcurve" smooth="yes"/>
      <point x="587" y="1592"/>
      <point x="431" y="1523"/>
      <point x="307" y="1405"/>
      <point x="213" y="1248"/>
      <point x="150" y="1072"/>
      <point x="118" y="886"/>
      <point x="118" y="798" type="qcurve" smooth="yes"/>
      <point x="118" y="709"/>
      <point x="150" y="525"/>
      <point x="213" y="353"/>
      <point x="307" y="201"/>
      <point x="432" y="88"/>
      <point x="587" y="23"/>
      <point x="679" y="23" type="qcurve" smooth="yes"/>
      <point x="791" y="23"/>
      <point x="992" y="134"/>
      <point x="1071" y="240" type="qcurve"/>
      <point x="886" y="395" type="line"/>
      <point x="911" y="421" type="line"/>
      <point x="1121" y="244" type="line"/>
      <point x="1077" y="182"/>
      <point x="973" y="86"/>
      <point x="859" y="20"/>
      <point x="739" y="-15"/>
      <point x="679" y="-15" type="qcurve" smooth="yes"/>
      <point x="582" y="-15"/>
      <point x="417" y="54"/>
      <point x="284" y="172"/>
      <point x="183" y="331"/>
      <point x="115" y="511"/>
      <point x="80" y="704"/>
    </contour>
  </outline>
</glyph>
<glyph name="C.3" format="2">
  <advance width="1169"/>
  <outline>
    <contour>
      <point x="118" y="798" type="qcurve" smooth="yes"/>
      <point x="118" y="703"/>
      <point x="151" y="515"/>
      <point x="216" y="343"/>
      <point x="312" y="194"/>
      <point x="437" y="85"/>
      <point x="589" y="23"/>
      <point x="679" y="23" type="qcurve" smooth="yes"/>
      <point x="791" y="23"/>
      <point x="995" y="137"/>
      <point x="1074" y="243" type="qcurve"/>
      <point x="883" y="394" type="line"/>
      <point x="906" y="423" type="line"/>
      <point x="1119" y="247" type="line"/>
      <point x="1077" y="187"/>
      <point x="974" y="90"/>
      <point x="860" y="22"/>
      <point x="739" y="-15"/>
      <point x="679" y="-15" type="qcurve" smooth="yes"/>
      <point x="581" y="-15"/>
      <point x="417" y="51"/>
      <point x="284" y="166"/>
      <point x="183" y="322"/>
      <point x="115" y="503"/>
      <point x="80" y="700"/>
      <point x="80" y="798" type="qcurve" smooth="yes"/>
      <point x="80" y="887"/>
      <point x="112" y="1079"/>
      <point x="178" y="1264"/>
      <point x="277" y="1431"/>
      <point x="410" y="1556"/>
      <point x="578" y="1630"/>
      <point x="679" y="1630" type="qcurve" smooth="yes"/>
      <point x="877" y="1630"/>
      <point x="1036" y="1468" type="qcurve" smooth="yes"/>
      <point x="1050" y="1454" type="line"/>
      <point x="864" y="1269" type="line"/>
      <point x="838" y="1296" type="line"/>
      <point x="996" y="1454" type="line"/>
      <point x="852" y="1592"/>
      <point x="679" y="1592" type="qcurve" smooth="yes"/>
      <point x="586" y="1592"/>
      <point x="431" y="1523"/>
      <point x="306" y="1405"/>
      <point x="212" y="1248"/>
      <point x="150" y="1072"/>
      <point x="118" y="886"/>
    </contour>
  </outline>
</glyph>
<glyph name="D.2" format="2">
  <advance width="1237"/>
  <outline>
    <contour>
      <point x="-328" y="1693" type="qcurve" smooth="yes"/>
      <point x="-330" y="1775"/>
      <point x="-229" y="1876" type="qcurve"/>
      <point x="-203" y="1849" type="line"/>
      <point x="-217" y="1835"/>
      <point x="-249" y="1801"/>
      <point x="-275" y="1761"/>
      <point x="-292" y="1718"/>
      <point x="-291" y="1696" type="qcurve" smooth="yes"/>
      <point x="-291" y="1672"/>
      <point x="-264" y="1639"/>
      <point x="-220" y="1617"/>
      <point x="-165" y="1604"/>
      <point x="-109" y="1598"/>
      <point x="-57" y="1596"/>
      <point x="-39" y="1596" type="qcurve" smooth="yes"/>
      <point x="94" y="1596"/>
      <point x="375" y="1551"/>
      <point x="641" y="1457"/>
      <point x="877" y="1312"/>
      <point x="1054" y="1110"/>
      <point x="1157" y="850"/>
      <point x="1157" y="689" type="qcurve" smooth="yes"/>
      <point x="1157" y="618"/>
      <point x="1136" y="461"/>
      <point x="1089" y="307"/>
      <point x="1013" y="166"/>
      <point x="906" y="59"/>
      <point x="763" y="-5"/>
      <point x="672" y="-5" type="qcurve" smooth="yes"/>
      <point x="73" y="-7" type="line"/>
      <point x="73" y="30" type="line"/>
      <point x="187" y="31" type="line"/>
      <point x="187" y="1467" type="line"/>
      <point x="225" y="1467" type="line"/>
      <point x="225" y="31" type="line"/>
      <point x="672" y="33" type="line" smooth="yes"/>
      <point x="754" y="33"/>
      <point x="884" y="91"/>
      <point x="983" y="189"/>
      <point x="1053" y="320"/>
      <point x="1098" y="466"/>
      <point x="1119" y="618"/>
      <point x="1119" y="689" type="qcurve" smooth="yes"/>
      <point x="1119" y="838"/>
      <point x="1022" y="1083"/>
      <point x="854" y="1277"/>
      <point x="629" y="1419"/>
      <point x="372" y="1513"/>
      <point x="95" y="1559"/>
      <point x="-39" y="1559" type="qcurve" smooth="yes"/>
      <point x="-60" y="1559"/>
      <point x="-119" y="1561"/>
      <point x="-183" y="1570"/>
      <point x="-247" y="1587"/>
      <point x="-297" y="1617"/>
      <point x="-328" y="1661"/>
    </contour>
  </outline>
</glyph>
